<svg id="home" xmlns="http://www.w3.org/2000/svg"  viewBox="0 0 40 40" width="40px" height="40px"><path fill="#ead6c7" d="M3.5 38.5L3.5 13.286 19.998 3.58 36.5 13.286 36.5 38.5z"/><path fill="#1f212b" d="M19.998,4.16L36,13.572V38H4V13.572L19.998,4.16 M19.998,3L3,13v26h34V13L19.998,3L19.998,3z"/><path fill="#b18597" d="M19.998 5.645L1.5 16.954 1.5 12.896 19.998 1.586 38.5 12.896 38.5 16.954z"/><path fill="#1f212b" d="M19.998,2.172L38,13.176v2.887L20.519,5.378l-0.522-0.319l-0.522,0.319L2,16.063v-2.887 L19.998,2.172 M19.998,1L1,12.615v5.231L19.998,6.231L39,17.846v-5.231L19.998,1L19.998,1z"/><path fill="#ead6c7" d="M4 34H36V38H4z"/><path fill="#b08159" d="M8.5 21.5H18.5V38.5H8.5z"/><path fill="#704e34" d="M18,22v16H9V22H18 M19,21H8v18h11V21L19,21z"/><path fill="#1f212b" d="M16.5 30A0.5 0.5 0 1 0 16.5 31A0.5 0.5 0 1 0 16.5 30Z"/></svg>
