<svg id="iphone" xmlns="http://www.w3.org/2000/svg" fill="none" viewBox="0 0 14 14" height="48" width="48"><path  d="M1.10135 8.69064C1.17748 9.19978 1.61869 9.57968 2.13327 9.56428C3.71012 9.5171 5.31651 9.45639 7 9.45639C8.67691 9.45639 10.2836 9.49445 11.8513 9.55277C12.3724 9.57216 12.8238 9.19069 12.901 8.67504C13.0624 7.59727 13.25 6.47436 13.25 5.32062C13.25 4.1709 13.0637 3.05181 12.9027 1.97749C12.8247 1.45718 12.3659 1.0746 11.8403 1.09668C10.2904 1.16177 8.66902 1.18484 7 1.18484C5.32421 1.18484 3.70266 1.13943 2.14393 1.08491C1.62486 1.06675 1.17661 1.44774 1.09973 1.9614C0.938201 3.04064 0.75 4.16516 0.75 5.32062C0.75 6.47993 0.93946 7.6081 1.10135 8.69064Z"></path><path  stroke-linecap="round" d="M4.5083 12.5127H9.49161"></path><path  stroke-linecap="round" d="M7 9.45898L7 12.5126"></path></svg>
