<svg id="letter" enable-background="new 0 0 510.888 510.888" height="512" viewBox="0 0 510.888 510.888" width="512" xmlns="http://www.w3.org/2000/svg"><g><g><g><g><path d="m465.924 205.718-176.576-32.423h-205.98l-75.864 191.676v34.303c0 17.03 13.8 30.83 30.83 30.83h434.22c17.03 0 30.83-13.8 30.83-30.83v-1.98z" fill="#ead6c7"/><g><g id="XMLID_00000044155024859450474710000015722686118213523382_"><g><path d="m459.571 104.3-184.529 95.696 228.342 197.298v-250.68z" fill="#ead6c7"/><path d="m74.129 196.638-66.625 168.333v34.303c0 17.03 13.8 30.83 30.83 30.83h35.795z" fill="#fbe372"/><path d="m64.4 107.913-56.896 38.701v252.66l236.626-213.575z" fill="#ead6c7"/><path d="m74.129 112.124-9.729-4.211-56.896 38.701v252.66l66.625-60.135z" fill="#ead6c7"/><path d="m503.384 111.614v35l-215.9 134.82c-19.61 12.24-44.47 12.24-64.08 0l-215.9-134.82v-35c0-17.03 13.8-30.83 30.83-30.83h434.22c17.03 0 30.83 13.8 30.83 30.83z" fill="#ead6c7"/></g></g></g></g><path d="m493 388.321 10.384 8.973v-8.973z" fill="#ead6c7"/></g><path d="m74.129 80.784h-35.795c-17.03 0-30.83 13.8-30.83 30.83v35l66.625 41.605z" fill="#ead6c7"/></g><path d="m472.553 73.281h-365.581c-4.142 0-7.5 3.358-7.5 7.5s3.358 7.5 7.5 7.5h365.581c12.867 0 23.334 10.468 23.334 23.335v30.843l-56.396 35.215c-3.514 2.194-4.583 6.821-2.39 10.334 1.423 2.278 3.868 3.529 6.369 3.529 1.356 0 2.729-.368 3.965-1.139l48.452-30.254v221.542l-146.418-130.114 70.812-44.217c3.514-2.194 4.583-6.821 2.39-10.334-2.194-3.514-6.82-4.582-10.334-2.39l-128.829 80.444c-17.049 10.646-39.079 10.646-56.128 0l-212.38-132.616v-30.843c0-12.867 10.468-23.335 23.334-23.335h36.676c4.142 0 7.5-3.358 7.5-7.5s-3.358-7.5-7.5-7.5h-36.676c-21.137 0-38.334 17.197-38.334 38.335v287.656c0 21.138 17.197 38.335 38.334 38.335h326.091c4.142 0 7.5-3.358 7.5-7.5s-3.358-7.5-7.5-7.5h-326.091c-11.79 0-21.56-8.792-23.113-20.163l160.048-142.224 44.167 27.579c10.937 6.829 23.473 10.244 36.008 10.244s25.071-3.415 36.008-10.244l44.754-27.946 159.561 141.792c-1.193 11.756-11.149 20.962-23.214 20.962h-76.166c-4.142 0-7.5 3.358-7.5 7.5s3.358 7.5 7.5 7.5h76.166c21.138 0 38.334-17.197 38.334-38.335v-287.656c.001-21.138-17.196-38.335-38.334-38.335zm-457.553 309.292v-222.43l147.006 91.795z"/></g></svg>
