<svg viewBox="30 31.5 452 452" id="letter">
      <g fill-rule="evenodd">
        <path d="M 441,81 A 40,40 0 0 1 481,121 L 481,395 A 40,40 0 0 1 441,435 L 71,435 A 40,40 0 0 1 31,395 L 31,121 A 40,40 0 0 1 71,81 Z M 63,121 A 8,8 0 0 1 71,113 L 441,113 A 8,8 0 0 1 449,121 L 449,131 C 448,150 438,166 417,188 L 288,291 C258,311 254,311 224,291 L 95,188 C 74,166 64,150 63,131 Z M 63,202 C 66,205 75,214 80,218 L 208,320 C 245,344 265,344 304,320 L 432,218 C 437,214 446,205 449,202 L 449,394 A 8,8 0 0 1 441,402 L 71,402 A 8,8 0 0 1 63,394 Z"></path>
      </g>
    </svg>
