<svg xmlns="http://www.w3.org/2000/svg" viewBox="0 0 1440 320"><path fill="#0099ff" fill-opacity="1" d="M0,96L26.7,117.3C53.3,139,107,181,160,197.3C213.3,213,267,203,320,176C373.3,149,427,107,480,90.7C533.3,75,587,85,640,85.3C693.3,85,747,75,800,69.3C853.3,64,907,64,960,101.3C1013.3,139,1067,213,1120,224C1173.3,235,1227,181,1280,138.7C1333.3,96,1387,64,1413,48L1440,32L1440,0L1413.3,0C1386.7,0,1333,0,1280,0C1226.7,0,1173,0,1120,0C1066.7,0,1013,0,960,0C906.7,0,853,0,800,0C746.7,0,693,0,640,0C586.7,0,533,0,480,0C426.7,0,373,0,320,0C266.7,0,213,0,160,0C106.7,0,53,0,27,0L0,0Z"></path></svg>
