<svg id="a11y" xmlns="http://www.w3.org/2000/svg" version="1.1" xmlns:xlink="http://www.w3.org/1999/xlink" xmlns:svgjs="http://svgjs.com/svgjs" viewBox="0 0 640 400" class="" xmlns:xlink="http://www.w3.org/1999/xlink" xmlns:svgjs="http://svgjs.dev/svgjs"><g viewBox="0 0 640 400"><g><g><g><svg viewBox="0 0 640 400" data-background-color="#ffffff" preserveAspectRatio="xMidYMid meet" height="400" width="640" xmlns="http://www.w3.org/2000/svg" xmlns:xlink="http://www.w3.org/1999/xlink"><rect width="640" height="400" x="0" y="0" opacity="1" fill="#ffffff" data-fill-palette-color="background" id="background"></rect><g id="tight-bounds" transform="matrix(1,0,0,1,148.57422074112307,28.57422074112307)"><svg viewBox="0 0 342.85155851775386 342.85155851775386" height="342.85155851775386" width="342.85155851775386"><g><svg></svg></g><g><svg viewBox="0 0 342.85155851775386 342.85155851775386" height="342.85155851775386" width="342.85155851775386"><g><path d="M0 171.426c0-94.676 76.75-171.426 171.426-171.426 94.676 0 171.426 76.75 171.426 171.426 0 94.676-76.75 171.426-171.426 171.426-94.676 0-171.426-76.75-171.426-171.426zM171.426 335.643c90.695 0 164.217-73.523 164.217-164.217 0-90.695-73.523-164.217-164.217-164.217-90.695 0-164.217 73.523-164.217 164.217 0 90.695 73.523 164.217 164.217 164.217z" data-fill-palette-color="tertiary" fill="#269735" stroke="transparent"></path><ellipse rx="164.56874808852186" ry="164.56874808852186" cx="171.42577925887693" cy="171.42577925887693" fill="#269735" stroke="transparent" stroke-width="0" fill-opacity="1" data-fill-palette-color="tertiary"></ellipse></g><g transform="matrix(1,0,0,1,64.84655864529837,131.45857152878497)"><svg viewBox="0 0 213.1584412271571 79.93441546018391" height="79.93441546018391" width="213.1584412271571"><g><svg viewBox="0 0 213.1584412271571 79.93441546018391" height="79.93441546018391" width="213.1584412271571"><g><svg viewBox="0 0 213.1584412271571 79.93441546018391" height="79.93441546018391" width="213.1584412271571"><g><svg viewBox="0 0 213.1584412271571 79.93441546018391" height="79.93441546018391" width="213.1584412271571"><g id="textblocktransform"><svg viewBox="0 0 213.1584412271571 79.93441546018391" height="79.93441546018391" width="213.1584412271571" id="textblock"><g><svg viewBox="0 0 213.1584412271571 79.93441546018391" height="79.93441546018391" width="213.1584412271571"><g transform="matrix(1,0,0,1,0,0)"><svg width="213.1584412271571" viewBox="1.5099999904632568 -36.869998931884766 115.6199951171875 43.36000061035156" height="79.93441546018391" data-palette-color="#ffffff"><path d="M36.87-22.02L36.87-22.02Q36.87-17.92 36.57-13.87 36.28-9.81 35.99-5.76L35.99-5.76Q30.52-5.27 25.1-4.93 19.68-4.59 14.21-4.59L14.21-4.59Q13.72-4.59 12.4-4.61 11.08-4.64 9.62-4.71 8.15-4.79 6.84-4.91 5.52-5.03 5.08-5.27L5.08-5.27Q3.47-6.15 2.83-7.5 2.2-8.84 2.2-10.55L2.2-10.55Q2.2-11.13 2.25-12.11 2.29-13.09 2.44-14.16 2.59-15.23 2.83-16.16 3.08-17.09 3.42-17.53L3.42-17.53Q3.86-18.12 5.42-18.53 6.98-18.95 9.16-19.19 11.33-19.43 13.84-19.58 16.36-19.73 18.65-19.8 20.95-19.87 22.75-19.87 24.56-19.87 25.34-19.87L25.34-19.87Q25.49-20.95 25.49-21.97L25.49-21.97Q25.49-22.07 25.49-22.49 25.49-22.9 25.44-23L25.44-23Q25.29-23.29 24.51-23.49 23.73-23.68 22.58-23.78 21.44-23.88 20.09-23.95 18.75-24.02 17.48-24.02 16.21-24.02 15.23-24.02 14.26-24.02 13.82-24.02L13.82-24.02Q10.74-24.02 7.67-23.9 4.59-23.78 1.51-23.68L1.51-23.68Q1.71-25.54 1.83-27.44 1.95-29.35 1.86-31.2L1.86-31.2Q5.42-31.84 9.01-32.1 12.6-32.37 16.26-32.37L16.26-32.37Q17.58-32.37 19.14-32.35 20.7-32.32 22.27-32.25 23.83-32.18 25.37-32.03 26.9-31.88 28.22-31.64L28.22-31.64Q29.59-31.4 30.93-30.76 32.28-30.13 33.45-29.2 34.62-28.27 35.5-27.08 36.38-25.88 36.77-24.51L36.77-24.51Q36.82-24.37 36.84-24.02 36.87-23.68 36.87-23.27 36.87-22.85 36.87-22.51 36.87-22.17 36.87-22.02ZM25.98-10.55L25.98-10.55 25.98-16.8Q24.56-16.85 23.14-16.87 21.73-16.89 20.31-16.89L20.31-16.89Q20.02-16.89 18.68-16.87 17.33-16.85 15.8-16.75 14.26-16.65 12.99-16.5 11.72-16.36 11.52-16.06L11.52-16.06Q11.28-15.67 11.21-15.26 11.13-14.84 11.13-14.4L11.13-14.4Q11.13-14.06 11.18-13.48 11.23-12.89 11.35-12.26 11.47-11.62 11.62-11.08 11.77-10.55 12.01-10.3L12.01-10.3Q12.21-10.06 12.67-9.94 13.13-9.81 13.67-9.74 14.21-9.67 14.75-9.64 15.28-9.62 15.58-9.62L15.58-9.62Q16.75-9.62 18.09-9.72 19.43-9.81 20.83-9.94 22.22-10.06 23.54-10.23 24.85-10.4 25.98-10.55ZM56.64-0.15L56.64-0.15Q53.66-0.39 50.75-0.51 47.85-0.63 44.92-0.68L44.92-0.68 46.24-26.76 42.33-27.15Q43.11-29.49 43.41-31.84 43.7-34.18 44.09-36.57L44.09-36.57 54.59-36.87Q55.17-27.64 55.64-18.51 56.1-9.38 56.64-0.15ZM77.44-0.15L77.44-0.15Q74.46-0.39 71.55-0.51 68.65-0.63 65.72-0.68L65.72-0.68 67.04-26.76 63.13-27.15Q63.91-29.49 64.2-31.84 64.5-34.18 64.89-36.57L64.89-36.57 75.39-36.87Q75.97-27.64 76.44-18.51 76.9-9.38 77.44-0.15ZM117.13-9.62L117.13-9.62Q117.13-9.08 117.13-8.06 117.13-7.03 117.08-5.74 117.03-4.44 116.96-3.05 116.89-1.66 116.79-0.42 116.69 0.83 116.52 1.78 116.35 2.73 116.15 3.13L116.15 3.13Q115.32 4.44 114.62 5.15 113.91 5.86 113.08 6.15 112.25 6.45 111.2 6.47 110.15 6.49 108.73 6.49L108.73 6.49Q104.05 6.49 99.41 6.13 94.77 5.76 90.13 5.27L90.13 5.27 90.13-1.42Q90.57-1.42 92.06-1.44 93.55-1.46 95.55-1.51 97.55-1.56 99.8-1.66 102.04-1.76 104-1.9 105.95-2.05 107.37-2.25 108.78-2.44 109.12-2.73L109.12-2.73Q109.56-3.08 109.83-3.78 110.1-4.49 110.22-5.27 110.34-6.05 110.39-6.84 110.44-7.62 110.44-8.11L110.44-8.11Q110.44-8.59 110.44-9.03 110.44-9.47 110.39-10.01L110.39-10.01Q109.66-8.35 108.44-7.52 107.22-6.69 105.71-6.35 104.19-6.01 102.53-5.98 100.87-5.96 99.36-5.96L99.36-5.96Q96.18-5.96 93.23-6.23 90.28-6.49 88.01-7.62 85.73-8.74 84.34-11.01 82.95-13.28 82.95-17.29L82.95-17.29Q82.95-21.24 83.49-25.17 84.03-29.1 84.86-32.96L84.86-32.96 95.16-32.86Q94.33-29.79 93.69-26.61 93.06-23.44 93.06-20.21L93.06-20.21Q93.06-18.51 93.3-17.43 93.55-16.36 94.18-15.7 94.82-15.04 95.94-14.79 97.06-14.55 98.77-14.55L98.77-14.55Q99.46-14.55 100.46-14.65 101.46-14.75 102.51-14.92 103.56-15.09 104.51-15.38 105.46-15.67 106-16.11L106-16.11Q106.19-16.26 106.34-17.09 106.49-17.92 106.58-19.07 106.68-20.21 106.73-21.53 106.78-22.85 106.8-24.02 106.83-25.2 106.83-26.05 106.83-26.9 106.83-27.15L106.83-27.15Q106.83-28.81 106.83-30.44 106.83-32.08 106.73-33.74L106.73-33.74Q109.12-33.5 111.44-33.33 113.76-33.15 116.15-33.06L116.15-33.06Q116.35-28.32 116.57-23.68 116.79-19.04 117.03-14.31L117.03-14.31Q117.13-13.13 117.13-11.94 117.13-10.74 117.13-9.62Z" opacity="1" transform="matrix(1,0,0,1,0,0)" fill="#ffffff" class="undefined-text-0" data-fill-palette-color="quaternary" id="text-0"></path></svg></g></svg></g></svg></g></svg></g><g></g></svg></g></svg></g></svg></g></svg></g><defs></defs></svg><rect width="342.85155851775386" height="342.85155851775386" fill="none" stroke="none" visibility="hidden"></rect></g></svg></g></g></g></g><rect width="225.14615885416652" height="91.93443080357144" x="208.42692057291674" y="155.03278459821428" rx="2.5" ry="2.5" class="logo-element-hover-target"></rect></svg>
