<svg xmlns="http://www.w3.org/2000/svg" xmlns:xlink="http://www.w3.org/1999/xlink" xmlns:svgjs="http://svgjs.com/svgjs" xmlns:cc="http://creativecommons.org/ns#" xmlns:dc="http://purl.org/dc/elements/1.1/" xmlns:inkscape="http://www.inkscape.org/namespaces/inkscape" xmlns:rdf="http://www.w3.org/1999/02/22-rdf-syntax-ns#" xmlns:sodipodi="http://sodipodi.sourceforge.net/DTD/sodipodi-0.dtd" xmlns:svg="http://www.w3.org/2000/svg"><symbol id="a11y" viewBox="0 0 640 400"><g viewBox="0 0 640 400"><g><g><g><svg viewBox="0 0 640 400" data-background-color="#ffffff" preserveAspectRatio="xMidYMid meet" height="400" width="640" xmlns="http://www.w3.org/2000/svg" xmlns:xlink="http://www.w3.org/1999/xlink"/></g></g></g></g><rect width="225.14615885416652" height="91.93443080357144" x="208.42692057291674" y="155.03278459821428" rx="2.5" ry="2.5" class="logo-element-hover-target"/><rect width="640" height="400" x="0" y="0" opacity="1" fill="#ffffff" data-fill-palette-color="background" id="background"/><g id="tight-bounds" transform="matrix(1,0,0,1,148.57422074112307,28.57422074112307)"><svg viewBox="0 0 342.85155851775386 342.85155851775386" height="342.85155851775386" width="342.85155851775386"/><rect width="342.85155851775386" height="342.85155851775386" fill="none" stroke="none" visibility="hidden"/></g><g><svg/></g><g><svg viewBox="0 0 342.85155851775386 342.85155851775386" height="342.85155851775386" width="342.85155851775386"/></g><g><path d="M0 171.426c0-94.676 76.75-171.426 171.426-171.426 94.676 0 171.426 76.75 171.426 171.426 0 94.676-76.75 171.426-171.426 171.426-94.676 0-171.426-76.75-171.426-171.426zM171.426 335.643c90.695 0 164.217-73.523 164.217-164.217 0-90.695-73.523-164.217-164.217-164.217-90.695 0-164.217 73.523-164.217 164.217 0 90.695 73.523 164.217 164.217 164.217z" data-fill-palette-color="tertiary" fill="#269735" stroke="transparent"/><ellipse rx="164.56874808852186" ry="164.56874808852186" cx="171.42577925887693" cy="171.42577925887693" fill="#269735" stroke="transparent" stroke-width="0" fill-opacity="1" data-fill-palette-color="tertiary"/></g><g transform="matrix(1,0,0,1,64.84655864529837,131.45857152878497)"><svg viewBox="0 0 213.1584412271571 79.93441546018391" height="79.93441546018391" width="213.1584412271571"/></g><g><svg viewBox="0 0 213.1584412271571 79.93441546018391" height="79.93441546018391" width="213.1584412271571"/></g><g><svg viewBox="0 0 213.1584412271571 79.93441546018391" height="79.93441546018391" width="213.1584412271571"/></g><g><svg viewBox="0 0 213.1584412271571 79.93441546018391" height="79.93441546018391" width="213.1584412271571"/></g><g/><g id="textblocktransform"><svg viewBox="0 0 213.1584412271571 79.93441546018391" height="79.93441546018391" width="213.1584412271571" id="textblock"/></g><g><svg viewBox="0 0 213.1584412271571 79.93441546018391" height="79.93441546018391" width="213.1584412271571"/></g><g transform="matrix(1,0,0,1,0,0)"><svg width="213.1584412271571" viewBox="1.5099999904632568 -36.869998931884766 115.6199951171875 43.36000061035156" height="79.93441546018391" data-palette-color="#ffffff"/></g><path d="M36.87-22.02L36.87-22.02Q36.87-17.92 36.57-13.87 36.28-9.81 35.99-5.76L35.99-5.76Q30.52-5.27 25.1-4.93 19.68-4.59 14.21-4.59L14.21-4.59Q13.72-4.59 12.4-4.61 11.08-4.64 9.62-4.71 8.15-4.79 6.84-4.91 5.52-5.03 5.08-5.27L5.08-5.27Q3.47-6.15 2.83-7.5 2.2-8.84 2.2-10.55L2.2-10.55Q2.2-11.13 2.25-12.11 2.29-13.09 2.44-14.16 2.59-15.23 2.83-16.16 3.08-17.09 3.42-17.53L3.42-17.53Q3.86-18.12 5.42-18.53 6.98-18.95 9.16-19.19 11.33-19.43 13.84-19.58 16.36-19.73 18.65-19.8 20.95-19.87 22.75-19.87 24.56-19.87 25.34-19.87L25.34-19.87Q25.49-20.95 25.49-21.97L25.49-21.97Q25.49-22.07 25.49-22.49 25.49-22.9 25.44-23L25.44-23Q25.29-23.29 24.51-23.49 23.73-23.68 22.58-23.78 21.44-23.88 20.09-23.95 18.75-24.02 17.48-24.02 16.21-24.02 15.23-24.02 14.26-24.02 13.82-24.02L13.82-24.02Q10.74-24.02 7.67-23.9 4.59-23.78 1.51-23.68L1.51-23.68Q1.71-25.54 1.83-27.44 1.95-29.35 1.86-31.2L1.86-31.2Q5.42-31.84 9.01-32.1 12.6-32.37 16.26-32.37L16.26-32.37Q17.58-32.37 19.14-32.35 20.7-32.32 22.27-32.25 23.83-32.18 25.37-32.03 26.9-31.88 28.22-31.64L28.22-31.64Q29.59-31.4 30.93-30.76 32.28-30.13 33.45-29.2 34.62-28.27 35.5-27.08 36.38-25.88 36.77-24.51L36.77-24.51Q36.82-24.37 36.84-24.02 36.87-23.68 36.87-23.27 36.87-22.85 36.87-22.51 36.87-22.17 36.87-22.02ZM25.98-10.55L25.98-10.55 25.98-16.8Q24.56-16.85 23.14-16.87 21.73-16.89 20.31-16.89L20.31-16.89Q20.02-16.89 18.68-16.87 17.33-16.85 15.8-16.75 14.26-16.65 12.99-16.5 11.72-16.36 11.52-16.06L11.52-16.06Q11.28-15.67 11.21-15.26 11.13-14.84 11.13-14.4L11.13-14.4Q11.13-14.06 11.18-13.48 11.23-12.89 11.35-12.26 11.47-11.62 11.62-11.08 11.77-10.55 12.01-10.3L12.01-10.3Q12.21-10.06 12.67-9.94 13.13-9.81 13.67-9.74 14.21-9.67 14.75-9.64 15.28-9.62 15.58-9.62L15.58-9.62Q16.75-9.62 18.09-9.72 19.43-9.81 20.83-9.94 22.22-10.06 23.54-10.23 24.85-10.4 25.98-10.55ZM56.64-0.15L56.64-0.15Q53.66-0.39 50.75-0.51 47.85-0.63 44.92-0.68L44.92-0.68 46.24-26.76 42.33-27.15Q43.11-29.49 43.41-31.84 43.7-34.18 44.09-36.57L44.09-36.57 54.59-36.87Q55.17-27.64 55.64-18.51 56.1-9.38 56.64-0.15ZM77.44-0.15L77.44-0.15Q74.46-0.39 71.55-0.51 68.65-0.63 65.72-0.68L65.72-0.68 67.04-26.76 63.13-27.15Q63.91-29.49 64.2-31.84 64.5-34.18 64.89-36.57L64.89-36.57 75.39-36.87Q75.97-27.64 76.44-18.51 76.9-9.38 77.44-0.15ZM117.13-9.62L117.13-9.62Q117.13-9.08 117.13-8.06 117.13-7.03 117.08-5.74 117.03-4.44 116.96-3.05 116.89-1.66 116.79-0.42 116.69 0.83 116.52 1.78 116.35 2.73 116.15 3.13L116.15 3.13Q115.32 4.44 114.62 5.15 113.91 5.86 113.08 6.15 112.25 6.45 111.2 6.47 110.15 6.49 108.73 6.49L108.73 6.49Q104.05 6.49 99.41 6.13 94.77 5.76 90.13 5.27L90.13 5.27 90.13-1.42Q90.57-1.42 92.06-1.44 93.55-1.46 95.55-1.51 97.55-1.56 99.8-1.66 102.04-1.76 104-1.9 105.95-2.05 107.37-2.25 108.78-2.44 109.12-2.73L109.12-2.73Q109.56-3.08 109.83-3.78 110.1-4.49 110.22-5.27 110.34-6.05 110.39-6.84 110.44-7.62 110.44-8.11L110.44-8.11Q110.44-8.59 110.44-9.03 110.44-9.47 110.39-10.01L110.39-10.01Q109.66-8.35 108.44-7.52 107.22-6.69 105.71-6.35 104.19-6.01 102.53-5.98 100.87-5.96 99.36-5.96L99.36-5.96Q96.18-5.96 93.23-6.23 90.28-6.49 88.01-7.62 85.73-8.74 84.34-11.01 82.95-13.28 82.95-17.29L82.95-17.29Q82.95-21.24 83.49-25.17 84.03-29.1 84.86-32.96L84.86-32.96 95.16-32.86Q94.33-29.79 93.69-26.61 93.06-23.44 93.06-20.21L93.06-20.21Q93.06-18.51 93.3-17.43 93.55-16.36 94.18-15.7 94.82-15.04 95.94-14.79 97.06-14.55 98.77-14.55L98.77-14.55Q99.46-14.55 100.46-14.65 101.46-14.75 102.51-14.92 103.56-15.09 104.51-15.38 105.46-15.67 106-16.11L106-16.11Q106.19-16.26 106.34-17.09 106.49-17.92 106.58-19.07 106.68-20.21 106.73-21.53 106.78-22.85 106.8-24.02 106.83-25.2 106.83-26.05 106.83-26.9 106.83-27.15L106.83-27.15Q106.83-28.81 106.83-30.44 106.83-32.08 106.73-33.74L106.73-33.74Q109.12-33.5 111.44-33.33 113.76-33.15 116.15-33.06L116.15-33.06Q116.35-28.32 116.57-23.68 116.79-19.04 117.03-14.31L117.03-14.31Q117.13-13.13 117.13-11.94 117.13-10.74 117.13-9.62Z" opacity="1" transform="matrix(1,0,0,1,0,0)" fill="#ffffff" class="undefined-text-0" data-fill-palette-color="quaternary" id="text-0"/></symbol><symbol id="buttons"><circle data-v-25c909e8="" stroke-width="2" stroke="currentColor" cx="12" cy="12" r="4"/> <circle data-v-25c909e8="" stroke-width="2" stroke="currentColor" cx="28" cy="12" r="4"/> <circle data-v-25c909e8="" stroke-width="2" stroke="currentColor" cx="44" cy="12" r="4"/></symbol><symbol id="climb" viewBox="0 0 512 512">
<g transform="translate(1 1)">
	<g>
		<g>
			<path d="M192.707,163.693c-3.413-3.413-8.533-3.413-11.947,0l-85.333,85.333c-2.56,2.56-3.413,5.973-1.707,9.387     c0.853,1.707,1.707,2.56,2.56,3.413l84.48,84.48c1.707,1.707,3.413,2.56,5.973,2.56s4.267-0.853,5.973-2.56     c3.413-3.413,3.413-8.533,0-11.947L113.347,255l79.36-79.36C196.12,172.227,196.12,167.107,192.707,163.693z"/>
			<path d="M413.72,248.173l-84.48-84.48c-3.413-3.413-8.533-3.413-11.947,0s-3.413,8.533,0,11.947l79.36,79.36l-79.36,79.36     c-3.413,3.413-3.413,8.533,0,11.947c1.707,1.707,3.413,2.56,5.973,2.56s5.12-0.853,5.973-2.56l85.333-85.333     c2.56-2.56,3.413-5.973,1.707-9.387C415.427,249.88,414.573,249.027,413.72,248.173z"/>
			<path d="M282.307,161.987c-4.267-0.853-8.533,1.707-10.24,5.973l-51.2,170.667c-0.853,4.267,1.707,8.533,5.973,10.24     c0.853,0,1.707,0,2.56,0c3.413,0,6.827-2.56,7.68-5.973l51.2-170.667C289.133,167.96,286.573,163.693,282.307,161.987z"/>
			<path d="M400.067-1H109.933C48.493-1-1,48.493-1,109.933v290.133C-1,461.507,48.493,511,109.933,511h290.133     C461.507,511,511,461.507,511,400.067V109.933C511,48.493,461.507-1,400.067-1z M493.933,400.067     c0,52.053-41.813,93.867-93.867,93.867H109.933c-52.053,0-93.867-41.813-93.867-93.867V109.933     c0-52.053,41.813-93.867,93.867-93.867h290.133c52.053,0,93.867,41.813,93.867,93.867V400.067z"/>
		</g>
	</g>
</g>
</symbol><symbol id="css3" viewBox="0 0 128 128"><path d="M8.76 1l10.055 112.883 45.118 12.58 45.244-12.626 10.063-112.837h-110.48zm89.591 25.862l-3.347 37.605.01.203-.014.467v-.004l-2.378 26.294-.262 2.336-28.36 7.844v.001l-.022.019-28.311-7.888-1.917-21.739h13.883l.985 11.054 15.386 4.17-.004.008v-.002l15.443-4.229 1.632-18.001h-32.282999999999994l-.277-3.043-.631-7.129-.331-3.828h34.748999999999995l1.264-14h-52.926l-.277-3.041-.63-7.131-.332-3.828h69.281l-.331 3.862z"/></symbol><symbol id="git" viewBox="0 0 999.937 999.937"><path d="M0 499.968c0-138.012 48.825-255.843 146.476-353.493C244.125 48.825 361.956 0 499.969 0 637.98 0 755.811 48.825 853.462 146.475c97.649 97.65 146.475 215.481 146.475 353.493s-48.825 255.843-146.475 353.493c-97.65 97.65-215.481 146.476-353.493 146.476-138.013 0-255.844-48.825-353.493-146.476C48.825 755.812 0 637.979 0 499.968zm54.684 0c0 122.389 43.617 227.199 130.851 314.434 87.234 87.233 192.045 130.851 314.434 130.851 122.388 0 227.199-43.617 314.433-130.851 87.234-87.234 130.851-192.045 130.851-314.434 0-122.388-43.616-227.199-130.851-314.433C727.168 98.301 622.356 54.684 499.969 54.684c-122.389 0-227.199 43.617-314.434 130.851C98.301 272.769 54.684 377.58 54.684 499.968zm140.617 107.415c-2.604-2.604-2.604-5.208 0-7.812 5.207-5.208 11.718-7.161 19.529-5.859 7.812 1.302 12.369 2.604 13.671 3.906 9.114 3.906 19.205 12.694 30.271 26.366 11.066 13.671 19.855 23.11 26.366 28.318 31.248 26.04 63.146 27.993 95.696 5.859 2.604-9.114 6.836-16.926 12.694-23.437 5.858-6.51 11.393-11.066 16.601-13.671 5.209-2.604 14.323-6.51 27.343-11.718-42.967-3.906-77.795-11.393-104.486-22.46s-47.849-25.063-63.473-41.989c-20.832-23.436-33.527-54.033-38.084-91.791-4.558-37.758-1.628-72.261 8.789-103.509 7.812-19.53 18.879-37.106 33.2-52.731-10.416-32.55-8.463-69.657 5.859-111.321 41.664 2.604 79.422 16.926 113.274 42.966 65.1-16.926 132.804-17.577 203.111-1.953 9.114-6.51 23.111-14.647 41.989-24.413 18.879-9.765 42.641-15.299 71.285-16.601 5.208 14.322 8.789 31.248 10.742 50.778s.977 37.758-2.929 54.684c29.945 31.248 45.569 72.912 46.871 124.992 0 41.664-7.16 76.167-21.482 103.509s-39.711 50.127-76.167 68.354c-24.738 11.719-57.288 18.879-97.65 21.483 18.229 9.114 31.574 18.554 40.037 28.319 8.464 9.765 13.997 25.063 16.602 45.895v61.521l1.952 59.566c3.906 6.511 8.464 12.044 13.672 16.602 5.208 4.557 9.765 7.812 13.671 9.765 3.905 1.953 5.208 4.883 3.905 8.789-1.302 3.906-6.51 5.859-15.623 5.859-22.135 0-39.711-7.812-52.731-23.437-3.906-6.51-5.859-14.321-5.859-23.436v-93.744c0-10.416-2.604-17.903-7.812-22.46-5.208-4.558-10.416-7.487-15.624-8.789v123.039c0 22.134 2.604 36.456 7.812 42.966s8.463 13.021 9.766 19.53c1.302 1.302.325 2.278-2.93 2.929-3.254.65-8.788-.325-16.601-2.929-16.926-3.906-28.644-12.695-35.154-26.366-6.51-13.671-9.765-28.319-9.765-43.943V667.926H488.25v121.086c0 15.624-3.256 30.598-9.766 44.919-9.113 18.229-26.04 27.993-50.777 29.295-3.906-1.302-5.859-2.604-5.859-3.905 1.302-1.303 5.208-7.812 11.718-19.53 1.302-2.604 2.93-7.812 4.883-15.624 1.954-7.812 2.93-16.926 2.93-27.342v-123.04c-5.208 1.302-10.091 4.231-14.648 8.789s-6.836 12.044-6.836 22.46v93.744c0 9.113-1.953 16.926-5.859 23.436-11.718 15.624-29.295 23.437-52.73 23.437-9.114 0-14.322-1.953-15.624-5.859-1.303-2.604-.977-4.883.977-6.836s4.883-4.232 8.789-6.836c3.906-2.604 6.51-4.558 7.812-5.859 5.208-3.906 9.113-9.114 11.718-15.624 3.906-5.208 4.882-18.879 2.929-41.013s-2.279-36.456-.977-42.966c-33.853 11.718-68.355 5.858-103.51-17.577-10.416-10.416-20.832-25.39-31.248-44.919-7.812-14.323-23.436-31.249-46.871-50.779z"/></symbol><symbol id="github" viewBox="0 0 64 64"><path fill="none" d="M0 0h64v64H0z"/><path d="M27.009 58.54C14.49 56.196 5.001 45.198 5.001 32 5 17.099 17.099 5 32 5s27 12.098 27 27c0 13.195-9.484 24.19-22 26.538V46c0-2.66-.959-5.098-2.036-7h.636c5.74 0 10.4-3.764 10.4-8.4v-1.293c0-2.96-1.412-5.657-3.72-7.674 1.297-3.148.446-6.634.446-6.634s-3.517 1.027-5.586 3.788a16.886 16.886 0 0 0-5.14-.788c-1.814 0-3.548.28-5.14.788C24.792 16.028 21.275 15 21.275 15s-.851 3.486.447 6.634c-2.309 2.017-3.721 4.713-3.721 7.674V30.6c0 4.637 4.66 8.4 10.4 8.4h.636c-.941 1.662-1.791 3.733-1.991 6l-.004 1.244c-2.168.103-5.551-.264-7.041-3.243-2-4-6-1-6-1 3 0 3.045 4 5.045 6 1.983 1.984 5.697 2.219 7.986 2.15l-.023 8.389Z"/></symbol><symbol id="gulp" viewBox="0 0 5105.4 5105.4"><path d="M0 0h5105.4v5105.4H0z"/><path fill="#fff" stroke="#fff" stroke-miterlimit="10" stroke-width="13.386" d="M1766.5 2586.7c-2.4 3.5-6.6 14.4-12.8 32.9-6.2 18.5-13.7 41.6-22.5 69.4-8.8 27.8-18.4 59-28.6 93.4-10.3 34.4-20.9 69.6-31.7 105.4-10.9 35.9-21.3 71-31.3 105.5-10 34.4-19 65.6-26.9 93.4-7.9 27.8-14.5 51.1-19.8 70-5.3 18.8-8.5 29.9-9.7 33.4-2.9 11.1-7.6 23.5-14.1 37.1-6.5 13.6-14.1 26.4-22.9 38.6-8.8 12.2-18.5 22.3-29.1 30.3-10.6 8-21.5 12-32.6 12-18.8 0-32.5-6.3-41-18.8s-12.8-35.5-12.8-68.9v-14.6c0-4.9.3-10.1.9-15.6.6-11.1 5-32 13.2-62.7 8.2-30.6 18.1-65.2 29.5-103.9s23.8-78.6 37-120.1c13.2-41.4 25.1-78.5 35.7-111.2-31.2 34.8-64.9 69.4-101.4 103.9-36.4 34.5-73.8 65.4-111.9 92.9-38.2 27.5-76.7 50-115.5 67.3-38.8 17.4-76.1 26.1-111.9 26.1-41.1 0-76.5-9.1-106.2-27.1-29.7-18.1-54.2-41.8-73.6-71s-33.8-62.3-43.2-99.2c-9.4-36.9-14.1-73.8-14.1-110.7v-13.6c0-4.2.3-8.3.9-12.5 3.5-66.8 13.1-135.4 28.6-205.7 15.6-70.3 36-140.3 61.3-209.8 25.3-69.6 54.5-137.6 87.7-204.1s69.3-129.3 108.4-188.4c39.1-59.1 80.6-113.6 124.7-163.4 44.1-49.8 89.3-92.6 135.7-128.4 46.4-35.8 93.3-63.8 140.6-84 47.3-20.2 94.2-30.3 140.6-30.3 53.5 0 105.2 14.6 155.1 43.8 49.9 29.2 96.6 76.6 140.1 142 10 14.6 16.3 29.4 18.9 44.4 2.6 15 4 29.1 4 42.3 0 31.3-7.5 56-22.5 74.1-15 18.1-32.8 27.1-53.3 27.1-18.8 0-36.3-9.9-52.4-29.8-16.2-19.8-34.2-48.2-54.2-85.1-18.8-33.4-39.5-57.6-62.1-72.6-22.6-15-47.2-22.4-73.6-22.4-41.1 0-85.1 17.1-131.8 51.2-46.7 34.1-93 79.2-138.8 135.2-45.8 56-89.8 120-131.8 192.1-42 72-79.2 145.8-111.5 221.3s-58 150-77.1 223.4c-19.1 73.4-28.6 139.4-28.6 197.9 0 19.5 1.3 39.5 4 60s7.6 39.2 15 55.9c7.3 16.7 17.3 30.5 30 41.2 12.6 10.8 28.6 16.2 48 16.2 21.7 0 46.4-7.3 74-21.9 27.6-14.6 56.3-33.7 85.9-57.4 29.7-23.7 59.5-50.5 89.5-80.4 30-29.9 57.9-60.2 83.7-90.8 25.8-30.6 48.8-60 68.7-88.2 20-28.2 35-52.7 44.9-73.6l82-245.3c10-26.4 23.1-45.2 39.2-56.4 16.2-11.1 32.8-16.7 49.8-16.7 8.2 0 16.4 1.4 24.7 4.2 8.2 2.8 15.6 7.1 22 13.1 6.5 5.9 11.6 13.6 15.4 23 3.8 9.4 5.7 20.4 5.7 32.9 0 33.4-2.9 64.7-8.8 94-5.9 29.3-13.4 57.8-22.5 85.6-9.1 27.8-19.2 55.9-30.4 84-11 28-21.9 57.4-32.4 88.1zM2877.9 2791.3c-25.9 34.8-56 68.7-90.3 101.8-34.4 33.1-69.8 62.5-106.2 88.2-36.4 25.7-72.3 46.4-107.5 62.1-35.3 15.7-67 23.5-95.2 23.5s-51.1-9.4-68.8-28.2c-17.6-18.8-26.4-50.8-26.4-96.1 0-32 4.7-69.3 14.1-111.7-15.3 27.2-34.4 54.7-57.3 82.5-22.9 27.8-49.1 53.2-78.5 76.2s-62.3 41.6-98.7 55.8c-36.4 14.3-76.1 21.4-119 21.4-19.4 0-38.1-2.4-56-7.3s-33.6-13.2-47.1-25-24.4-27.6-32.6-47.5c-8.2-19.8-12.3-44.7-12.3-74.6 0-.7 1.2-11.3 3.5-31.8s9.8-52.9 22.5-97.1c12.6-44.2 32.2-101.4 58.6-171.7 26.5-70.3 63.8-155.5 111.9-255.8 12.3-26.4 26.6-45.4 42.7-56.9 16.2-11.5 33.6-17.2 52.4-17.2 8.2 0 16.7 1.2 25.6 3.6 8.8 2.5 17 6.3 24.7 11.5 7.6 5.2 13.8 11.8 18.5 19.8 4.7 8 7.1 17.2 7.1 27.7 0 7-.9 13.6-2.7 19.8-2.9 11.9-9.2 27.3-19 46.5-9.7 19.2-21 41.1-33.9 65.8-12.9 24.7-26.6 51.3-41 79.9-14.4 28.5-27.8 58.1-40.1 88.7s-22.9 61.8-31.7 93.4c-8.8 31.7-13.8 62.5-15 92.4 0 12.5 2.9 24 8.8 34.5 5.9 10.4 15.6 15.7 29.1 15.7 38.2 0 74.6-12.5 109.3-37.6 34.7-25 66.7-56.2 96.1-93.4 29.4-37.2 56-77.2 79.8-120.1 23.8-42.8 43.7-81.9 59.5-117.4 11.2-23.7 21-49.1 29.5-76.2s17.8-52.2 27.8-75.2 21.4-42.1 34.4-57.4c12.9-15.3 29.1-23 48.5-23 21.1 0 37.9 8 50.2 24 12.3 16 18.5 35.2 18.5 57.4 0 12.5-3.9 29.8-11.9 51.7-8 21.9-17.9 47-30 75.2-12 28.2-25.1 58.3-39.2 90.3-14.1 32-27.2 64.6-39.2 97.6-12.1 33.1-22 65.4-30 97.1-7.9 31.7-11.9 61.1-11.9 88.2 0 25.1 12.9 37.6 38.8 37.6 18.2 0 40.8-6.3 67.9-18.8 27.1-12.5 55.4-30.1 85.1-52.7 29.7-22.6 59.3-49.2 89-79.9 29.7-30.6 56-63.7 78.9-99.2l8.7 141.9z"/><path fill="#fff" stroke="#fff" stroke-miterlimit="10" stroke-width="13.386" d="M2905.3 2739.1c-6.5 16-12.8 34.6-19 55.9-6.2 21.2-9.2 40.2-9.2 56.9 0 10.4 1.8 18.8 5.3 25.1 3.5 6.3 10.3 9.4 20.3 9.4 12.3 0 27.7-4.3 46.3-13.1 18.5-8.7 38.5-20.2 59.9-34.5 21.5-14.2 43.8-30.6 67-49.1 23.2-18.4 46.3-37.6 69.2-57.4 22.9-19.9 44.8-39.7 65.7-59.5 20.9-19.9 39.5-38.1 56-54.8 4.7-4.9 10.3-8.4 16.7-10.4 6.4-2.1 12-3.1 16.7-3.1 11.7 0 21.5 4.9 29.1 14.6 7.6 9.7 11.4 22.6 11.4 38.6 0 14.6-4.1 31-12.3 49.1-8.2 18.1-22.6 35.9-43.2 53.2-37.6 41.1-75.5 80-113.7 116.9-38.2 36.9-76.2 69.4-114.1 97.6-37.9 28.2-75.5 50.6-112.8 67.4-37.3 16.7-73.6 25-108.9 25-24.1 0-44.2-3.8-60.4-11.5-16.2-7.7-29.1-18.1-38.8-31.3-9.7-13.2-16.6-28.9-20.7-47-4.1-18.1-6.2-37.2-6.2-57.4 0-34.1 4.3-69.1 12.8-104.9 8.5-35.8 18.6-68.7 30.4-98.6 20.6-54.3 41.4-108.2 62.6-161.8 21.1-53.6 40.5-102.7 58.2-147.2l267-673.4c10.6-27.1 24.8-46.3 42.8-57.4 17.9-11.1 36-16.7 54.2-16.7 18.2 0 34.8 5.9 49.8 17.7 15 11.8 22.5 31 22.5 57.4 0 12.5-2.5 25.8-7.5 39.7-5 13.9-11.3 28.9-18.9 44.9-14.7 32.7-32.2 72.7-52.4 120-20.3 47.3-42 98.8-65.2 154.5-23.2 55.7-47 113.6-71.4 173.8-24.4 60.2-48.2 118.8-71.4 175.9-23.2 57.1-44.9 111.2-65.2 162.3-20.5 51.2-38 95.6-52.6 133.2z"/><path fill="#fff" stroke="#fff" stroke-miterlimit="10" stroke-width="13.386" d="M4154.2 2550.1c8.2-5.6 15.9-10.1 22.9-13.6 7-3.5 13.8-5.2 20.3-5.2 12.9 0 22.6 5.8 29.1 17.2 6.5 11.5 9.7 25.6 9.7 42.3 0 18.1-3.9 36.5-11.9 55.3-7.9 18.8-19.8 34.4-35.7 47-62.9 55.7-119 106.5-168.3 152.4-49.4 45.9-95.9 85.4-139.7 118.5-43.8 33.1-86.5 58.6-128.2 76.7-41.7 18.1-86.4 27.1-134 27.1-44.7 0-79.2-9.8-103.6-29.2-24.4-19.5-36.6-46.3-36.6-80.4v-7.8c0-2.4.3-5.4.9-8.9 2.3-20.9 11.5-44.9 27.3-72 15.9-27.1 35-55.3 57.3-84.6s46.1-58.8 71.4-88.7c25.3-29.9 48.6-58.3 70.1-85.1 21.4-26.8 39.2-51.3 53.3-73.6 14.1-22.3 21.2-40.3 21.2-54.3 0-8.4-3-15-8.8-19.8-5.9-4.9-15.6-7.3-29.1-7.3-23.5 0-47.7 6.1-72.7 18.3-25 12.2-49.7 28.5-74 49-24.4 20.5-48.2 44-71.4 70.5-23.2 26.5-44.9 53.9-65.2 82.5-20.3 28.6-38.8 57.2-55.5 86.1-16.7 28.9-31 55.5-42.7 79.9-3.5 7.7-8.5 18.5-15 32.4-6.5 13.9-13.5 29.6-21.1 47-7.7 17.4-15.7 35.3-24.3 53.7-8.5 18.5-16.3 35.9-23.3 52.2-7.1 16.4-13.4 30.9-19 43.9-5.6 12.9-9.6 21.7-11.9 26.6-3 6.3-7.8 18.1-14.6 35.5s-14.5 37.7-23.4 61.1c-8.8 23.3-18.1 47.8-27.7 73.6-9.7 25.8-18.8 50.1-27.3 73.1-8.5 23-16 43.1-22.5 60.5s-10.6 29.2-12.4 35.5c-5.9 18.1-12.8 35.1-20.7 51.2-7.9 16-17 30.1-27.3 42.3-10.3 12.2-22 21.9-35.3 29.2-13.2 7.3-28.1 10.9-44.5 10.9-21.2 0-38.6-5.1-52.5-15.1-13.8-10.1-20.7-29.4-20.7-57.9 0-13.9 1.8-28.2 5.3-42.8 3.5-14.6 8-29.1 13.2-43.3 5.3-14.3 10.7-28.2 16.3-41.7 5.6-13.6 10.7-26.6 15.4-39.2 31.7-69.6 64.1-139.4 97-209.3 32.9-70 64.5-139.2 94.7-207.8 30.3-68.5 58.3-135.9 84.2-202 25.8-66.1 47.3-129.5 64.3-190 4.7-12.5 11.2-30.3 19.4-53.3 8.2-23 17.6-45.6 28.2-67.9 10.6-22.3 22.5-41.6 35.7-57.9 13.2-16.4 27.5-24.5 42.7-24.5 23.5 0 40.5 5.4 51.1 16.2 10.6 10.8 15.9 26.6 15.9 47.5 0 4.2-.6 10.8-1.8 19.8-1.2 9-2.7 18.6-4.4 28.7-1.8 10.1-3.7 19.7-5.7 28.7-2.1 9-4 15.6-5.7 19.8 21.7-23.7 45.2-47.1 70.5-70.5 25.3-23.3 51.4-44.4 78.5-63.2 27-18.8 54.6-34.1 82.8-46 28.2-11.8 56.4-17.7 84.6-17.7 19.4 0 38.6 2.8 57.7 8.4 19.1 5.6 36.1 13.7 51.1 24.5s27.2 24.4 36.6 40.7c9.4 16.4 14.1 35.3 14.1 56.9 0 28.6-7.2 59-21.6 91.4-14.4 32.4-32.5 64.9-54.2 97.6-21.8 32.7-45.3 64.6-70.5 95.5-25.3 31-48.9 59.2-71 84.6-22 25.4-40.5 47-55.5 64.7-15 17.8-22.8 29.8-23.4 36 0 8.4 2.7 15.1 7.9 20.4s14.1 7.8 26.5 7.8c10 0 24.7-5.6 44.1-16.7 19.4-11.1 46.6-30.4 81.5-57.9s79.3-64.4 133.1-110.7c53.8-46.2 120.1-104.5 198.8-174.8z"/></symbol><symbol id="home" viewBox="0 0 28 28"><path d="M25.825 12.29C25.824 12.289 25.823 12.288 25.821 12.286L15.027 2.937C14.752 2.675 14.392 2.527 13.989 2.521 13.608 2.527 13.248 2.675 13.001 2.912L2.175 12.29C1.756 12.658 1.629 13.245 1.868 13.759 2.079 14.215 2.567 14.479 3.069 14.479L5 14.479 5 23.729C5 24.695 5.784 25.479 6.75 25.479L11 25.479C11.552 25.479 12 25.031 12 24.479L12 18.309C12 18.126 12.148 17.979 12.33 17.979L15.67 17.979C15.852 17.979 16 18.126 16 18.309L16 24.479C16 25.031 16.448 25.479 17 25.479L21.25 25.479C22.217 25.479 23 24.695 23 23.729L23 14.479 24.931 14.479C25.433 14.479 25.921 14.215 26.132 13.759 26.371 13.245 26.244 12.658 25.825 12.29"/></symbol><symbol id="html5" viewBox="0 0 128 128"><path d="M9.032 2l10.005 112.093 44.896 12.401 45.02-12.387 10.015-112.107h-109.936zm89.126 26.539l-.627 7.172-.276 3.289h-52.665000000000006l1.257 14h50.156000000000006l-.336 3.471-3.233 36.119-.238 2.27-28.196 7.749v.002l-.034.018-28.177-7.423-1.913-21.206h13.815000000000001l.979 10.919 15.287 4.081h.043v-.546l15.355-3.875 1.604-17.579h-47.698l-3.383-38.117-.329-3.883h68.939l-.33 3.539z"/></symbol><symbol id="iphone" viewBox="0 0 24 24">
  <path d="M17 6V5a3 3 0 00-3-3h-4a3 3 0 00-3 3v1H2v4a3 3 0 003 3h14a3 3 0 003-3V6zM9 5a1 1 0 011-1h4a1 1 0 011 1v1H9zm10 9a4 4 0 003-1.38V17a3 3 0 01-3 3H5a3 3 0 01-3-3v-4.38A4 4 0 005 14z"/>
</symbol><symbol id="javascript"><path fill-rule="evenodd" d="M15.328 18.432c-1.745 0-2.873-.832-3.423-1.92l1.53-.886c.403.658.926 1.141 1.853 1.141.778 0 1.275-.389 1.275-.926 0-.808-1.078-1.124-1.839-1.45-1.356-.577-2.256-1.302-2.256-2.833 0-1.409 1.074-2.483 2.753-2.483 1.194 0 2.054.416 2.671 1.503l-1.463.94c-.322-.577-.671-.805-1.208-.805-.551 0-.9.349-.9.805 0 .564.349.792 1.155 1.141 1.689.724 2.967 1.293 2.967 3.155 0 1.692-1.329 2.618-3.115 2.618zM11 15.599c0 1.947-1.199 2.976-2.864 2.976-1.504 0-2.405-.575-2.848-1.575h-.026l1.529-1.069c.295.523.561.894 1.205.894.618 0 1.004-.313 1.004-1.252V9h2v6.599zM0 20h20V0H0v20z"/></symbol><symbol id="js" viewBox="0 0 32 32"><path d="M.384.67v31.296H31.68V.67H.384zm16.334 26.772c-.461.937-1.342 1.553-2.362 1.85-1.568.36-3.067.155-4.183-.515-.747-.458-1.33-1.163-1.725-1.975.794-.485 1.586-.973 2.38-1.458.021.009.083.122.167.268.303.509.565.869 1.08 1.121.506.172 1.615.283 2.044-.607.262-.452.178-1.936.178-3.545 0-2.529.012-5.016.012-7.576h2.927c0 2.688.015 5.383 0 8.067.006 1.645.149 3.14-.518 4.369zm12.144-.827c-1.017 3.481-6.691 3.594-8.957 1.294-.479-.541-.779-.824-1.065-1.449 1.205-.693 1.205-.693 2.377-1.371.637.979 1.226 1.517 2.285 1.737 1.437.175 2.883-.318 2.559-1.844-.333-1.247-2.942-1.55-4.718-2.883-1.803-1.211-2.225-4.153-.744-5.834.494-.622 1.336-1.086 2.219-1.309l.922-.119c1.77-.036 2.877.431 3.689 1.339.226.229.41.476.756 1.012-.943.601-.94.595-2.291 1.47-.289-.622-.767-1.012-1.273-1.181-.785-.238-1.776.021-1.981.851-.071.256-.056.494.057.916.318.726 1.386 1.041 2.344 1.481 2.758 1.119 3.689 2.317 3.918 3.745.22 1.229-.054 2.026-.095 2.145z"/></symbol><symbol id="letter" viewBox="30 31.5 452 452">
      <g fill-rule="evenodd">
        <path d="M 441,81 A 40,40 0 0 1 481,121 L 481,395 A 40,40 0 0 1 441,435 L 71,435 A 40,40 0 0 1 31,395 L 31,121 A 40,40 0 0 1 71,81 Z M 63,121 A 8,8 0 0 1 71,113 L 441,113 A 8,8 0 0 1 449,121 L 449,131 C 448,150 438,166 417,188 L 288,291 C258,311 254,311 224,291 L 95,188 C 74,166 64,150 63,131 Z M 63,202 C 66,205 75,214 80,218 L 208,320 C 245,344 265,344 304,320 L 432,218 C 437,214 446,205 449,202 L 449,394 A 8,8 0 0 1 441,402 L 71,402 A 8,8 0 0 1 63,394 Z"/>
      </g>
    </symbol><symbol id="linkedin" viewBox="0 0 24 24"><path d="M19 0h-14c-2.761 0-5 2.239-5 5v14c0 2.761 2.239 5 5 5h14c2.762 0 5-2.239 5-5v-14c0-2.761-2.238-5-5-5zm-11 19h-3v-11h3v11zm-1.5-12.268c-.966 0-1.75-.79-1.75-1.764s.784-1.764 1.75-1.764 1.75.79 1.75 1.764-.783 1.764-1.75 1.764zm13.5 12.268h-3v-5.604c0-3.368-4-3.113-4 0v5.604h-3v-11h3v1.765c1.396-2.586 7-2.777 7 2.476v6.759z"/></symbol><symbol id="node-js" viewBox="0 0 512 512"><g transform="translate(96 96)"><path d="M159.917 384a32.536 32.536 0 0 1-16.633-4.599l-52.985-32.44c-7.914-4.562-4.023-6.203-1.443-7.141 10.565-3.781 13.713-5.657 24.947-12.285 1.206-.667 2.747-.424 3.955.322l39.71 23.504c1.476.85 3.557.85 4.931 0l155.188-92.246c1.475-.877 2.415-2.646 2.415-4.441V67.869c0-1.85-.94-3.592-2.449-4.528l-155.12-94.672c-1.478-.894-3.421-.894-4.898 0L2.516 63.374C.972 64.277 0 66.072 0 67.869v186.805c0 1.813.972 3.513 2.481 4.389l39.929 23.972c23.61 12.204 37.59-.17 37.59-14.611V84.725c0-2.652 2.047-4.727 4.596-4.727h22.809c2.515 0 4.597 2.072 4.597 4.727v183.698c0 32.563-19.353 51.248-49.199 51.248-9.156 0-16.397 0-36.552-10.279l-41.584-24.781C-25.629 278.459-32 266.965-32 254.656V65.191c0-12.316 6.371-23.784 16.665-29.917L143.35-59.59c10.027-5.88 23.374-5.88 33.332 0l158.65 94.864C345.63 41.423 352 52.899 352 65.191v189.465c0 12.309-6.37 23.75-16.668 29.953l-158.65 94.774a32.52 32.52 0 0 1-16.698 4.599l-.067.018z"/><path d="M208.943 255.998c-64.61 0-84.006-31.61-84.006-59.271 0-2.629 2.048-4.729 4.562-4.729h20.521c2.282 0 4.227 1.7 4.562 4.016 3.084 21.602 16.748 31.15 54.324 31.15 33.399 0 47.091-10.346 47.091-28.684 0-10.592-3.463-18.424-55.407-23.697-43.427-4.441-70.288-14.373-70.288-50.295 0-33.135 26.996-52.49 72.234-52.49 46.128 0 76.462 14 79.173 50.829.102 1.337-.368 2.629-1.241 3.644-.871.965-2.078 1.527-3.353 1.527h-20.591c-2.146 0-4.024-1.562-4.459-3.713-4.401-16.953-16.97-23.402-49.563-23.402-36.486 0-40.746 12.753-40.746 22.607 0 11.963 5.031 15.441 54.294 22.172 48.761 6.663 71.933 16.117 71.933 51.552 0 35.781-28.808 58.783-79.075 58.783l.035.001z"/></g></symbol><symbol id="npm" viewBox="0 0 24 24"><path d="m12 12.534v-2.663h-1.334v2.666zm12-5.334h-24v8h6.666v1.334h5.334v-1.333h12zm-17.334 1.334v5.337h-1.333v-4h-1.334v4h-2.666v-5.334zm6.667 0v5.337h-2.666v1.334h-2.666v-6.666zm9.333 0v5.337h-1.333v-4h-1.334v4h-1.334v-4h-1.333v4h-2.667v-5.334z"/></symbol><symbol id="queries" viewBox="0 0 467.72198 467.38"><g id="window_screen_with_mobile_icon" transform="translate(-22.139,-22.31)"><g id="g26"><path d="m 256.168,22.31 c 128.777,0 233.693,104.911 233.693,233.69 0,129.113 -104.916,233.69 -233.693,233.69 C 127.043,489.69 22.139,385.113 22.139,256 22.139,127.221 127.043,22.31 256.168,22.31 Z" id="path4" style="clip-rule:evenodd;fill:#fd8469;fill-rule:evenodd"/><path d="m 486.836,219.353 c 2.019,11.758 3.025,24.202 3.025,36.647 0,122.395 -93.813,222.601 -213.516,233.022 L 124.356,372.001 c 0,-5.373 3.703,-7.721 3.703,-12.77 v 0 c 0,-57.833 0,-115.676 0,-173.519 0,-9.057 0,-17.808 0,-26.541 0,-5.392 0,-10.774 0,-15.813 5.378,0 10.755,0 15.797,0 77.338,0 154.678,0 231.679,0 l 12.106,-3.025 c 4.372,6.719 97.844,79.02 99.195,79.02 z" id="path6" style="clip-rule:evenodd;fill:#e4775f;fill-rule:evenodd"/><path d="m 140.158,182.706 h 231.68 v 173.5 h -231.68 z m 247.484,173.5 v 15.795 h -15.804 -231.68 -15.802 v -15.795 0 -173.5 -26.569 -15.804 h 15.802 231.68 15.804 v 15.804 26.569 z" id="path8" style="clip-rule:evenodd;fill:#324a5e;fill-rule:evenodd"/><path d="m 321.734,161.501 c 0,5.735 4.71,10.431 10.765,10.431 5.707,0 10.422,-4.695 10.422,-10.431 0,-6.041 -4.715,-10.736 -10.422,-10.736 -6.055,0 -10.765,4.695 -10.765,10.736 z" id="path10" style="clip-rule:evenodd;fill:#90dfaa;fill-rule:evenodd"/><path d="m 350.651,161.501 c 0,5.735 4.714,10.431 10.765,10.431 5.717,0 10.422,-4.695 10.422,-10.431 0,-6.041 -4.705,-10.736 -10.422,-10.736 -6.051,0 -10.765,4.695 -10.765,10.736 z" id="path12" style="clip-rule:evenodd;fill:#ffd05b;fill-rule:evenodd"/><path d="m 292.822,161.501 c 0,5.735 4.7,10.431 10.422,10.431 6.046,0 10.75,-4.695 10.75,-10.431 0,-6.041 -4.704,-10.736 -10.75,-10.736 -5.722,0 -10.422,4.695 -10.422,10.736 z" id="path14" style="clip-rule:evenodd;fill:#fd8469;fill-rule:evenodd"/><rect height="173.5" id="rect16" style="clip-rule:evenodd;fill:#ffffff;fill-rule:evenodd" width="231.67999" x="140.158" y="182.70599"/><path d="m 412.521,239.528 h -93.479 v 147.275 h 93.479 z m -40.349,158.365 c 0,-3.693 -2.691,-6.719 -6.39,-6.719 -3.699,0 -6.39,3.025 -6.39,6.719 0,3.368 2.691,6.394 6.39,6.394 3.699,0 6.39,-3.026 6.39,-6.394 z M 350.651,229.774 c 0,1.002 0.673,1.68 1.345,1.68 h 27.581 c 0.668,0 1.336,-0.678 1.336,-1.68 0,-0.668 -0.668,-1.68 -1.336,-1.68 h -27.581 c -0.672,0.001 -1.345,1.012 -1.345,1.68 z m 70.951,2.014 v 166.104 c 0,7.071 -6.055,12.778 -13.117,12.778 H 323.08 c -7.067,0 -13.117,-5.707 -13.117,-12.778 V 231.788 c 0,-7.053 6.05,-12.778 13.117,-12.778 h 85.404 c 7.063,0 13.118,5.725 13.118,12.778 z" id="path18" style="clip-rule:evenodd;fill:#253645;fill-rule:evenodd"/><rect height="150.987" id="rect20" style="clip-rule:evenodd;fill:#ffffff;fill-rule:evenodd" width="95.497002" x="318.03601" y="237.505"/><path d="m 365.782,391.174 c -3.698,0 -6.39,3.025 -6.39,6.719 0,3.368 2.691,6.394 6.39,6.394 3.699,0 6.39,-3.025 6.39,-6.394 0,-3.694 -2.692,-6.719 -6.39,-6.719 z" id="path22" style="clip-rule:evenodd;fill:#ffffff;fill-rule:evenodd"/><path d="m 351.996,231.454 h 27.581 c 0.668,0 1.336,-0.678 1.336,-1.68 0,-0.668 -0.668,-1.68 -1.336,-1.68 h -27.581 c -0.672,0 -1.345,1.012 -1.345,1.68 0,1.002 0.673,1.68 1.345,1.68 z" id="path24" style="clip-rule:evenodd;fill:#ffffff;fill-rule:evenodd"/></g></g><g id="Layer_1" transform="translate(-22.139,-22.31)"/></symbol><symbol id="sass" viewBox="0 0 24 24"><path d="M12,24c6.627,0,12-5.373,12-12S18.627,0,12,0S0,5.373,0,12S5.373,24,12,24z M6.411,6.759c1.549-1.449,3.704-2.56,5.693-3.267c3.345-1.189,6.88-0.488,7.422,1.645L19.453,5.07c0.525,2.1-1.29,4.606-3.614,5.505c-2.07,0.809-3.796,0.675-4.5,0.45c-0.811-0.27-1.276-0.795-1.396-1.095c-0.045-0.12-0.12-0.315,0-0.375c0.075-0.046,0.105-0.031,0.314,0.194c0.196,0.211,0.961,0.78,2.431,0.615c3.855-0.434,6.164-3.42,5.431-5.024c-0.51-1.125-3.466-1.636-7.171,0.21c-4.515,2.25-4.77,4.109-4.8,4.814c-0.105,1.935,2.4,2.955,3.75,4.41c0.044,0.03,0.075,0.06,0.105,0.105c0.404-0.165,0.975-0.24,1.875-0.256c2.189-0.029,3.42,1.41,3.375,2.7c-0.045,1.021-0.976,1.441-1.141,1.471c-0.119,0.015-0.195,0.015-0.21-0.075c-0.014-0.061,0.031-0.09,0.181-0.181c0.151-0.09,0.584-0.405,0.674-0.944c0.091-0.54-0.329-1.86-2.43-2.1c-0.75-0.091-1.334-0.031-1.83,0.104c0.362,0.795,0.436,2.415-0.404,3.676c-0.87,1.289-2.49,2.085-4.065,1.649c-0.51-0.134-1.29-1.185-0.615-2.655c0.63-1.396,3.319-2.745,3.686-2.925v-0.006c-1.246-1.073-4.276-2.519-4.703-4.73C4.275,9.98,4.568,8.48,6.411,6.759z"/><path d="M6.803,19.761c0.418,0.242,1.392-0.046,2.09-0.805c0.229-0.25,0.415-0.52,0.555-0.81c0.026-0.056,0.054-0.115,0.078-0.176l0.065-0.18c0.18-0.544,0.199-1.147,0.024-1.792l-0.108,0.061v0.003c0,0-1.249,0.591-2.12,1.509C6.577,18.426,6.353,19.499,6.803,19.761z"/></symbol></svg>