<svg xmlns="http://www.w3.org/2000/svg" xmlns:xlink="http://www.w3.org/1999/xlink" xmlns:svgjs="http://svgjs.com/svgjs" xmlns:cc="http://creativecommons.org/ns#" xmlns:dc="http://purl.org/dc/elements/1.1/" xmlns:inkscape="http://www.inkscape.org/namespaces/inkscape" xmlns:rdf="http://www.w3.org/1999/02/22-rdf-syntax-ns#" xmlns:sodipodi="http://sodipodi.sourceforge.net/DTD/sodipodi-0.dtd" xmlns:svg="http://www.w3.org/2000/svg"><defs>
                    <clipPath id="cut-off-arrow">
                      <circle cx="306" cy="306" r="287"/>
                    </clipPath>

                    <filter id="goo">
                      <feGaussianBlur in="SourceGraphic" stdDeviation="10" result="blur"/>
                      <feColorMatrix in="blur" mode="matrix" values="1 0 0 0 0  0 1 0 0 0  0 0 1 0 0  0 0 0 18 -7" result="goo"/>
                      <feBlend in="SourceGraphic" in2="goo"/>
                    </filter>

                  </defs><symbol id="a11y" viewBox="0 0 640 400"><g viewBox="0 0 640 400"><g><g><g><svg viewBox="0 0 640 400" data-background-color="#ffffff" preserveAspectRatio="xMidYMid meet" height="400" width="640" xmlns="http://www.w3.org/2000/svg" xmlns:xlink="http://www.w3.org/1999/xlink"/></g></g></g></g><rect width="225.14615885416652" height="91.93443080357144" x="208.42692057291674" y="155.03278459821428" rx="2.5" ry="2.5" class="logo-element-hover-target"/><rect width="640" height="400" x="0" y="0" opacity="1" fill="#ffffff" data-fill-palette-color="background" id="background"/><g id="tight-bounds" transform="matrix(1,0,0,1,148.57422074112307,28.57422074112307)"><svg viewBox="0 0 342.85155851775386 342.85155851775386" height="342.85155851775386" width="342.85155851775386"/><rect width="342.85155851775386" height="342.85155851775386" fill="none" stroke="none" visibility="hidden"/></g><g><svg/></g><g><svg viewBox="0 0 342.85155851775386 342.85155851775386" height="342.85155851775386" width="342.85155851775386"/></g><g><path d="M0 171.426c0-94.676 76.75-171.426 171.426-171.426 94.676 0 171.426 76.75 171.426 171.426 0 94.676-76.75 171.426-171.426 171.426-94.676 0-171.426-76.75-171.426-171.426zM171.426 335.643c90.695 0 164.217-73.523 164.217-164.217 0-90.695-73.523-164.217-164.217-164.217-90.695 0-164.217 73.523-164.217 164.217 0 90.695 73.523 164.217 164.217 164.217z" data-fill-palette-color="tertiary" fill="#269735" stroke="transparent"/><ellipse rx="164.56874808852186" ry="164.56874808852186" cx="171.42577925887693" cy="171.42577925887693" fill="#269735" stroke="transparent" stroke-width="0" fill-opacity="1" data-fill-palette-color="tertiary"/></g><g transform="matrix(1,0,0,1,64.84655864529837,131.45857152878497)"><svg viewBox="0 0 213.1584412271571 79.93441546018391" height="79.93441546018391" width="213.1584412271571"/></g><g><svg viewBox="0 0 213.1584412271571 79.93441546018391" height="79.93441546018391" width="213.1584412271571"/></g><g><svg viewBox="0 0 213.1584412271571 79.93441546018391" height="79.93441546018391" width="213.1584412271571"/></g><g><svg viewBox="0 0 213.1584412271571 79.93441546018391" height="79.93441546018391" width="213.1584412271571"/></g><g/><g id="textblocktransform"><svg viewBox="0 0 213.1584412271571 79.93441546018391" height="79.93441546018391" width="213.1584412271571" id="textblock"/></g><g><svg viewBox="0 0 213.1584412271571 79.93441546018391" height="79.93441546018391" width="213.1584412271571"/></g><g transform="matrix(1,0,0,1,0,0)"><svg width="213.1584412271571" viewBox="1.5099999904632568 -36.869998931884766 115.6199951171875 43.36000061035156" height="79.93441546018391" data-palette-color="#ffffff"/></g><path d="M36.87-22.02L36.87-22.02Q36.87-17.92 36.57-13.87 36.28-9.81 35.99-5.76L35.99-5.76Q30.52-5.27 25.1-4.93 19.68-4.59 14.21-4.59L14.21-4.59Q13.72-4.59 12.4-4.61 11.08-4.64 9.62-4.71 8.15-4.79 6.84-4.91 5.52-5.03 5.08-5.27L5.08-5.27Q3.47-6.15 2.83-7.5 2.2-8.84 2.2-10.55L2.2-10.55Q2.2-11.13 2.25-12.11 2.29-13.09 2.44-14.16 2.59-15.23 2.83-16.16 3.08-17.09 3.42-17.53L3.42-17.53Q3.86-18.12 5.42-18.53 6.98-18.95 9.16-19.19 11.33-19.43 13.84-19.58 16.36-19.73 18.65-19.8 20.95-19.87 22.75-19.87 24.56-19.87 25.34-19.87L25.34-19.87Q25.49-20.95 25.49-21.97L25.49-21.97Q25.49-22.07 25.49-22.49 25.49-22.9 25.44-23L25.44-23Q25.29-23.29 24.51-23.49 23.73-23.68 22.58-23.78 21.44-23.88 20.09-23.95 18.75-24.02 17.48-24.02 16.21-24.02 15.23-24.02 14.26-24.02 13.82-24.02L13.82-24.02Q10.74-24.02 7.67-23.9 4.59-23.78 1.51-23.68L1.51-23.68Q1.71-25.54 1.83-27.44 1.95-29.35 1.86-31.2L1.86-31.2Q5.42-31.84 9.01-32.1 12.6-32.37 16.26-32.37L16.26-32.37Q17.58-32.37 19.14-32.35 20.7-32.32 22.27-32.25 23.83-32.18 25.37-32.03 26.9-31.88 28.22-31.64L28.22-31.64Q29.59-31.4 30.93-30.76 32.28-30.13 33.45-29.2 34.62-28.27 35.5-27.08 36.38-25.88 36.77-24.51L36.77-24.51Q36.82-24.37 36.84-24.02 36.87-23.68 36.87-23.27 36.87-22.85 36.87-22.51 36.87-22.17 36.87-22.02ZM25.98-10.55L25.98-10.55 25.98-16.8Q24.56-16.85 23.14-16.87 21.73-16.89 20.31-16.89L20.31-16.89Q20.02-16.89 18.68-16.87 17.33-16.85 15.8-16.75 14.26-16.65 12.99-16.5 11.72-16.36 11.52-16.06L11.52-16.06Q11.28-15.67 11.21-15.26 11.13-14.84 11.13-14.4L11.13-14.4Q11.13-14.06 11.18-13.48 11.23-12.89 11.35-12.26 11.47-11.62 11.62-11.08 11.77-10.55 12.01-10.3L12.01-10.3Q12.21-10.06 12.67-9.94 13.13-9.81 13.67-9.74 14.21-9.67 14.75-9.64 15.28-9.62 15.58-9.62L15.58-9.62Q16.75-9.62 18.09-9.72 19.43-9.81 20.83-9.94 22.22-10.06 23.54-10.23 24.85-10.4 25.98-10.55ZM56.64-0.15L56.64-0.15Q53.66-0.39 50.75-0.51 47.85-0.63 44.92-0.68L44.92-0.68 46.24-26.76 42.33-27.15Q43.11-29.49 43.41-31.84 43.7-34.18 44.09-36.57L44.09-36.57 54.59-36.87Q55.17-27.64 55.64-18.51 56.1-9.38 56.64-0.15ZM77.44-0.15L77.44-0.15Q74.46-0.39 71.55-0.51 68.65-0.63 65.72-0.68L65.72-0.68 67.04-26.76 63.13-27.15Q63.91-29.49 64.2-31.84 64.5-34.18 64.89-36.57L64.89-36.57 75.39-36.87Q75.97-27.64 76.44-18.51 76.9-9.38 77.44-0.15ZM117.13-9.62L117.13-9.62Q117.13-9.08 117.13-8.06 117.13-7.03 117.08-5.74 117.03-4.44 116.96-3.05 116.89-1.66 116.79-0.42 116.69 0.83 116.52 1.78 116.35 2.73 116.15 3.13L116.15 3.13Q115.32 4.44 114.62 5.15 113.91 5.86 113.08 6.15 112.25 6.45 111.2 6.47 110.15 6.49 108.73 6.49L108.73 6.49Q104.05 6.49 99.41 6.13 94.77 5.76 90.13 5.27L90.13 5.27 90.13-1.42Q90.57-1.42 92.06-1.44 93.55-1.46 95.55-1.51 97.55-1.56 99.8-1.66 102.04-1.76 104-1.9 105.95-2.05 107.37-2.25 108.78-2.44 109.12-2.73L109.12-2.73Q109.56-3.08 109.83-3.78 110.1-4.49 110.22-5.27 110.34-6.05 110.39-6.84 110.44-7.62 110.44-8.11L110.44-8.11Q110.44-8.59 110.44-9.03 110.44-9.47 110.39-10.01L110.39-10.01Q109.66-8.35 108.44-7.52 107.22-6.69 105.71-6.35 104.19-6.01 102.53-5.98 100.87-5.96 99.36-5.96L99.36-5.96Q96.18-5.96 93.23-6.23 90.28-6.49 88.01-7.62 85.73-8.74 84.34-11.01 82.95-13.28 82.95-17.29L82.95-17.29Q82.95-21.24 83.49-25.17 84.03-29.1 84.86-32.96L84.86-32.96 95.16-32.86Q94.33-29.79 93.69-26.61 93.06-23.44 93.06-20.21L93.06-20.21Q93.06-18.51 93.3-17.43 93.55-16.36 94.18-15.7 94.82-15.04 95.94-14.79 97.06-14.55 98.77-14.55L98.77-14.55Q99.46-14.55 100.46-14.65 101.46-14.75 102.51-14.92 103.56-15.09 104.51-15.38 105.46-15.67 106-16.11L106-16.11Q106.19-16.26 106.34-17.09 106.49-17.92 106.58-19.07 106.68-20.21 106.73-21.53 106.78-22.85 106.8-24.02 106.83-25.2 106.83-26.05 106.83-26.9 106.83-27.15L106.83-27.15Q106.83-28.81 106.83-30.44 106.83-32.08 106.73-33.74L106.73-33.74Q109.12-33.5 111.44-33.33 113.76-33.15 116.15-33.06L116.15-33.06Q116.35-28.32 116.57-23.68 116.79-19.04 117.03-14.31L117.03-14.31Q117.13-13.13 117.13-11.94 117.13-10.74 117.13-9.62Z" opacity="1" transform="matrix(1,0,0,1,0,0)" fill="#ffffff" class="undefined-text-0" data-fill-palette-color="quaternary" id="text-0"/></symbol><symbol id="api" viewBox="0 0 100 100"><path fill="#c6dff1" d="M73,80H27c-6.075,0-11-4.925-11-11V31c0-6.075,4.925-11,11-11h46c6.075,0,11,4.925,11,11v38	C84,75.075,79.075,80,73,80z"/><path fill="#1f212b" d="M73,81H27c-6.617,0-12-5.383-12-12V31c0-6.617,5.383-12,12-12h46c6.617,0,12,5.383,12,12v38	C85,75.617,79.617,81,73,81z M27,21c-5.514,0-10,4.486-10,10v38c0,5.514,4.486,10,10,10h46c5.514,0,10-4.486,10-10V31	c0-5.514-4.486-10-10-10H27z"/><path fill="#1f212b" d="M73,76H27c-3.86,0-7-3.14-7-7V31c0-3.86,3.14-7,7-7h41.5c0.276,0,0.5,0.224,0.5,0.5	S68.776,25,68.5,25H27c-3.309,0-6,2.691-6,6v38c0,3.309,2.691,6,6,6h46c3.309,0,6-2.691,6-6V53.5c0-0.276,0.224-0.5,0.5-0.5	s0.5,0.224,0.5,0.5V69C80,72.86,76.86,76,73,76z"/><path fill="#1f212b" d="M79.5,44c-0.276,0-0.5-0.224-0.5-0.5v-2c0-0.276,0.224-0.5,0.5-0.5s0.5,0.224,0.5,0.5v2	C80,43.776,79.776,44,79.5,44z"/><path fill="#1f212b" d="M79.5,51c-0.276,0-0.5-0.224-0.5-0.5v-4c0-0.276,0.224-0.5,0.5-0.5s0.5,0.224,0.5,0.5v4	C80,50.776,79.776,51,79.5,51z"/><path fill="#1f212b" d="M30,59.956c0-0.04,0.019-0.12,0.06-0.239l6.109-19.845C36.344,39.291,36.851,39,37.69,39	s1.346,0.293,1.522,0.878l6.13,19.917c0,0.038,0.005,0.075,0.015,0.112c0.01,0.037,0.015,0.065,0.015,0.084	c0,0.262-0.164,0.495-0.492,0.7C44.552,60.897,44.198,61,43.821,61c-0.477,0-0.776-0.188-0.896-0.564l-1.313-4.421h-7.899	l-1.309,4.406C32.286,60.807,31.984,61,31.495,61c-0.352,0-0.689-0.099-1.012-0.299C30.161,60.503,30,60.253,30,59.956z M34.334,53.925h6.66l-3.321-11.244L34.334,53.925z"/><path fill="#1f212b" d="M48.776,60.105V40.045c0-0.239,0.095-0.443,0.284-0.613c0.189-0.168,0.433-0.253,0.732-0.253h5.642	c1.911,0,3.442,0.518,4.597,1.552c1.154,1.035,1.731,2.666,1.731,4.895v0.268c0,2.23-0.587,3.866-1.761,4.91	c-1.174,1.045-2.736,1.567-4.686,1.567h-4.03v7.732c0,0.279-0.125,0.497-0.373,0.656C50.661,60.921,50.368,61,50.03,61	c-0.338,0-0.632-0.079-0.88-0.239C48.9,60.602,48.776,60.384,48.776,60.105z M51.284,50.284h4.03c1.253,0,2.224-0.354,2.91-1.06	c0.686-0.707,1.03-1.767,1.03-3.18v-0.358c0-1.412-0.344-2.472-1.03-3.179c-0.687-0.706-1.657-1.06-2.91-1.06h-4.03V50.284z"/><path fill="#1f212b" d="M65.492,60.105V40.045c0-0.279,0.124-0.492,0.373-0.642c0.249-0.149,0.542-0.224,0.88-0.224	c0.338,0,0.631,0.075,0.88,0.224C67.875,39.553,68,39.767,68,40.045v20.059c0,0.279-0.125,0.497-0.373,0.656	C67.378,60.921,67.085,61,66.746,61c-0.338,0-0.632-0.079-0.88-0.239C65.617,60.602,65.492,60.384,65.492,60.105z"/></symbol><symbol id="bot" viewBox="0 0 100 100"><path fill="#c6dff1" d="M68,86H31c-7.18,0-13-5.82-13-13V41c0-7.18,5.82-13,13-13h37c7.18,0,13,5.82,13,13v32	C81,80.18,75.18,86,68,86z"/><path fill="#fff" d="M31.5,65.5h36v6c0,3.314-2.686,6-6,6h-24c-3.314,0-6-2.686-6-6V65.5z"/><path fill="#8e9cb3" d="M63.5,28h-28v-1.5c0-2.209,1.791-4,4-4h20c2.209,0,4,1.791,4,4V28z"/><path fill="#8e9cb3" d="M81,44v17l7.651-1.478C90.023,59.217,91,58,91,56.593v-8.187c0-1.406-0.977-2.624-2.349-2.929L81,44z"/><path fill="#8e9cb3" d="M18,44v17l-7.651-1.478C8.977,59.217,8,58,8,56.593v-8.187c0-1.406,0.977-2.624,2.349-2.929L18,44z"/><path fill="#f05b6c" d="M58.5,22.5h-18l1.678-9.392c0.187-0.935,1.008-1.608,1.961-1.608H54.86	c0.953,0,1.774,0.673,1.961,1.608L58.5,22.5z"/><circle cx="87" cy="21" r="4.5" fill="#f27c7c"/><circle cx="12" cy="21" r="4.5" fill="#f27c7c"/><circle cx="35" cy="48" r="8.5" fill="#a2b4cc"/><circle cx="35" cy="48" r="3.5" fill="#fef6aa"/><circle cx="64" cy="48" r="8.5" fill="#a2b4cc"/><circle cx="64" cy="48" r="3.5" fill="#fef6aa"/><path fill="#1f212b" d="M68,87H31c-7.72,0-14-6.28-14-14V41c0-7.72,6.28-14,14-14h37c7.72,0,14,6.28,14,14v32	C82,80.72,75.72,87,68,87z M31,29c-6.617,0-12,5.383-12,12v32c0,6.617,5.383,12,12,12h37c6.617,0,12-5.383,12-12V41	c0-6.617-5.383-12-12-12H31z"/><path fill="#1f212b" d="M35,57c-4.963,0-9-4.038-9-9s4.037-9,9-9s9,4.038,9,9S39.963,57,35,57z M35,40c-4.411,0-8,3.589-8,8	s3.589,8,8,8s8-3.589,8-8S39.411,40,35,40z"/><path fill="#1f212b" d="M35,52c-2.206,0-4-1.794-4-4s1.794-4,4-4s4,1.794,4,4S37.206,52,35,52z M35,45c-1.654,0-3,1.346-3,3	s1.346,3,3,3s3-1.346,3-3S36.654,45,35,45z"/><path fill="#1f212b" d="M64,57c-4.963,0-9-4.038-9-9s4.037-9,9-9s9,4.038,9,9S68.963,57,64,57z M64,40c-4.411,0-8,3.589-8,8	s3.589,8,8,8s8-3.589,8-8S68.411,40,64,40z"/><path fill="#1f212b" d="M64,52c-2.206,0-4-1.794-4-4s1.794-4,4-4s4,1.794,4,4S66.206,52,64,52z M64,45c-1.654,0-3,1.346-3,3	s1.346,3,3,3s3-1.346,3-3S65.654,45,64,45z"/><path fill="#1f212b" d="M63.5,28.5h-28c-0.276,0-0.5-0.224-0.5-0.5v-1.5c0-2.481,2.019-4.5,4.5-4.5h20	c2.481,0,4.5,2.019,4.5,4.5V28C64,28.276,63.776,28.5,63.5,28.5z M36,27.5h27v-1c0-1.93-1.57-3.5-3.5-3.5h-20	c-1.93,0-3.5,1.57-3.5,3.5V27.5z"/><path fill="#1f212b" d="M58.5,23h-18c-0.148,0-0.288-0.065-0.384-0.179c-0.095-0.113-0.135-0.263-0.108-0.409l1.679-9.392	C41.921,11.845,42.951,11,44.14,11H54.86c1.188,0,2.219,0.845,2.451,2.01l1.681,9.402c0.026,0.146-0.014,0.295-0.108,0.409	C58.788,22.935,58.648,23,58.5,23z M41.098,22h16.805l-1.573-8.804C56.191,12.507,55.573,12,54.86,12H44.14	c-0.713,0-1.331,0.507-1.471,1.206L41.098,22z"/><path fill="#1f212b" d="M61.5,78h-24c-3.584,0-6.5-2.916-6.5-6.5v-6c0-0.276,0.224-0.5,0.5-0.5h36c0.276,0,0.5,0.224,0.5,0.5	v6C68,75.084,65.084,78,61.5,78z M32,66v5.5c0,3.033,2.468,5.5,5.5,5.5h24c3.032,0,5.5-2.467,5.5-5.5V66H32z"/><path fill="#1f212b" d="M81,62c-0.23,0-0.456-0.08-0.637-0.229C80.133,61.581,80,61.298,80,61V44	c0-0.298,0.133-0.581,0.363-0.771c0.23-0.19,0.538-0.267,0.826-0.21l7.65,1.478c1.872,0.416,3.16,2.021,3.16,3.911v8.187	c0,1.889-1.288,3.495-3.133,3.905l-7.678,1.484C81.127,61.994,81.063,62,81,62z M82,45.211v14.577l6.461-1.248	C89.355,58.341,90,57.538,90,56.593v-8.187c0-0.945-0.645-1.748-1.566-1.953L82,45.211z"/><rect width="2" height="19.5" x="86" y="25.5" fill="#1f212b"/><path fill="#1f212b" d="M87,26c-2.757,0-5-2.243-5-5s2.243-5,5-5s5,2.243,5,5S89.757,26,87,26z M87,17c-2.206,0-4,1.794-4,4	s1.794,4,4,4s4-1.794,4-4S89.206,17,87,17z"/><path fill="#1f212b" d="M18,62c-0.063,0-0.127-0.006-0.189-0.018l-7.65-1.478C8.288,60.088,7,58.482,7,56.593v-8.187	c0-1.889,1.288-3.495,3.133-3.905l7.678-1.484c0.29-0.057,0.596,0.021,0.826,0.21C18.867,43.419,19,43.702,19,44v17	c0,0.298-0.133,0.581-0.363,0.771C18.456,61.92,18.23,62,18,62z M17,45.212l-6.461,1.248C9.645,46.659,9,47.462,9,48.407v8.187	c0,0.945,0.645,1.748,1.566,1.953L17,59.789V45.212z"/><rect width="2" height="19.5" x="11" y="25.5" fill="#1f212b"/><path fill="#1f212b" d="M12,26c-2.757,0-5-2.243-5-5s2.243-5,5-5s5,2.243,5,5S14.757,26,12,26z M12,17c-2.206,0-4,1.794-4,4	s1.794,4,4,4s4-1.794,4-4S14.206,17,12,17z"/><path fill="#1f212b" d="M49.5,74c-0.276,0-0.5-0.224-0.5-0.5v-8c0-0.276,0.224-0.5,0.5-0.5s0.5,0.224,0.5,0.5v8	C50,73.776,49.776,74,49.5,74z"/><path fill="#1f212b" d="M55.5,69c-0.276,0-0.5-0.224-0.5-0.5v-3c0-0.276,0.224-0.5,0.5-0.5s0.5,0.224,0.5,0.5v3	C56,68.776,55.776,69,55.5,69z"/><path fill="#1f212b" d="M43.5,78c-0.276,0-0.5-0.224-0.5-0.5v-12c0-0.276,0.224-0.5,0.5-0.5s0.5,0.224,0.5,0.5v12	C44,77.776,43.776,78,43.5,78z"/><path fill="#1f212b" d="M37.5,70c-0.276,0-0.5-0.224-0.5-0.5v-4c0-0.276,0.224-0.5,0.5-0.5s0.5,0.224,0.5,0.5v4	C38,69.776,37.776,70,37.5,70z"/><path fill="#1f212b" d="M61.5,78c-0.276,0-0.5-0.224-0.5-0.5v-12c0-0.276,0.224-0.5,0.5-0.5s0.5,0.224,0.5,0.5v12	C62,77.776,61.776,78,61.5,78z"/><path fill="#1f212b" d="M37.5,78c-0.276,0-0.5-0.224-0.5-0.5v-6c0-0.276,0.224-0.5,0.5-0.5s0.5,0.224,0.5,0.5v6	C38,77.776,37.776,78,37.5,78z"/><path fill="#1f212b" d="M49.5,78c-0.276,0-0.5-0.224-0.5-0.5v-2c0-0.276,0.224-0.5,0.5-0.5s0.5,0.224,0.5,0.5v2	C50,77.776,49.776,78,49.5,78z"/><path fill="#1f212b" d="M55.5,78c-0.276,0-0.5-0.224-0.5-0.5v-7c0-0.276,0.224-0.5,0.5-0.5s0.5,0.224,0.5,0.5v7	C56,77.776,55.776,78,55.5,78z"/></symbol><symbol id="briefcase" viewBox="0 0 40 40"><path fill="#967a44" d="M25,2c0.551,0,1,0.449,1,1v3H14V3c0-0.551,0.449-1,1-1H25 M25,1H15c-1.105,0-2,0.895-2,2v4h14V3 C27,1.895,26.105,1,25,1L25,1z"/><path fill="#f5ce85" d="M1.5 15.5H38.5V35.5H1.5z"/><path fill="#967a44" d="M38,16v19H2V16H38 M39,15H1v21h38V15L39,15z"/><path fill="#f5ce85" d="M5,21.5c-1.93,0-3.5-1.57-3.5-3.5V4.5h37V18c0,1.93-1.57,3.5-3.5,3.5H5z"/><path fill="#967a44" d="M38,5v13c0,1.654-1.346,3-3,3H5c-1.654,0-3-1.346-3-3V5H38 M39,4H1v14c0,2.209,1.791,4,4,4h30 c2.209,0,4-1.791,4-4V4L39,4z"/><path fill="#967a44" d="M20 15A2 2 0 1 0 20 19 2 2 0 1 0 20 15zM28 5h-3V4.5C25 3.672 25.672 3 26.5 3h0C27.328 3 28 3.672 28 4.5V5zM15 5h-3V4.5C12 3.672 12.672 3 13.5 3h0C14.328 3 15 3.672 15 4.5V5z"/></symbol><symbol id="bug" viewBox="0 0 100 100"><path fill="#a1d3a2" d="M42.011,22.567C42.538,18.294,45.912,15,50.001,15c4.114,0,7.508,3.336,7.999,7.65c0,0-4,2.35-8,2.35S42.011,22.567,42.011,22.567z"/><path fill="#b3b2c3" d="M26,38c0,3,0,15.488,0,22.5C26,75.517,35,86,50,86s24-10.483,24-25.5c0-7.955,0-22.5,0-22.5H26z"/><path fill="#a1d3a2" d="M74 38c0 0 0 14.54 0 22.5 0 14.51-8.4 24.72-22.5 25.46V38H74zM26 38.04c0 0 0 14.54 0 22.5C26 75.05 34.4 85.26 48.5 86V38.04H26z"/><path fill="#78a2d2" d="M75,36c0,4-8.767,11-25,11s-25-7-25-11s12-11,17-13c2,0.112,4,2,8,2s7-1.888,8-2C63,25,75,32,75,36z"/><path fill="#1f212b" d="M89,56H75v-9.968c0.057,0.001,0.108,0.003,0.171,0.003c1.392,0,4.342-0.334,7.187-2.799C86.766,39.417,89,32.271,89,22c0-0.552-0.447-1-1-1s-1,0.448-1,1c0,9.494-2.044,16.301-5.91,19.688c-2.547,2.231-5.151,2.378-6.09,2.348V39c0-0.017-0.009-0.031-0.01-0.047C75.655,37.938,76,36.935,76,36c0-4.838-12.718-11.783-17.036-13.678c-0.642-4.761-4.456-8.327-8.963-8.327c-4.491,0-8.323,3.572-8.967,8.328C36.714,24.219,24,31.163,24,36c0,0.935,0.345,1.938,1.01,2.953C25.009,38.969,25,38.983,25,39v5.034c-0.926,0.028-3.518-0.117-6.048-2.31C15.059,38.35,13,31.529,13,22c0-0.552-0.447-1-1-1s-1,0.448-1,1c0,10.271,2.234,17.417,6.643,21.236c2.845,2.465,5.796,2.799,7.187,2.799c0.063,0,0.114-0.002,0.171-0.003V56H11c-0.553,0-1,0.448-1,1s0.447,1,1,1h14v2.5c0,2.741,0.291,5.312,0.838,7.699C22.306,68.972,11,72.502,11,86c0,0.552,0.447,1,1,1s1-0.448,1-1c0-12.348,10.355-15.287,13.341-15.877C29.512,80.62,38.108,87,50,87s20.488-6.38,23.659-16.877C76.645,70.713,87,73.652,87,86c0,0.552,0.447,1,1,1s1-0.448,1-1c0-13.498-11.306-17.028-14.838-17.801C74.709,65.812,75,63.241,75,60.5V58h14c0.553,0,1-0.448,1-1S89.553,56,89,56z M50.001,16.005c3.4,0,6.296,2.664,6.924,6.271c-0.213,0.079-0.439,0.168-0.698,0.272C54.789,23.126,52.615,24,50,24c-2.219,0-3.76-0.629-5.119-1.184c-0.608-0.248-1.196-0.478-1.788-0.634C43.756,18.628,46.643,16.005,50.001,16.005z M42.149,24.019c0.576,0.079,1.23,0.346,1.976,0.649C45.579,25.262,47.39,26,50,26c3.002,0,5.487-0.999,6.973-1.596c0.321-0.129,0.7-0.281,0.942-0.359C64.106,26.599,74,33.104,74,36c0,3.394-8.471,10-24,10s-24-6.606-24-10C26,33.093,35.962,26.554,42.149,24.019z M27,60.5V41.191c3.819,3.391,11.13,6.404,21,6.768v36.954c-2.523-0.174-4.864-0.676-7-1.48V78.5c0-0.276-0.224-0.5-0.5-0.5S40,78.224,40,78.5v4.526c-2.268-0.985-4.275-2.33-6-3.989V59.5c0-0.276-0.224-0.5-0.5-0.5S33,59.224,33,59.5v18.522C29.167,73.772,27,67.771,27,60.5z M49,84.956v-36.97C49.332,47.992,49.663,48,50,48s0.668-0.008,1-0.014v36.97C50.665,84.968,50.341,85,50,85S49.335,84.968,49,84.956z M67,78.022V62.5c0-0.276-0.224-0.5-0.5-0.5S66,62.224,66,62.5v16.537c-1.725,1.659-3.732,3.004-6,3.989V57.5c0-0.276-0.224-0.5-0.5-0.5S59,57.224,59,57.5v25.933c-2.136,0.804-4.477,1.306-7,1.48V47.959c9.87-0.363,17.181-3.377,21-6.768V60.5C73,67.771,70.833,73.772,67,78.022z"/><path fill="#1f212b" d="M40.5 72c.276 0 .5-.224.5-.5v-20c0-.276-.224-.5-.5-.5S40 51.224 40 51.5v20C40 71.776 40.224 72 40.5 72zM40.5 77c.276 0 .5-.224.5-.5v-3c0-.276-.224-.5-.5-.5S40 73.224 40 73.5v3C40 76.776 40.224 77 40.5 77zM59.5 51c-.276 0-.5.224-.5.5v4c0 .276.224.5.5.5s.5-.224.5-.5v-4C60 51.224 59.776 51 59.5 51zM66.5 58c-.276 0-.5.224-.5.5v2c0 .276.224.5.5.5s.5-.224.5-.5v-2C67 58.224 66.776 58 66.5 58zM66.5 55c-.276 0-.5.224-.5.5v1c0 .276.224.5.5.5s.5-.224.5-.5v-1C67 55.224 66.776 55 66.5 55zM33.5 58c.276 0 .5-.224.5-.5v-2c0-.276-.224-.5-.5-.5S33 55.224 33 55.5v2C33 57.776 33.224 58 33.5 58z"/></symbol><symbol id="buttons"><circle data-v-25c909e8="" stroke-width="2" stroke="currentColor" cx="12" cy="12" r="4"/> <circle data-v-25c909e8="" stroke-width="2" stroke="currentColor" cx="28" cy="12" r="4"/> <circle data-v-25c909e8="" stroke-width="2" stroke="currentColor" cx="44" cy="12" r="4"/></symbol><symbol id="climb" viewBox="0 0 100 100"><path fill="#ead6c7" d="M59,87V76h6c5.523,0,10-4.477,10-10v-8l6.63-2.947c1.262-0.561,1.751-2.097,1.046-3.284 l-6.507-10.952c-0.239-0.433-0.387-0.908-0.455-1.398C73.726,25.059,61.407,14,46.5,14l0,0C30.208,14,17,27.208,17,43.5 c0,1.531,0.123,3.032,0.348,4.5h0.019c0.652,4.266,2.2,8.235,4.475,11.691C25.139,64.696,27,70.506,27,76.499V87H59z"/><path fill="#1f212b" d="M59,88c-0.552,0-1-0.447-1-1V76c0-0.553,0.448-1,1-1h6c4.962,0,9-4.037,9-9v-8 c0-0.396,0.233-0.753,0.594-0.914l6.63-2.947c0.346-0.153,0.599-0.437,0.714-0.797c0.115-0.359,0.072-0.736-0.122-1.062 l-6.507-10.952c-0.307-0.556-0.498-1.143-0.585-1.772C72.786,25.557,60.652,15,46.5,15C30.785,15,18,27.785,18,43.5 c0,1.367,0.104,2.77,0.31,4.169c0.021,0.058,0.036,0.118,0.045,0.18c0.625,4.087,2.08,7.887,4.322,11.293 C26.16,64.428,28,70.43,28,76.499V87c0,0.553-0.448,1-1,1s-1-0.447-1-1V76.499c0-5.678-1.727-11.299-4.993-16.258 c-2.369-3.597-3.916-7.602-4.6-11.905c-0.022-0.059-0.038-0.121-0.047-0.185C16.121,46.592,16,45.026,16,43.5 C16,26.683,29.682,13,46.5,13c15.145,0,28.13,11.299,30.205,26.282c0.053,0.386,0.167,0.74,0.34,1.053l6.491,10.924 c0.481,0.811,0.594,1.791,0.308,2.69c-0.286,0.898-0.945,1.634-1.807,2.018L76,58.649V66c0,6.065-4.935,11-11,11h-5v10 C60,87.553,59.552,88,59,88z"/><path fill="#1f212b" d="M59.5,76h-9c-0.276,0-0.5-0.224-0.5-0.5s0.224-0.5,0.5-0.5h9c0.276,0,0.5,0.224,0.5,0.5 S59.776,76,59.5,76z"/><path fill="#1f212b" d="M48.5,76h-2c-0.276,0-0.5-0.224-0.5-0.5s0.224-0.5,0.5-0.5h2c0.276,0,0.5,0.224,0.5,0.5 S48.776,76,48.5,76z"/><path fill="none" stroke="#25262f" stroke-linecap="round" stroke-linejoin="round" stroke-miterlimit="10" stroke-width="2" d="M37.242,31.718c-2.645,2.645-5.29,5.29-7.934,7.934c2.645,2.645,5.29,5.29,7.934,7.934"/><path fill="none" stroke="#25262f" stroke-linecap="round" stroke-linejoin="round" stroke-miterlimit="10" stroke-width="2" d="M56.066,31.718c2.645,2.645,5.29,5.29,7.934,7.934c-2.645,2.645-5.29,5.29-7.934,7.934"/><path fill="none" stroke="#25262f" stroke-linecap="round" stroke-linejoin="round" stroke-miterlimit="10" stroke-width="2" d="M49.983,28c-2.287,7.981-4.575,15.962-6.862,23.943"/></symbol><symbol id="code-fork" viewBox="0 0 100 100"><path fill="#d1dae7" d="M68.5,39c-0.694,0-1.362-0.102-2-0.278V45.5c0,3.309-2.691,6-6,6h-21c-2.253,0-4.326,0.758-6,2.019	V28.722C32.862,28.898,32.194,29,31.5,29s-1.362-0.102-2-0.278V61.5V67v4.278c0.638-0.176,1.306-0.278,2-0.278s1.362,0.102,2,0.278	V67v-5.5c0-3.309,2.691-6,6-6h21c5.514,0,10-4.486,10-10v-6.778C69.862,38.898,69.194,39,68.5,39z"/><circle cx="31.5" cy="21.5" r="7.5" fill="#a9dde2"/><circle cx="68.5" cy="31.5" r="7.5" fill="#a9dde2"/><circle cx="31.5" cy="78.5" r="7.5" fill="#39c1d7"/><path fill="#1f212b" d="M31.5,30c-4.687,0-8.5-3.813-8.5-8.5s3.813-8.5,8.5-8.5s8.5,3.813,8.5,8.5S36.187,30,31.5,30z M31.5,15c-3.584,0-6.5,2.916-6.5,6.5s2.916,6.5,6.5,6.5s6.5-2.916,6.5-6.5S35.084,15,31.5,15z"/><path fill="#1f212b" d="M68.5,40c-4.687,0-8.5-3.813-8.5-8.5s3.813-8.5,8.5-8.5s8.5,3.813,8.5,8.5S73.187,40,68.5,40z M68.5,25c-3.584,0-6.5,2.916-6.5,6.5s2.916,6.5,6.5,6.5s6.5-2.916,6.5-6.5S72.084,25,68.5,25z"/><path fill="#1f212b" d="M31.5,87c-4.687,0-8.5-3.813-8.5-8.5s3.813-8.5,8.5-8.5s8.5,3.813,8.5,8.5S36.187,87,31.5,87z M31.5,72c-3.584,0-6.5,2.916-6.5,6.5s2.916,6.5,6.5,6.5s6.5-2.916,6.5-6.5S35.084,72,31.5,72z"/><path fill="#1f212b" d="M33.5,71.778c-0.044,0-0.089-0.006-0.134-0.019c-1.245-0.344-2.487-0.344-3.732,0	c-0.153,0.044-0.313,0.011-0.437-0.083C29.073,71.582,29,71.435,29,71.278V28.722c0-0.156,0.073-0.304,0.197-0.398	c0.125-0.094,0.285-0.125,0.437-0.083c1.245,0.344,2.487,0.344,3.732,0c0.153-0.043,0.313-0.011,0.437,0.083	C33.927,28.418,34,28.565,34,28.722v23.85C35.658,51.54,37.541,51,39.5,51h21c3.033,0,5.5-2.468,5.5-5.5v-6.778	c0-0.156,0.073-0.304,0.197-0.398c0.125-0.093,0.286-0.126,0.437-0.083c1.245,0.344,2.487,0.344,3.732,0	c0.152-0.044,0.313-0.011,0.437,0.083C70.927,38.418,71,38.565,71,38.722V45.5C71,51.29,66.29,56,60.5,56h-21	c-3.033,0-5.5,2.468-5.5,5.5v9.778c0,0.156-0.073,0.304-0.197,0.398C33.715,71.743,33.608,71.778,33.5,71.778z M30,29.353v41.295	c1.003-0.195,1.997-0.195,3,0V61.5c0-3.584,2.916-6.5,6.5-6.5h21c5.238,0,9.5-4.262,9.5-9.5v-6.147c-1.003,0.195-1.997,0.195-3,0	V45.5c0,3.584-2.916,6.5-6.5,6.5h-21c-2.063,0-4.034,0.663-5.699,1.919c-0.152,0.113-0.354,0.132-0.524,0.048S33,53.709,33,53.52	V29.353C31.997,29.548,31.003,29.548,30,29.353z"/><path fill="#1f212b" d="M31.5,83c-2.481,0-4.5-2.019-4.5-4.5s2.019-4.5,4.5-4.5s4.5,2.019,4.5,4.5S33.981,83,31.5,83z M31.5,75c-1.93,0-3.5,1.57-3.5,3.5s1.57,3.5,3.5,3.5s3.5-1.57,3.5-3.5S33.43,75,31.5,75z"/><path fill="#1f212b" d="M31.5,26c-2.481,0-4.5-2.019-4.5-4.5s2.019-4.5,4.5-4.5c0.276,0,0.5,0.224,0.5,0.5S31.776,18,31.5,18	c-1.93,0-3.5,1.57-3.5,3.5s1.57,3.5,3.5,3.5c1.587,0,2.974-1.079,3.375-2.625c0.069-0.268,0.341-0.428,0.609-0.359	c0.267,0.069,0.428,0.343,0.358,0.609C35.328,24.612,33.542,26,31.5,26z"/><path fill="#1f212b" d="M35.358,21c-0.223,0-0.426-0.149-0.484-0.375c-0.077-0.301-0.199-0.595-0.361-0.874	c-0.139-0.238-0.058-0.544,0.181-0.684c0.238-0.139,0.544-0.058,0.684,0.182c0.208,0.357,0.365,0.736,0.465,1.126	c0.069,0.268-0.092,0.54-0.36,0.609C35.441,20.995,35.399,21,35.358,21z"/><path fill="#1f212b" d="M68.5,36c-2.481,0-4.5-2.019-4.5-4.5c0-1.584,0.861-3.069,2.249-3.877	c0.238-0.143,0.545-0.059,0.684,0.18c0.139,0.239,0.058,0.545-0.181,0.684C65.655,29.126,65,30.252,65,31.5c0,1.93,1.57,3.5,3.5,3.5	c1.249,0,2.375-0.654,3.013-1.752c0.139-0.237,0.445-0.319,0.684-0.181c0.239,0.14,0.319,0.445,0.181,0.685	C71.57,35.139,70.084,36,68.5,36z"/><path fill="#1f212b" d="M72.5,32c-0.276,0-0.5-0.224-0.5-0.5c0-0.267-0.04-0.545-0.125-0.874	c-0.069-0.268,0.091-0.54,0.358-0.61c0.268-0.068,0.541,0.091,0.61,0.358C72.95,30.788,73,31.146,73,31.5	C73,31.776,72.776,32,72.5,32z"/></symbol><symbol id="console" viewBox="0 0 100 100"><path fill="#fefdef" d="M75,82H25c-3.85,0-7-3.15-7-7V25c0-3.85,3.15-7,7-7h50c3.85,0,7,3.15,7,7v50 C82,78.85,78.85,82,75,82z"/><path fill="#ceccbe" d="M82,29v-4c0-3.85-3.15-7-7-7H25c-3.85,0-7,3.15-7,7v4H82z"/><path fill="#ceccbe" d="M18,74v1c0,3.85,3.15,7,7,7h50c3.85,0,7-3.15,7-7v-1H18z"/><g><path fill="#1f212b" d="M75,17H25c-4.411,0-8,3.589-8,8v50c0,4.411,3.589,8,8,8h50c4.411,0,8-3.589,8-8V25 C83,20.589,79.411,17,75,17z M75,81H25c-3.309,0-6-2.691-6-6h8.5c0.277,0,0.5-0.224,0.5-0.5S27.776,74,27.5,74H19V29h40.5 c0.277,0,0.5-0.224,0.5-0.5S59.776,28,59.5,28H19v-3c0-3.309,2.691-6,6-6h50c3.309,0,6,2.691,6,6v3h-7.5 c-0.276,0-0.5,0.224-0.5,0.5s0.224,0.5,0.5,0.5H81v46C81,78.309,78.309,81,75,81z"/><path fill="#1f212b" d="M62.5,29h6c0.277,0,0.5-0.224,0.5-0.5S68.776,28,68.5,28h-6c-0.276,0-0.5,0.224-0.5,0.5 S62.224,29,62.5,29z"/><path fill="#1f212b" d="M30.5,74c-0.276,0-0.5,0.224-0.5,0.5s0.224,0.5,0.5,0.5H82v-1H30.5z"/><path fill="#1f212b" d="M34,58.742c0-0.378,0.145-0.663,0.436-0.853l9.433-6.37l-9.433-6.41 C34.145,44.921,34,44.636,34,44.258c0-0.325,0.132-0.616,0.397-0.872C34.66,43.128,34.937,43,35.229,43 c0.184,0,0.343,0.054,0.476,0.162l10.661,7.221C46.789,50.682,47,51.06,47,51.52s-0.211,0.826-0.634,1.096l-10.661,7.221 C35.571,59.946,35.413,60,35.229,60c-0.291,0-0.568-0.128-0.832-0.385C34.132,59.358,34,59.066,34,58.742z"/><path fill="#1f212b" d="M51,58.884c0-0.347,0.095-0.632,0.283-0.857c0.19-0.226,0.432-0.339,0.731-0.339h12.972 c0.27,0,0.506,0.113,0.71,0.339C65.898,58.253,66,58.538,66,58.884c0,0.319-0.102,0.583-0.304,0.797 C65.493,59.893,65.256,60,64.986,60H52.014C51.339,60,51,59.628,51,58.884z"/></g></symbol><symbol id="css3" viewBox="0 0 128 128"><path d="M8.76 1l10.055 112.883 45.118 12.58 45.244-12.626 10.063-112.837h-110.48zm89.591 25.862l-3.347 37.605.01.203-.014.467v-.004l-2.378 26.294-.262 2.336-28.36 7.844v.001l-.022.019-28.311-7.888-1.917-21.739h13.883l.985 11.054 15.386 4.17-.004.008v-.002l15.443-4.229 1.632-18.001h-32.282999999999994l-.277-3.043-.631-7.129-.331-3.828h34.748999999999995l1.264-14h-52.926l-.277-3.041-.63-7.131-.332-3.828h69.281l-.331 3.862z"/></symbol><symbol id="details-pane" viewBox="0 0 100 100"><path fill="#fefdef" d="M15 22H85V78H15z"/><path fill="#78a2d2" d="M21 47H29V55H21zM21 62H29V70H21zM21 32H29V40H21zM54 47H62V55H54zM54 62H62V70H54zM54 32H62V40H54z"/><path fill="#1f212b" d="M85,79H15c-0.552,0-1-0.448-1-1V22c0-0.552,0.448-1,1-1h70c0.553,0,1,0.448,1,1v56 C86,78.552,85.553,79,85,79z M16,77h68V23H16V77z"/><path fill="#1f212b" d="M23.5 27h-8c-.276 0-.5-.224-.5-.5s.224-.5.5-.5h8c.276 0 .5.224.5.5S23.776 27 23.5 27zM28.5 27h-2c-.276 0-.5-.224-.5-.5s.224-.5.5-.5h2c.276 0 .5.224.5.5S28.776 27 28.5 27zM84.5 27h-53c-.276 0-.5-.224-.5-.5s.224-.5.5-.5h53c.276 0 .5.224.5.5S84.776 27 84.5 27zM29 56h-8c-.552 0-1-.448-1-1v-8c0-.552.448-1 1-1h8c.552 0 1 .448 1 1v8C30 55.552 29.552 56 29 56zM22 54h6v-6h-6V54zM29 71h-8c-.552 0-1-.448-1-1v-8c0-.552.448-1 1-1h8c.552 0 1 .448 1 1v8C30 70.552 29.552 71 29 71zM22 69h6v-6h-6V69zM29 41h-8c-.552 0-1-.448-1-1v-8c0-.552.448-1 1-1h8c.552 0 1 .448 1 1v8C30 40.552 29.552 41 29 41zM22 39h6v-6h-6V39zM62 56h-8c-.553 0-1-.448-1-1v-8c0-.552.447-1 1-1h8c.553 0 1 .448 1 1v8C63 55.552 62.553 56 62 56zM55 54h6v-6h-6V54zM62 71h-8c-.553 0-1-.448-1-1v-8c0-.552.447-1 1-1h8c.553 0 1 .448 1 1v8C63 70.552 62.553 71 62 71zM55 69h6v-6h-6V69zM62 41h-8c-.553 0-1-.448-1-1v-8c0-.552.447-1 1-1h8c.553 0 1 .448 1 1v8C63 40.552 62.553 41 62 41zM55 39h6v-6h-6V39zM46.5 35h-14c-.276 0-.5-.224-.5-.5s.224-.5.5-.5h14c.276 0 .5.224.5.5S46.776 35 46.5 35zM42.5 38h-10c-.276 0-.5-.224-.5-.5s.224-.5.5-.5h10c.276 0 .5.224.5.5S42.776 38 42.5 38zM44.5 50h-12c-.276 0-.5-.224-.5-.5s.224-.5.5-.5h12c.276 0 .5.224.5.5S44.776 50 44.5 50zM45.5 53h-13c-.276 0-.5-.224-.5-.5s.224-.5.5-.5h13c.276 0 .5.224.5.5S45.776 53 45.5 53zM41.5 65h-9c-.276 0-.5-.224-.5-.5s.224-.5.5-.5h9c.276 0 .5.224.5.5S41.776 65 41.5 65zM46.5 68h-14c-.276 0-.5-.224-.5-.5s.224-.5.5-.5h14c.276 0 .5.224.5.5S46.776 68 46.5 68zM78.5 35h-13c-.276 0-.5-.224-.5-.5s.224-.5.5-.5h13c.276 0 .5.224.5.5S78.776 35 78.5 35zM72.5 38h-7c-.276 0-.5-.224-.5-.5s.224-.5.5-.5h7c.276 0 .5.224.5.5S72.776 38 72.5 38zM78.5 50h-13c-.276 0-.5-.224-.5-.5s.224-.5.5-.5h13c.276 0 .5.224.5.5S78.776 50 78.5 50zM75.5 53h-10c-.276 0-.5-.224-.5-.5s.224-.5.5-.5h10c.276 0 .5.224.5.5S75.776 53 75.5 53zM76.5 65h-11c-.276 0-.5-.224-.5-.5s.224-.5.5-.5h11c.276 0 .5.224.5.5S76.776 65 76.5 65zM79.5 68h-14c-.276 0-.5-.224-.5-.5s.224-.5.5-.5h14c.276 0 .5.224.5.5S79.776 68 79.5 68z"/></symbol><symbol id="developer" viewBox="0 0 100 100"><path fill="#ead6c7" d="M59,87V76h6c5.523,0,10-4.477,10-10v-8l6.63-2.947c1.262-0.561,1.751-2.097,1.046-3.284 l-6.507-10.952c-0.239-0.433-0.387-0.908-0.455-1.398C73.726,25.059,61.407,14,46.5,14l0,0C30.208,14,17,27.208,17,43.5 c0,1.531,0.123,3.032,0.348,4.5h0.019c0.652,4.266,2.2,8.235,4.475,11.691C25.139,64.696,27,70.506,27,76.499V87H59z"/><path fill="#1f212b" d="M59,88c-0.552,0-1-0.447-1-1V76c0-0.553,0.448-1,1-1h6c4.962,0,9-4.037,9-9v-8 c0-0.396,0.233-0.753,0.594-0.914l6.63-2.947c0.346-0.153,0.599-0.437,0.714-0.797c0.115-0.359,0.072-0.736-0.122-1.062 l-6.507-10.952c-0.307-0.556-0.498-1.143-0.585-1.772C72.786,25.557,60.652,15,46.5,15C30.785,15,18,27.785,18,43.5 c0,1.367,0.104,2.77,0.31,4.169c0.021,0.058,0.036,0.118,0.045,0.18c0.625,4.087,2.08,7.887,4.322,11.293 C26.16,64.428,28,70.43,28,76.499V87c0,0.553-0.448,1-1,1s-1-0.447-1-1V76.499c0-5.678-1.727-11.299-4.993-16.258 c-2.369-3.597-3.916-7.602-4.6-11.905c-0.022-0.059-0.038-0.121-0.047-0.185C16.121,46.592,16,45.026,16,43.5 C16,26.683,29.682,13,46.5,13c15.145,0,28.13,11.299,30.205,26.282c0.053,0.386,0.167,0.74,0.34,1.053l6.491,10.924 c0.481,0.811,0.594,1.791,0.308,2.69c-0.286,0.898-0.945,1.634-1.807,2.018L76,58.649V66c0,6.065-4.935,11-11,11h-5v10 C60,87.553,59.552,88,59,88z"/><path fill="#1f212b" d="M59.5,76h-9c-0.276,0-0.5-0.224-0.5-0.5s0.224-0.5,0.5-0.5h9c0.276,0,0.5,0.224,0.5,0.5 S59.776,76,59.5,76z"/><path fill="#1f212b" d="M48.5,76h-2c-0.276,0-0.5-0.224-0.5-0.5s0.224-0.5,0.5-0.5h2c0.276,0,0.5,0.224,0.5,0.5 S48.776,76,48.5,76z"/><path fill="none" stroke="#25262f" stroke-linecap="round" stroke-linejoin="round" stroke-miterlimit="10" stroke-width="2" d="M37.242,31.718c-2.645,2.645-5.29,5.29-7.934,7.934c2.645,2.645,5.29,5.29,7.934,7.934"/><path fill="none" stroke="#25262f" stroke-linecap="round" stroke-linejoin="round" stroke-miterlimit="10" stroke-width="2" d="M56.066,31.718c2.645,2.645,5.29,5.29,7.934,7.934c-2.645,2.645-5.29,5.29-7.934,7.934"/><path fill="none" stroke="#25262f" stroke-linecap="round" stroke-linejoin="round" stroke-miterlimit="10" stroke-width="2" d="M49.983,28c-2.287,7.981-4.575,15.962-6.862,23.943"/></symbol><symbol id="edit-property" viewBox="0 0 100 100"><path fill="#fefdef" d="M74,81H26c-3.85,0-7-3.15-7-7V26c0-3.85,3.15-7,7-7h48c3.85,0,7,3.15,7,7v48C81,77.85,77.85,81,74,81	z"/><path fill="#ceccbe" d="M81,30v-4c0-3.85-3.15-7-7-7H26c-3.85,0-7,3.15-7,7v4H81z"/><path fill="#ceccbe" d="M19,73v1c0,3.85,3.15,7,7,7h48c3.85,0,7-3.15,7-7v-1H19z"/><path fill="#1f212b" d="M74,18H26c-4.411,0-8,3.589-8,8v48c0,4.411,3.589,8,8,8h48c4.411,0,8-3.589,8-8V26	C82,21.589,78.411,18,74,18z M74,80H26c-3.309,0-6-2.691-6-6h8.5c0.277,0,0.5-0.224,0.5-0.5S28.776,73,28.5,73H20V30h38.5	c0.277,0,0.5-0.224,0.5-0.5S58.776,29,58.5,29H20v-3c0-3.309,2.691-6,6-6h48c3.309,0,6,2.691,6,6v3h-7.5c-0.276,0-0.5,0.224-0.5,0.5	s0.224,0.5,0.5,0.5H80v44C80,77.309,77.309,80,74,80z"/><path fill="#1f212b" d="M61.5,30h6c0.277,0,0.5-0.224,0.5-0.5S67.776,29,67.5,29h-6c-0.276,0-0.5,0.224-0.5,0.5	S61.224,30,61.5,30z"/><path fill="#1f212b" d="M71.28,80.562c-0.128,0-0.256-0.049-0.354-0.146l-2.828-2.829c-0.195-0.195-0.195-0.512,0-0.707	s0.512-0.195,0.707,0l2.828,2.829c0.195,0.195,0.195,0.512,0,0.707C71.536,80.514,71.408,80.562,71.28,80.562z"/><polygon fill="#1f212b" points="67.43,79.67 68.844,81.084 67.1,81.414"/><path fill="#1f212b" d="M28.5,42c-0.132,0-0.26-0.053-0.354-0.146l-3-3c-0.195-0.195-0.195-0.512,0-0.707	s0.512-0.195,0.707,0l2.613,2.613l4.649-5.58c0.177-0.211,0.492-0.241,0.705-0.063c0.212,0.177,0.241,0.492,0.064,0.704l-5,6	c-0.09,0.107-0.221,0.173-0.362,0.179C28.515,42,28.507,42,28.5,42z"/><path fill="#1f212b" d="M65.5,39h-30c-0.276,0-0.5-0.224-0.5-0.5s0.224-0.5,0.5-0.5h30c0.276,0,0.5,0.224,0.5,0.5	S65.776,39,65.5,39z"/><path fill="#1f212b" d="M74.5,39h-6c-0.276,0-0.5-0.224-0.5-0.5s0.224-0.5,0.5-0.5h6c0.276,0,0.5,0.224,0.5,0.5	S74.776,39,74.5,39z"/><path fill="#1f212b" d="M28.5,54c-0.132,0-0.26-0.053-0.354-0.146l-3-3c-0.195-0.195-0.195-0.512,0-0.707	s0.512-0.195,0.707,0l2.613,2.613l4.649-5.58c0.177-0.211,0.492-0.241,0.705-0.063c0.212,0.177,0.241,0.492,0.064,0.704l-5,6	c-0.09,0.107-0.221,0.173-0.362,0.179C28.515,54,28.507,54,28.5,54z"/><path fill="#1f212b" d="M55.5,51h-20c-0.276,0-0.5-0.224-0.5-0.5s0.224-0.5,0.5-0.5h20c0.276,0,0.5,0.224,0.5,0.5	S55.776,51,55.5,51z"/><path fill="#1f212b" d="M63.5,51h-5c-0.276,0-0.5-0.224-0.5-0.5s0.224-0.5,0.5-0.5h5c0.276,0,0.5,0.224,0.5,0.5	S63.776,51,63.5,51z"/><path fill="#1f212b" d="M74.5,51h-8c-0.276,0-0.5-0.224-0.5-0.5s0.224-0.5,0.5-0.5h8c0.276,0,0.5,0.224,0.5,0.5	S74.776,51,74.5,51z"/><path fill="#1f212b" d="M28.5,66c-0.132,0-0.26-0.053-0.354-0.146l-3-3c-0.195-0.195-0.195-0.512,0-0.707	s0.512-0.195,0.707,0l2.613,2.613l4.649-5.58c0.177-0.212,0.492-0.241,0.705-0.063c0.212,0.177,0.241,0.492,0.064,0.704l-5,6	c-0.09,0.107-0.221,0.173-0.362,0.179C28.515,66,28.507,66,28.5,66z"/><path fill="#1f212b" d="M60.5,63h-25c-0.276,0-0.5-0.224-0.5-0.5s0.224-0.5,0.5-0.5h25c0.276,0,0.5,0.224,0.5,0.5	S60.776,63,60.5,63z"/><circle cx="74.5" cy="74.5" r="14.5" fill="#fef6aa"/><path fill="#fcba7f" d="M67.489,81l0.773-3.576l10.871-10.871c0,0,1.045-0.338,2.106,0.723	c1.061,1.061,0.723,2.106,0.723,2.106L71.09,80.253L67.489,81z"/><path fill="#f37e98" d="M77.686,68l1.447-1.447c0,0,1.045-0.338,2.106,0.723s0.723,2.106,0.723,2.106l-1.473,1.472L77.686,68	z"/><path fill="#1f212b" d="M74.5,90C65.953,90,59,83.047,59,74.5S65.953,59,74.5,59S90,65.953,90,74.5S83.047,90,74.5,90z M74.5,61C67.056,61,61,67.056,61,74.5S67.056,88,74.5,88S88,81.944,88,74.5S81.944,61,74.5,61z"/><path fill="#1f212b" d="M67.366,82.025c-0.228,0-0.449-0.09-0.618-0.259c-0.241-0.24-0.321-0.587-0.21-0.906l0,0l1.225-3.522	c0.041-0.12,0.111-0.234,0.204-0.326L78.779,66.2c0.056-0.056,0.125-0.098,0.2-0.122c0.054-0.02,1.352-0.417,2.613,0.845	c1.262,1.262,0.862,2.558,0.845,2.613c-0.024,0.075-0.066,0.144-0.122,0.2l-10.871,10.87c-0.053,0.053-0.118,0.094-0.189,0.119	l-3.601,1.252C67.559,82.009,67.462,82.025,67.366,82.025z M67.482,81.188L67.482,81.188L67.482,81.188z M79.381,67.012	L68.674,77.719l-1.109,3.229l3.253-1.131l10.686-10.686c0.03-0.231,0.034-0.85-0.619-1.502C80.235,66.979,79.62,66.98,79.381,67.012	z"/><path fill="#1f212b" d="M80.578,71.265c-0.128,0-0.256-0.049-0.354-0.146l-2.828-2.829c-0.195-0.195-0.195-0.512,0-0.707	s0.512-0.195,0.707,0l2.829,2.829c0.195,0.195,0.195,0.512,0,0.707C80.834,71.216,80.706,71.265,80.578,71.265z"/><path fill="#1f212b" d="M31.5,73c-0.276,0-0.5,0.224-0.5,0.5s0.224,0.5,0.5,0.5h28.525c0.011-0.335,0.018-0.671,0.052-1H31.5	z"/></symbol><symbol id="git" viewBox="0 0 999.937 999.937"><path d="M0 499.968c0-138.012 48.825-255.843 146.476-353.493C244.125 48.825 361.956 0 499.969 0 637.98 0 755.811 48.825 853.462 146.475c97.649 97.65 146.475 215.481 146.475 353.493s-48.825 255.843-146.475 353.493c-97.65 97.65-215.481 146.476-353.493 146.476-138.013 0-255.844-48.825-353.493-146.476C48.825 755.812 0 637.979 0 499.968zm54.684 0c0 122.389 43.617 227.199 130.851 314.434 87.234 87.233 192.045 130.851 314.434 130.851 122.388 0 227.199-43.617 314.433-130.851 87.234-87.234 130.851-192.045 130.851-314.434 0-122.388-43.616-227.199-130.851-314.433C727.168 98.301 622.356 54.684 499.969 54.684c-122.389 0-227.199 43.617-314.434 130.851C98.301 272.769 54.684 377.58 54.684 499.968zm140.617 107.415c-2.604-2.604-2.604-5.208 0-7.812 5.207-5.208 11.718-7.161 19.529-5.859 7.812 1.302 12.369 2.604 13.671 3.906 9.114 3.906 19.205 12.694 30.271 26.366 11.066 13.671 19.855 23.11 26.366 28.318 31.248 26.04 63.146 27.993 95.696 5.859 2.604-9.114 6.836-16.926 12.694-23.437 5.858-6.51 11.393-11.066 16.601-13.671 5.209-2.604 14.323-6.51 27.343-11.718-42.967-3.906-77.795-11.393-104.486-22.46s-47.849-25.063-63.473-41.989c-20.832-23.436-33.527-54.033-38.084-91.791-4.558-37.758-1.628-72.261 8.789-103.509 7.812-19.53 18.879-37.106 33.2-52.731-10.416-32.55-8.463-69.657 5.859-111.321 41.664 2.604 79.422 16.926 113.274 42.966 65.1-16.926 132.804-17.577 203.111-1.953 9.114-6.51 23.111-14.647 41.989-24.413 18.879-9.765 42.641-15.299 71.285-16.601 5.208 14.322 8.789 31.248 10.742 50.778s.977 37.758-2.929 54.684c29.945 31.248 45.569 72.912 46.871 124.992 0 41.664-7.16 76.167-21.482 103.509s-39.711 50.127-76.167 68.354c-24.738 11.719-57.288 18.879-97.65 21.483 18.229 9.114 31.574 18.554 40.037 28.319 8.464 9.765 13.997 25.063 16.602 45.895v61.521l1.952 59.566c3.906 6.511 8.464 12.044 13.672 16.602 5.208 4.557 9.765 7.812 13.671 9.765 3.905 1.953 5.208 4.883 3.905 8.789-1.302 3.906-6.51 5.859-15.623 5.859-22.135 0-39.711-7.812-52.731-23.437-3.906-6.51-5.859-14.321-5.859-23.436v-93.744c0-10.416-2.604-17.903-7.812-22.46-5.208-4.558-10.416-7.487-15.624-8.789v123.039c0 22.134 2.604 36.456 7.812 42.966s8.463 13.021 9.766 19.53c1.302 1.302.325 2.278-2.93 2.929-3.254.65-8.788-.325-16.601-2.929-16.926-3.906-28.644-12.695-35.154-26.366-6.51-13.671-9.765-28.319-9.765-43.943V667.926H488.25v121.086c0 15.624-3.256 30.598-9.766 44.919-9.113 18.229-26.04 27.993-50.777 29.295-3.906-1.302-5.859-2.604-5.859-3.905 1.302-1.303 5.208-7.812 11.718-19.53 1.302-2.604 2.93-7.812 4.883-15.624 1.954-7.812 2.93-16.926 2.93-27.342v-123.04c-5.208 1.302-10.091 4.231-14.648 8.789s-6.836 12.044-6.836 22.46v93.744c0 9.113-1.953 16.926-5.859 23.436-11.718 15.624-29.295 23.437-52.73 23.437-9.114 0-14.322-1.953-15.624-5.859-1.303-2.604-.977-4.883.977-6.836s4.883-4.232 8.789-6.836c3.906-2.604 6.51-4.558 7.812-5.859 5.208-3.906 9.113-9.114 11.718-15.624 3.906-5.208 4.882-18.879 2.929-41.013s-2.279-36.456-.977-42.966c-33.853 11.718-68.355 5.858-103.51-17.577-10.416-10.416-20.832-25.39-31.248-44.919-7.812-14.323-23.436-31.249-46.871-50.779z"/></symbol><symbol id="github" viewBox="0 0 64 64"><path fill="none" d="M0 0h64v64H0z"/><path d="M27.009 58.54C14.49 56.196 5.001 45.198 5.001 32 5 17.099 17.099 5 32 5s27 12.098 27 27c0 13.195-9.484 24.19-22 26.538V46c0-2.66-.959-5.098-2.036-7h.636c5.74 0 10.4-3.764 10.4-8.4v-1.293c0-2.96-1.412-5.657-3.72-7.674 1.297-3.148.446-6.634.446-6.634s-3.517 1.027-5.586 3.788a16.886 16.886 0 0 0-5.14-.788c-1.814 0-3.548.28-5.14.788C24.792 16.028 21.275 15 21.275 15s-.851 3.486.447 6.634c-2.309 2.017-3.721 4.713-3.721 7.674V30.6c0 4.637 4.66 8.4 10.4 8.4h.636c-.941 1.662-1.791 3.733-1.991 6l-.004 1.244c-2.168.103-5.551-.264-7.041-3.243-2-4-6-1-6-1 3 0 3.045 4 5.045 6 1.983 1.984 5.697 2.219 7.986 2.15l-.023 8.389Z"/></symbol><symbol id="gulp" viewBox="0 0 5105.4 5105.4"><path d="M0 0h5105.4v5105.4H0z"/><path fill="#fff" stroke="#fff" stroke-miterlimit="10" stroke-width="13.386" d="M1766.5 2586.7c-2.4 3.5-6.6 14.4-12.8 32.9-6.2 18.5-13.7 41.6-22.5 69.4-8.8 27.8-18.4 59-28.6 93.4-10.3 34.4-20.9 69.6-31.7 105.4-10.9 35.9-21.3 71-31.3 105.5-10 34.4-19 65.6-26.9 93.4-7.9 27.8-14.5 51.1-19.8 70-5.3 18.8-8.5 29.9-9.7 33.4-2.9 11.1-7.6 23.5-14.1 37.1-6.5 13.6-14.1 26.4-22.9 38.6-8.8 12.2-18.5 22.3-29.1 30.3-10.6 8-21.5 12-32.6 12-18.8 0-32.5-6.3-41-18.8s-12.8-35.5-12.8-68.9v-14.6c0-4.9.3-10.1.9-15.6.6-11.1 5-32 13.2-62.7 8.2-30.6 18.1-65.2 29.5-103.9s23.8-78.6 37-120.1c13.2-41.4 25.1-78.5 35.7-111.2-31.2 34.8-64.9 69.4-101.4 103.9-36.4 34.5-73.8 65.4-111.9 92.9-38.2 27.5-76.7 50-115.5 67.3-38.8 17.4-76.1 26.1-111.9 26.1-41.1 0-76.5-9.1-106.2-27.1-29.7-18.1-54.2-41.8-73.6-71s-33.8-62.3-43.2-99.2c-9.4-36.9-14.1-73.8-14.1-110.7v-13.6c0-4.2.3-8.3.9-12.5 3.5-66.8 13.1-135.4 28.6-205.7 15.6-70.3 36-140.3 61.3-209.8 25.3-69.6 54.5-137.6 87.7-204.1s69.3-129.3 108.4-188.4c39.1-59.1 80.6-113.6 124.7-163.4 44.1-49.8 89.3-92.6 135.7-128.4 46.4-35.8 93.3-63.8 140.6-84 47.3-20.2 94.2-30.3 140.6-30.3 53.5 0 105.2 14.6 155.1 43.8 49.9 29.2 96.6 76.6 140.1 142 10 14.6 16.3 29.4 18.9 44.4 2.6 15 4 29.1 4 42.3 0 31.3-7.5 56-22.5 74.1-15 18.1-32.8 27.1-53.3 27.1-18.8 0-36.3-9.9-52.4-29.8-16.2-19.8-34.2-48.2-54.2-85.1-18.8-33.4-39.5-57.6-62.1-72.6-22.6-15-47.2-22.4-73.6-22.4-41.1 0-85.1 17.1-131.8 51.2-46.7 34.1-93 79.2-138.8 135.2-45.8 56-89.8 120-131.8 192.1-42 72-79.2 145.8-111.5 221.3s-58 150-77.1 223.4c-19.1 73.4-28.6 139.4-28.6 197.9 0 19.5 1.3 39.5 4 60s7.6 39.2 15 55.9c7.3 16.7 17.3 30.5 30 41.2 12.6 10.8 28.6 16.2 48 16.2 21.7 0 46.4-7.3 74-21.9 27.6-14.6 56.3-33.7 85.9-57.4 29.7-23.7 59.5-50.5 89.5-80.4 30-29.9 57.9-60.2 83.7-90.8 25.8-30.6 48.8-60 68.7-88.2 20-28.2 35-52.7 44.9-73.6l82-245.3c10-26.4 23.1-45.2 39.2-56.4 16.2-11.1 32.8-16.7 49.8-16.7 8.2 0 16.4 1.4 24.7 4.2 8.2 2.8 15.6 7.1 22 13.1 6.5 5.9 11.6 13.6 15.4 23 3.8 9.4 5.7 20.4 5.7 32.9 0 33.4-2.9 64.7-8.8 94-5.9 29.3-13.4 57.8-22.5 85.6-9.1 27.8-19.2 55.9-30.4 84-11 28-21.9 57.4-32.4 88.1zM2877.9 2791.3c-25.9 34.8-56 68.7-90.3 101.8-34.4 33.1-69.8 62.5-106.2 88.2-36.4 25.7-72.3 46.4-107.5 62.1-35.3 15.7-67 23.5-95.2 23.5s-51.1-9.4-68.8-28.2c-17.6-18.8-26.4-50.8-26.4-96.1 0-32 4.7-69.3 14.1-111.7-15.3 27.2-34.4 54.7-57.3 82.5-22.9 27.8-49.1 53.2-78.5 76.2s-62.3 41.6-98.7 55.8c-36.4 14.3-76.1 21.4-119 21.4-19.4 0-38.1-2.4-56-7.3s-33.6-13.2-47.1-25-24.4-27.6-32.6-47.5c-8.2-19.8-12.3-44.7-12.3-74.6 0-.7 1.2-11.3 3.5-31.8s9.8-52.9 22.5-97.1c12.6-44.2 32.2-101.4 58.6-171.7 26.5-70.3 63.8-155.5 111.9-255.8 12.3-26.4 26.6-45.4 42.7-56.9 16.2-11.5 33.6-17.2 52.4-17.2 8.2 0 16.7 1.2 25.6 3.6 8.8 2.5 17 6.3 24.7 11.5 7.6 5.2 13.8 11.8 18.5 19.8 4.7 8 7.1 17.2 7.1 27.7 0 7-.9 13.6-2.7 19.8-2.9 11.9-9.2 27.3-19 46.5-9.7 19.2-21 41.1-33.9 65.8-12.9 24.7-26.6 51.3-41 79.9-14.4 28.5-27.8 58.1-40.1 88.7s-22.9 61.8-31.7 93.4c-8.8 31.7-13.8 62.5-15 92.4 0 12.5 2.9 24 8.8 34.5 5.9 10.4 15.6 15.7 29.1 15.7 38.2 0 74.6-12.5 109.3-37.6 34.7-25 66.7-56.2 96.1-93.4 29.4-37.2 56-77.2 79.8-120.1 23.8-42.8 43.7-81.9 59.5-117.4 11.2-23.7 21-49.1 29.5-76.2s17.8-52.2 27.8-75.2 21.4-42.1 34.4-57.4c12.9-15.3 29.1-23 48.5-23 21.1 0 37.9 8 50.2 24 12.3 16 18.5 35.2 18.5 57.4 0 12.5-3.9 29.8-11.9 51.7-8 21.9-17.9 47-30 75.2-12 28.2-25.1 58.3-39.2 90.3-14.1 32-27.2 64.6-39.2 97.6-12.1 33.1-22 65.4-30 97.1-7.9 31.7-11.9 61.1-11.9 88.2 0 25.1 12.9 37.6 38.8 37.6 18.2 0 40.8-6.3 67.9-18.8 27.1-12.5 55.4-30.1 85.1-52.7 29.7-22.6 59.3-49.2 89-79.9 29.7-30.6 56-63.7 78.9-99.2l8.7 141.9z"/><path fill="#fff" stroke="#fff" stroke-miterlimit="10" stroke-width="13.386" d="M2905.3 2739.1c-6.5 16-12.8 34.6-19 55.9-6.2 21.2-9.2 40.2-9.2 56.9 0 10.4 1.8 18.8 5.3 25.1 3.5 6.3 10.3 9.4 20.3 9.4 12.3 0 27.7-4.3 46.3-13.1 18.5-8.7 38.5-20.2 59.9-34.5 21.5-14.2 43.8-30.6 67-49.1 23.2-18.4 46.3-37.6 69.2-57.4 22.9-19.9 44.8-39.7 65.7-59.5 20.9-19.9 39.5-38.1 56-54.8 4.7-4.9 10.3-8.4 16.7-10.4 6.4-2.1 12-3.1 16.7-3.1 11.7 0 21.5 4.9 29.1 14.6 7.6 9.7 11.4 22.6 11.4 38.6 0 14.6-4.1 31-12.3 49.1-8.2 18.1-22.6 35.9-43.2 53.2-37.6 41.1-75.5 80-113.7 116.9-38.2 36.9-76.2 69.4-114.1 97.6-37.9 28.2-75.5 50.6-112.8 67.4-37.3 16.7-73.6 25-108.9 25-24.1 0-44.2-3.8-60.4-11.5-16.2-7.7-29.1-18.1-38.8-31.3-9.7-13.2-16.6-28.9-20.7-47-4.1-18.1-6.2-37.2-6.2-57.4 0-34.1 4.3-69.1 12.8-104.9 8.5-35.8 18.6-68.7 30.4-98.6 20.6-54.3 41.4-108.2 62.6-161.8 21.1-53.6 40.5-102.7 58.2-147.2l267-673.4c10.6-27.1 24.8-46.3 42.8-57.4 17.9-11.1 36-16.7 54.2-16.7 18.2 0 34.8 5.9 49.8 17.7 15 11.8 22.5 31 22.5 57.4 0 12.5-2.5 25.8-7.5 39.7-5 13.9-11.3 28.9-18.9 44.9-14.7 32.7-32.2 72.7-52.4 120-20.3 47.3-42 98.8-65.2 154.5-23.2 55.7-47 113.6-71.4 173.8-24.4 60.2-48.2 118.8-71.4 175.9-23.2 57.1-44.9 111.2-65.2 162.3-20.5 51.2-38 95.6-52.6 133.2z"/><path fill="#fff" stroke="#fff" stroke-miterlimit="10" stroke-width="13.386" d="M4154.2 2550.1c8.2-5.6 15.9-10.1 22.9-13.6 7-3.5 13.8-5.2 20.3-5.2 12.9 0 22.6 5.8 29.1 17.2 6.5 11.5 9.7 25.6 9.7 42.3 0 18.1-3.9 36.5-11.9 55.3-7.9 18.8-19.8 34.4-35.7 47-62.9 55.7-119 106.5-168.3 152.4-49.4 45.9-95.9 85.4-139.7 118.5-43.8 33.1-86.5 58.6-128.2 76.7-41.7 18.1-86.4 27.1-134 27.1-44.7 0-79.2-9.8-103.6-29.2-24.4-19.5-36.6-46.3-36.6-80.4v-7.8c0-2.4.3-5.4.9-8.9 2.3-20.9 11.5-44.9 27.3-72 15.9-27.1 35-55.3 57.3-84.6s46.1-58.8 71.4-88.7c25.3-29.9 48.6-58.3 70.1-85.1 21.4-26.8 39.2-51.3 53.3-73.6 14.1-22.3 21.2-40.3 21.2-54.3 0-8.4-3-15-8.8-19.8-5.9-4.9-15.6-7.3-29.1-7.3-23.5 0-47.7 6.1-72.7 18.3-25 12.2-49.7 28.5-74 49-24.4 20.5-48.2 44-71.4 70.5-23.2 26.5-44.9 53.9-65.2 82.5-20.3 28.6-38.8 57.2-55.5 86.1-16.7 28.9-31 55.5-42.7 79.9-3.5 7.7-8.5 18.5-15 32.4-6.5 13.9-13.5 29.6-21.1 47-7.7 17.4-15.7 35.3-24.3 53.7-8.5 18.5-16.3 35.9-23.3 52.2-7.1 16.4-13.4 30.9-19 43.9-5.6 12.9-9.6 21.7-11.9 26.6-3 6.3-7.8 18.1-14.6 35.5s-14.5 37.7-23.4 61.1c-8.8 23.3-18.1 47.8-27.7 73.6-9.7 25.8-18.8 50.1-27.3 73.1-8.5 23-16 43.1-22.5 60.5s-10.6 29.2-12.4 35.5c-5.9 18.1-12.8 35.1-20.7 51.2-7.9 16-17 30.1-27.3 42.3-10.3 12.2-22 21.9-35.3 29.2-13.2 7.3-28.1 10.9-44.5 10.9-21.2 0-38.6-5.1-52.5-15.1-13.8-10.1-20.7-29.4-20.7-57.9 0-13.9 1.8-28.2 5.3-42.8 3.5-14.6 8-29.1 13.2-43.3 5.3-14.3 10.7-28.2 16.3-41.7 5.6-13.6 10.7-26.6 15.4-39.2 31.7-69.6 64.1-139.4 97-209.3 32.9-70 64.5-139.2 94.7-207.8 30.3-68.5 58.3-135.9 84.2-202 25.8-66.1 47.3-129.5 64.3-190 4.7-12.5 11.2-30.3 19.4-53.3 8.2-23 17.6-45.6 28.2-67.9 10.6-22.3 22.5-41.6 35.7-57.9 13.2-16.4 27.5-24.5 42.7-24.5 23.5 0 40.5 5.4 51.1 16.2 10.6 10.8 15.9 26.6 15.9 47.5 0 4.2-.6 10.8-1.8 19.8-1.2 9-2.7 18.6-4.4 28.7-1.8 10.1-3.7 19.7-5.7 28.7-2.1 9-4 15.6-5.7 19.8 21.7-23.7 45.2-47.1 70.5-70.5 25.3-23.3 51.4-44.4 78.5-63.2 27-18.8 54.6-34.1 82.8-46 28.2-11.8 56.4-17.7 84.6-17.7 19.4 0 38.6 2.8 57.7 8.4 19.1 5.6 36.1 13.7 51.1 24.5s27.2 24.4 36.6 40.7c9.4 16.4 14.1 35.3 14.1 56.9 0 28.6-7.2 59-21.6 91.4-14.4 32.4-32.5 64.9-54.2 97.6-21.8 32.7-45.3 64.6-70.5 95.5-25.3 31-48.9 59.2-71 84.6-22 25.4-40.5 47-55.5 64.7-15 17.8-22.8 29.8-23.4 36 0 8.4 2.7 15.1 7.9 20.4s14.1 7.8 26.5 7.8c10 0 24.7-5.6 44.1-16.7 19.4-11.1 46.6-30.4 81.5-57.9s79.3-64.4 133.1-110.7c53.8-46.2 120.1-104.5 198.8-174.8z"/></symbol><symbol id="help" viewBox="0 0 100 100"><path fill="#f8e55b" d="M69.654,81.961h-39c-6.6,0-12-5.4-12-12v-39c0-6.6,5.4-12,12-12h39c6.6,0,12,5.4,12,12v39C81.654,76.561,76.254,81.961,69.654,81.961z"/><path fill="#1f212b" d="M69.654,82.961h-39c-7.168,0-13-5.832-13-13v-39c0-7.168,5.832-13,13-13h39c7.168,0,13,5.832,13,13v39C82.654,77.129,76.822,82.961,69.654,82.961z M30.654,19.961c-6.065,0-11,4.935-11,11v39c0,6.065,4.935,11,11,11h39c6.065,0,11-4.935,11-11v-39c0-6.065-4.935-11-11-11H30.654z"/><path fill="#f8e55b" d="M77.154,48.461v18.663c0,5.685-4.652,10.337-10.337,10.337H33.491c-5.685,0-10.337-4.652-10.337-10.337V33.798c0-5.685,4.652-10.337,10.337-10.337h33.663"/><path fill="#1f212b" d="M66.817 77.961H33.49c-5.976 0-10.837-4.861-10.837-10.837V33.798c0-5.976 4.861-10.837 10.837-10.837h33.663c.276 0 .5.224.5.5s-.224.5-.5.5H33.49c-5.424 0-9.837 4.413-9.837 9.837v33.326c0 5.424 4.413 9.837 9.837 9.837h33.326c5.424 0 9.837-4.413 9.837-9.837V48.461c0-.276.224-.5.5-.5s.5.224.5.5v18.663C77.654 73.099 72.792 77.961 66.817 77.961zM77.154 45.961c-.276 0-.5-.224-.5-.5v-4c0-.276.224-.5.5-.5s.5.224.5.5v4C77.654 45.737 77.43 45.961 77.154 45.961zM77.154 39.961c-.276 0-.5-.224-.5-.5v-2c0-.276.224-.5.5-.5s.5.224.5.5v2C77.654 39.737 77.43 39.961 77.154 39.961z"/><path fill="#fdfcee" d="M47.78,55.898c-0.03-0.149-0.045-0.298-0.045-0.448c0-0.149,0-0.298,0-0.448c0-1.166,0.157-2.205,0.471-3.117c0.314-0.912,0.702-1.741,1.166-2.489c0.463-0.747,0.971-1.45,1.525-2.108c0.553-0.657,1.061-1.323,1.525-1.996c0.463-0.673,0.852-1.39,1.166-2.152c0.314-0.763,0.471-1.622,0.471-2.579c0-1.375-0.419-2.526-1.256-3.453c-0.838-0.927-2.078-1.39-3.722-1.39c-1.017,0-1.861,0.075-2.534,0.224c-0.673,0.15-1.233,0.337-1.682,0.561c-0.448,0.224-0.807,0.486-1.076,0.785c-0.269,0.299-0.509,0.599-0.718,0.897c0.718,0.03,1.323,0.307,1.816,0.83c0.494,0.523,0.74,1.188,0.74,1.996c0,0.897-0.262,1.675-0.785,2.332c-0.523,0.658-1.383,0.987-2.579,0.987c-0.957,0-1.727-0.337-2.31-1.009c-0.583-0.673-0.875-1.517-0.875-2.534c0-0.837,0.171-1.719,0.514-2.646c0.343-0.926,0.94-1.786,1.791-2.579c0.851-0.792,1.977-1.45,3.379-1.973c1.402-0.523,3.178-0.785,5.327-0.785c1.492,0,2.894,0.112,4.207,0.337c1.314,0.224,2.462,0.628,3.446,1.211c0.985,0.583,1.76,1.361,2.327,2.332c0.567,0.972,0.851,2.191,0.851,3.656c0,1.346-0.238,2.489-0.713,3.431c-0.475,0.942-1.077,1.779-1.804,2.512c-0.728,0.733-1.515,1.406-2.362,2.018c-0.847,0.613-1.658,1.271-2.434,1.973c-0.775,0.703-1.44,1.503-1.993,2.399c-0.553,0.897-0.89,1.973-1.009,3.229H47.78z M52.938,63.657c0,0.986-0.344,1.824-1.031,2.512c-0.689,0.688-1.525,1.031-2.512,1.031c-0.957,0-1.787-0.344-2.489-1.031c-0.703-0.688-1.054-1.525-1.054-2.512c0-0.957,0.351-1.786,1.054-2.489c0.702-0.702,1.532-1.054,2.489-1.054c0.987,0,1.824,0.352,2.512,1.054C52.594,61.871,52.938,62.701,52.938,63.657z"/><path fill="#1f212b" d="M49.394,67.7c-1.088,0-2.043-0.395-2.839-1.174c-0.799-0.782-1.204-1.747-1.204-2.869c0-1.089,0.404-2.046,1.2-2.843c0.797-0.797,1.754-1.201,2.843-1.201c1.121,0,2.086,0.405,2.869,1.204c0.779,0.797,1.174,1.752,1.174,2.839c0,1.12-0.396,2.084-1.178,2.865C51.477,67.304,50.513,67.7,49.394,67.7z M49.394,60.614c-0.826,0-1.524,0.297-2.136,0.908c-0.61,0.611-0.907,1.31-0.907,2.136c0,0.855,0.295,1.56,0.903,2.154c0.611,0.598,1.311,0.889,2.14,0.889c0.856,0,1.562-0.29,2.159-0.885c0.595-0.595,0.885-1.301,0.885-2.158c0-0.828-0.291-1.528-0.889-2.14C50.953,60.91,50.248,60.614,49.394,60.614z M50.606,56.398H47.78c-0.238,0-0.442-0.167-0.49-0.4c-0.037-0.182-0.055-0.365-0.055-0.548v-0.448c0-1.215,0.167-2.318,0.498-3.28c0.326-0.946,0.735-1.817,1.214-2.59c0.474-0.765,1.001-1.494,1.566-2.167c0.534-0.634,1.038-1.292,1.497-1.958c0.441-0.642,0.817-1.334,1.115-2.059c0.288-0.698,0.433-1.501,0.433-2.389c0-1.258-0.369-2.278-1.127-3.118c-0.735-0.813-1.862-1.226-3.351-1.226c-0.973,0-1.79,0.071-2.426,0.212c-0.63,0.141-1.158,0.315-1.566,0.52c-0.39,0.195-0.702,0.421-0.928,0.672c-0.065,0.073-0.129,0.146-0.191,0.219c0.482,0.159,0.911,0.437,1.282,0.83c0.582,0.616,0.876,1.403,0.876,2.339c0,1.009-0.301,1.898-0.894,2.644c-0.62,0.78-1.62,1.175-2.97,1.175c-1.104,0-2.008-0.397-2.688-1.182c-0.661-0.764-0.997-1.726-0.997-2.861c0-0.894,0.184-1.843,0.545-2.82c0.369-0.997,1.015-1.929,1.918-2.771c0.895-0.833,2.088-1.532,3.545-2.076c1.453-0.542,3.304-0.817,5.501-0.817c1.513,0,2.957,0.116,4.292,0.344c1.365,0.232,2.583,0.661,3.617,1.273c1.054,0.624,1.896,1.468,2.504,2.51c0.61,1.045,0.919,2.36,0.919,3.907c0,1.417-0.258,2.647-0.767,3.656c-0.496,0.983-1.134,1.872-1.896,2.639c-0.743,0.748-1.558,1.445-2.424,2.072c-0.826,0.598-1.631,1.25-2.392,1.938c-0.737,0.668-1.377,1.439-1.903,2.292c-0.51,0.828-0.826,1.842-0.937,3.013C51.079,56.201,50.864,56.398,50.606,56.398z M48.235,55.398h1.926c0.16-1.138,0.504-2.143,1.028-2.992c0.575-0.932,1.276-1.775,2.083-2.507c0.788-0.713,1.622-1.388,2.477-2.008c0.822-0.595,1.596-1.256,2.3-1.965c0.688-0.693,1.264-1.495,1.713-2.385c0.438-0.868,0.66-1.947,0.66-3.206c0-1.368-0.263-2.513-0.783-3.403c-0.521-0.893-1.245-1.618-2.15-2.154c-0.929-0.55-2.031-0.936-3.275-1.148c-1.279-0.219-2.667-0.33-4.123-0.33c-2.078,0-3.811,0.253-5.152,0.753c-1.333,0.498-2.415,1.128-3.213,1.871c-0.789,0.735-1.348,1.538-1.663,2.387c-0.32,0.866-0.483,1.698-0.483,2.473c0,0.9,0.246,1.622,0.752,2.206c0.488,0.563,1.12,0.837,1.932,0.837c1.045,0,1.761-0.261,2.188-0.798c0.455-0.572,0.676-1.233,0.676-2.021c0-0.682-0.198-1.222-0.604-1.652c-0.404-0.429-0.886-0.649-1.474-0.674c-0.183-0.008-0.346-0.114-0.427-0.278s-0.066-0.358,0.039-0.508c0.218-0.312,0.473-0.63,0.756-0.945c0.31-0.344,0.722-0.646,1.224-0.897c0.481-0.241,1.086-0.443,1.797-0.602c0.708-0.157,1.597-0.236,2.643-0.236c1.783,0,3.161,0.523,4.093,1.555c0.919,1.018,1.385,2.292,1.385,3.789c0,1.019-0.171,1.951-0.508,2.77c-0.326,0.79-0.735,1.545-1.216,2.246c-0.478,0.692-1.001,1.376-1.555,2.035c-0.534,0.636-1.033,1.326-1.482,2.05c-0.44,0.709-0.816,1.513-1.119,2.388c-0.294,0.856-0.443,1.851-0.443,2.955V55.398z"/></symbol><symbol id="Home, homepage, menu" viewBox="0 0 48 48">
  <title>Home, homepage, menu</title>
  <path d="M41.5771,18.1827l-17-12a1.0011,1.0011,0,0,0-1.1542,0l-17,12A1.0022,1.0022,0,0,0,6,19V41a.9994.9994,0,0,0,1,1H18a.9994.9994,0,0,0,1-1V29H29V41a.9994.9994,0,0,0,1,1H41a.9994.9994,0,0,0,1-1V19A1.0022,1.0022,0,0,0,41.5771,18.1827Z" fill="#646464"/>
</symbol><symbol id="home" viewBox="0 0 28 28"><path d="M25.825 12.29C25.824 12.289 25.823 12.288 25.821 12.286L15.027 2.937C14.752 2.675 14.392 2.527 13.989 2.521 13.608 2.527 13.248 2.675 13.001 2.912L2.175 12.29C1.756 12.658 1.629 13.245 1.868 13.759 2.079 14.215 2.567 14.479 3.069 14.479L5 14.479 5 23.729C5 24.695 5.784 25.479 6.75 25.479L11 25.479C11.552 25.479 12 25.031 12 24.479L12 18.309C12 18.126 12.148 17.979 12.33 17.979L15.67 17.979C15.852 17.979 16 18.126 16 18.309L16 24.479C16 25.031 16.448 25.479 17 25.479L21.25 25.479C22.217 25.479 23 24.695 23 23.729L23 14.479 24.931 14.479C25.433 14.479 25.921 14.215 26.132 13.759 26.371 13.245 26.244 12.658 25.825 12.29"/></symbol><symbol id="html5" viewBox="0 0 128 128"><path d="M9.032 2l10.005 112.093 44.896 12.401 45.02-12.387 10.015-112.107h-109.936zm89.126 26.539l-.627 7.172-.276 3.289h-52.665000000000006l1.257 14h50.156000000000006l-.336 3.471-3.233 36.119-.238 2.27-28.196 7.749v.002l-.034.018-28.177-7.423-1.913-21.206h13.815000000000001l.979 10.919 15.287 4.081h.043v-.546l15.355-3.875 1.604-17.579h-47.698l-3.383-38.117-.329-3.883h68.939l-.33 3.539z"/></symbol><symbol id="inspect-code" viewBox="0 0 100 100"><circle cx="50" cy="32" r="22" fill="#a3a3cd"/><circle cx="50" cy="32" r="17.5" fill="#78cdd4"/><path fill="#fcba7f" d="M55,65c0-2.761-2.239-5-5-5s-5,2.239-5,5c0,2.171,0,17.826,0,20c0,2.761,2.239,5,5,5s5-2.239,5-5	C55,82.826,55,67.171,55,65z"/><path fill="#fed5b3" d="M55,66c0-0.444,0-0.788,0-1c0-2.761-2.239-5-5-5s-5,2.239-5,5c0,0.212,0,0.556,0,1H55z"/><path fill="#1f212b" d="M50,55c-12.683,0-23-10.317-23-23S37.317,9,50,9s23,10.317,23,23S62.683,55,50,55z M50,11	c-11.579,0-21,9.421-21,21s9.421,21,21,21s21-9.421,21-21S61.579,11,50,11z"/><path fill="#1f212b" d="M50,50c-9.925,0-18-8.075-18-18s8.075-18,18-18s18,8.075,18,18S59.925,50,50,50z M50,15	c-9.374,0-17,7.626-17,17s7.626,17,17,17s17-7.626,17-17S59.374,15,50,15z"/><rect width="2" height="6" x="49" y="54" fill="#1f212b"/><path fill="#1f212b" d="M50,91c-3.309,0-6-2.691-6-6V65c0-3.309,2.691-6,6-6s6,2.691,6,6v20C56,88.309,53.309,91,50,91z M50,61c-2.206,0-4,1.794-4,4v20c0,2.206,1.794,4,4,4s4-1.794,4-4V65C54,62.794,52.206,61,50,61z"/><path fill="#1f212b" d="M54.5,66h-7c-0.276,0-0.5-0.224-0.5-0.5s0.224-0.5,0.5-0.5h7c0.276,0,0.5,0.224,0.5,0.5	S54.776,66,54.5,66z"/><path fill="#1f212b" d="M47.5,80c-0.276,0-0.5-0.224-0.5-0.5v-11c0-0.276,0.224-0.5,0.5-0.5s0.5,0.224,0.5,0.5v11	C48,79.776,47.776,80,47.5,80z"/><path fill="#1f212b" d="M47.5,84c-0.276,0-0.5-0.224-0.5-0.5v-2c0-0.276,0.224-0.5,0.5-0.5s0.5,0.224,0.5,0.5v2	C48,83.776,47.776,84,47.5,84z"/><path fill="#1f212b" d="M43.002,38c-0.256,0-0.512-0.098-0.707-0.293l-5.001-5c-0.188-0.188-0.293-0.441-0.293-0.707	s0.105-0.52,0.293-0.707l5.001-5c0.391-0.391,1.023-0.391,1.414,0s0.391,1.023,0,1.414L39.415,32l4.294,4.293	c0.391,0.391,0.391,1.023,0,1.414C43.514,37.902,43.258,38,43.002,38z"/><path fill="#1f212b" d="M47.001,42c-0.121,0-0.243-0.021-0.362-0.068c-0.515-0.2-0.77-0.779-0.569-1.294l7-18	c0.199-0.516,0.78-0.771,1.294-0.569c0.515,0.2,0.77,0.779,0.569,1.294l-7,18C47.779,41.758,47.401,42,47.001,42z"/><path fill="#1f212b" d="M57.001,38c-0.256,0-0.512-0.098-0.707-0.293c-0.391-0.391-0.391-1.023,0-1.414L60.585,32	l-4.291-4.293c-0.391-0.391-0.391-1.023,0-1.414s1.023-0.391,1.414,0l4.998,5c0.391,0.391,0.391,1.023,0,1.414l-4.998,5	C57.513,37.902,57.257,38,57.001,38z"/></symbol><symbol id="iphone" viewBox="0 0 100 100"><path fill="#fefdef" d="M58.5,15L79,35.5V78c0,3.866-3.134,7-7,7H28c-3.866,0-7-3.134-7-7V22c0-3.866,3.134-7,7-7H58.5z"/><path fill="#6474a6" d="M40.999 63.5c-.346 0-.692-.118-.976-.361l-7-6C32.691 56.854 32.5 56.438 32.5 56s.191-.854.523-1.139l7-6c.631-.539 1.576-.466 2.115.162.539.629.467 1.576-.162 2.115L36.305 56l5.672 4.861c.629.539.701 1.486.162 2.115C41.842 63.322 41.422 63.5 40.999 63.5zM59.001 63.5c.346 0 .692-.118.976-.361l7-6C67.309 56.854 67.5 56.438 67.5 56s-.191-.854-.523-1.139l-7-6c-.631-.539-1.576-.466-2.115.162-.539.629-.467 1.576.162 2.115L63.695 56l-5.672 4.861c-.629.539-.701 1.486-.162 2.115C58.158 63.322 58.578 63.5 59.001 63.5zM45.013 69.486c-.199 0-.402-.04-.597-.124-.76-.331-1.108-1.214-.778-1.974l10.986-23.992c.33-.761 1.214-1.105 1.974-.778.76.331 1.108 1.214.778 1.974L46.39 68.583C46.144 69.149 45.592 69.486 45.013 69.486z"/><path fill="none" stroke="#1f212b" stroke-linecap="round" stroke-linejoin="round" stroke-miterlimit="10" d="M74.5 52.5v25c0 1.657-1.343 3-3 3h-43c-1.657 0-3-1.343-3-3v-55c0-1.657 1.343-3 3-3h13M74.5 45.5L74.5 49.5M74.5 40.5L74.5 42.5"/><path fill="#fef6aa" d="M58.5,15v13.5c0,3.866,3.134,7,7,7H79"/><path fill="none" stroke="#1f212b" stroke-miterlimit="10" d="M58.5,15v13.5c0,3.866,3.134,7,7,7H79"/><path fill="none" stroke="#1f212b" stroke-linejoin="round" stroke-miterlimit="10" stroke-width="2" d="M58.5,15L79,35.5V78 c0,3.866-3.134,7-7,7H28c-3.866,0-7-3.134-7-7V22c0-3.866,3.134-7,7-7H58.5z"/><path fill="none" stroke="#000" stroke-linejoin="round" stroke-miterlimit="10" d="M40.999 63.5c-.346 0-.692-.118-.976-.361l-7-6C32.691 56.854 32.5 56.438 32.5 56s.191-.854.523-1.139l7-6c.631-.539 1.576-.466 2.115.162.539.629.467 1.576-.162 2.115L36.305 56l5.672 4.861c.629.539.701 1.486.162 2.115C41.842 63.322 41.422 63.5 40.999 63.5zM59.001 63.5c.346 0 .692-.118.976-.361l7-6C67.309 56.854 67.5 56.438 67.5 56s-.191-.854-.523-1.139l-7-6c-.631-.539-1.576-.466-2.115.162-.539.629-.467 1.576.162 2.115L63.695 56l-5.672 4.861c-.629.539-.701 1.486-.162 2.115C58.158 63.322 58.578 63.5 59.001 63.5zM45.013 69.486c-.199 0-.402-.04-.597-.124-.76-.331-1.108-1.214-.778-1.974l10.986-23.992c.33-.761 1.214-1.105 1.974-.778.76.331 1.108 1.214.778 1.974L46.39 68.583C46.144 69.149 45.592 69.486 45.013 69.486z"/></symbol><symbol id="javascript"><path fill-rule="evenodd" d="M15.328 18.432c-1.745 0-2.873-.832-3.423-1.92l1.53-.886c.403.658.926 1.141 1.853 1.141.778 0 1.275-.389 1.275-.926 0-.808-1.078-1.124-1.839-1.45-1.356-.577-2.256-1.302-2.256-2.833 0-1.409 1.074-2.483 2.753-2.483 1.194 0 2.054.416 2.671 1.503l-1.463.94c-.322-.577-.671-.805-1.208-.805-.551 0-.9.349-.9.805 0 .564.349.792 1.155 1.141 1.689.724 2.967 1.293 2.967 3.155 0 1.692-1.329 2.618-3.115 2.618zM11 15.599c0 1.947-1.199 2.976-2.864 2.976-1.504 0-2.405-.575-2.848-1.575h-.026l1.529-1.069c.295.523.561.894 1.205.894.618 0 1.004-.313 1.004-1.252V9h2v6.599zM0 20h20V0H0v20z"/></symbol><symbol id="js" viewBox="0 0 32 32"><path d="M.384.67v31.296H31.68V.67H.384zm16.334 26.772c-.461.937-1.342 1.553-2.362 1.85-1.568.36-3.067.155-4.183-.515-.747-.458-1.33-1.163-1.725-1.975.794-.485 1.586-.973 2.38-1.458.021.009.083.122.167.268.303.509.565.869 1.08 1.121.506.172 1.615.283 2.044-.607.262-.452.178-1.936.178-3.545 0-2.529.012-5.016.012-7.576h2.927c0 2.688.015 5.383 0 8.067.006 1.645.149 3.14-.518 4.369zm12.144-.827c-1.017 3.481-6.691 3.594-8.957 1.294-.479-.541-.779-.824-1.065-1.449 1.205-.693 1.205-.693 2.377-1.371.637.979 1.226 1.517 2.285 1.737 1.437.175 2.883-.318 2.559-1.844-.333-1.247-2.942-1.55-4.718-2.883-1.803-1.211-2.225-4.153-.744-5.834.494-.622 1.336-1.086 2.219-1.309l.922-.119c1.77-.036 2.877.431 3.689 1.339.226.229.41.476.756 1.012-.943.601-.94.595-2.291 1.47-.289-.622-.767-1.012-1.273-1.181-.785-.238-1.776.021-1.981.851-.071.256-.056.494.057.916.318.726 1.386 1.041 2.344 1.481 2.758 1.119 3.689 2.317 3.918 3.745.22 1.229-.054 2.026-.095 2.145z"/></symbol><symbol id="letter" viewBox="30 31.5 452 452">
      <g fill-rule="evenodd">
        <path d="M 441,81 A 40,40 0 0 1 481,121 L 481,395 A 40,40 0 0 1 441,435 L 71,435 A 40,40 0 0 1 31,395 L 31,121 A 40,40 0 0 1 71,81 Z M 63,121 A 8,8 0 0 1 71,113 L 441,113 A 8,8 0 0 1 449,121 L 449,131 C 448,150 438,166 417,188 L 288,291 C258,311 254,311 224,291 L 95,188 C 74,166 64,150 63,131 Z M 63,202 C 66,205 75,214 80,218 L 208,320 C 245,344 265,344 304,320 L 432,218 C 437,214 446,205 449,202 L 449,394 A 8,8 0 0 1 441,402 L 71,402 A 8,8 0 0 1 63,394 Z"/>
      </g>
    </symbol><symbol id="linkedin" viewBox="0 0 24 24"><path d="M19 0h-14c-2.761 0-5 2.239-5 5v14c0 2.761 2.239 5 5 5h14c2.762 0 5-2.239 5-5v-14c0-2.761-2.238-5-5-5zm-11 19h-3v-11h3v11zm-1.5-12.268c-.966 0-1.75-.79-1.75-1.764s.784-1.764 1.75-1.764 1.75.79 1.75 1.764-.783 1.764-1.75 1.764zm13.5 12.268h-3v-5.604c0-3.368-4-3.113-4 0v5.604h-3v-11h3v1.765c1.396-2.586 7-2.777 7 2.476v6.759z"/></symbol><symbol id="logs-folder" viewBox="0 0 100 100"><path fill="#ceccbe" d="M81,78V34c0-1.105-0.895-2-2-2H51c-1.105,0-2-0.895-2-2v-2c0-3.314-2.686-6-6-6H16 c-3.314,0-6,2.686-6,6v50H81z"/><path fill="#fefdef" d="M10.117,77.633L20,39h71L80.673,79.367C80.277,80.916,78.882,82,77.283,82H13.508 C11.223,82,9.551,79.846,10.117,77.633z"/><path fill="#1f212b" d="M10,79c-0.553,0-1-0.447-1-1V28c0-3.859,3.141-7,7-7h27c3.859,0,7,3.141,7,7v2c0,0.552,0.448,1,1,1 h28c1.654,0,3,1.346,3,3v5c0,0.553-0.447,1-1,1s-1-0.447-1-1v-5c0-0.552-0.448-1-1-1H51c-1.654,0-3-1.346-3-3v-2 c0-2.757-2.243-5-5-5H16c-2.757,0-5,2.243-5,5v50C11,78.553,10.553,79,10,79z"/><path fill="#1f212b" d="M77.282,83H13.508c-1.4,0-2.695-0.635-3.555-1.74c-0.858-1.106-1.151-2.519-0.805-3.875 l9.883-38.633C19.145,38.31,19.543,38,20,38h71c0.309,0,0.601,0.143,0.79,0.387s0.255,0.562,0.179,0.861L81.643,79.615 C81.133,81.608,79.34,83,77.282,83z M20.776,40l-9.69,37.881l0,0c-0.192,0.753-0.029,1.538,0.447,2.152 C12.011,80.647,12.73,81,13.508,81h63.774c1.143,0,2.14-0.773,2.423-1.881L89.712,40H20.776z M10.117,77.633h0.01H10.117z"/><path fill="#1f212b" d="M31.5,29h-17c-0.276,0-0.5-0.224-0.5-0.5s0.224-0.5,0.5-0.5h17c0.276,0,0.5,0.224,0.5,0.5 S31.776,29,31.5,29z"/><g><path fill="#fef6aa" d="M50.5,46.5c-9.389,0-17,5.596-17,12.5c0,3.817,2.333,7.228,6,9.521c-0.004,3.984-1,5.428-1,5.979 c0,0.552,0.448,1,1,1c3.648,0,7.286-2.655,8.992-4.095c0.66,0.057,1.327,0.095,2.008,0.095c9.389,0,17-5.596,17-12.5 S59.889,46.5,50.5,46.5z"/><path d="M39.5,76c-0.827,0-1.5-0.673-1.5-1.5c0-0.232,0.082-0.474,0.207-0.84c0.267-0.784,0.757-2.222,0.791-4.866 C35.182,66.322,33,62.766,33,59c0-7.168,7.851-13,17.5-13S68,51.832,68,59s-7.851,13-17.5,13c-0.576,0-1.182-0.026-1.845-0.079 C46.745,73.505,43.156,76,39.5,76z M50.5,47C41.402,47,34,52.383,34,59c0,3.491,2.102,6.807,5.765,9.097 C39.911,68.188,40,68.349,40,68.521c-0.003,2.984-0.552,4.596-0.847,5.461c-0.071,0.209-0.151,0.445-0.153,0.519 C39,74.775,39.225,75,39.5,75c3.442,0,6.909-2.491,8.67-3.977c0.103-0.087,0.233-0.126,0.366-0.116C49.251,70.97,49.894,71,50.5,71 C59.598,71,67,65.617,67,59S59.598,47,50.5,47z"/><path d="M52.5,56h-10c-0.276,0-0.5-0.224-0.5-0.5s0.224-0.5,0.5-0.5h10c0.276,0,0.5,0.224,0.5,0.5S52.776,56,52.5,56z"/><path d="M58.5,56h-4c-0.276,0-0.5-0.224-0.5-0.5s0.224-0.5,0.5-0.5h4c0.276,0,0.5,0.224,0.5,0.5S58.776,56,58.5,56z"/><path d="M45.5,59h-6c-0.276,0-0.5-0.224-0.5-0.5s0.224-0.5,0.5-0.5h6c0.276,0,0.5,0.224,0.5,0.5S45.776,59,45.5,59z"/><path d="M60.5,59h-13c-0.276,0-0.5-0.224-0.5-0.5s0.224-0.5,0.5-0.5h13c0.276,0,0.5,0.224,0.5,0.5S60.776,59,60.5,59z"/><path d="M55.5,62h-16c-0.276,0-0.5-0.224-0.5-0.5s0.224-0.5,0.5-0.5h16c0.276,0,0.5,0.224,0.5,0.5S55.776,62,55.5,62z"/><path d="M61.5,62h-4c-0.276,0-0.5-0.224-0.5-0.5s0.224-0.5,0.5-0.5h4c0.276,0,0.5,0.224,0.5,0.5S61.776,62,61.5,62z"/></g></symbol><symbol id="module" viewBox="0 0 100 100"><path fill="#1f212b" d="M50.5,86.042c-2.32,0-4.64-0.607-6.709-1.822L21.494,71.128C21.188,70.948,21,70.62,21,70.266V45.929	c0-4.831,2.629-9.278,6.861-11.607l22.157-12.197c0.301-0.166,0.664-0.166,0.965,0L73.14,34.321C77.371,36.65,80,41.098,80,45.929	v24.337c0,0.354-0.188,0.683-0.494,0.862L57.209,84.22C55.14,85.435,52.82,86.042,50.5,86.042z M23,69.693l21.804,12.802	c3.514,2.063,7.879,2.063,11.393,0L78,69.693V45.929c0-4.102-2.232-7.878-5.825-9.855L50.5,24.142L28.825,36.073	C25.232,38.051,23,41.827,23,45.929V69.693z"/><polygon fill="#9dc4e8" points="64,22 64,37.5 51,44.72 50.5,45 50,44.72 37,37.5 37,22 50.5,15"/><path fill="#78a1d1" d="M51,29.5v15.22L50.5,45L37,37.5V22l0.53-0.28l12.97,7.21l0.24,0.13C50.9,29.15,51,29.32,51,29.5z"/><path fill="#c6dff1" d="M64,22v15.5L50.5,45L50,44.72V29.5c0-0.18,0.1-0.35,0.26-0.44l0.24-0.13l12.97-7.21L64,22z"/><polygon fill="#9dc4e8" points="89,58 89,73.5 76,80.72 75.5,81 75,80.72 62,73.5 62,58 75.5,51"/><path fill="#78a1d1" d="M76,65.5v15.22L75.5,81L62,73.5V58l0.53-0.28l12.97,7.21l0.24,0.13C75.9,65.15,76,65.32,76,65.5z"/><path fill="#c6dff1" d="M89,73.5V58l-0.53-0.28L75.5,64.93l-0.24,0.13C75.1,65.15,75,65.32,75,65.5v15.22L75.5,81L89,73.5z"/><polygon fill="#9dc4e8" points="39,58 39,73.5 25.5,81 12,73.5 12,58 25.5,51"/><path fill="#78a1d1" d="M26,65.5v15.22L25.5,81L12,73.5V58l0.53-0.28l12.97,7.21l0.24,0.13C25.9,65.15,26,65.32,26,65.5z"/><path fill="#c6dff1" d="M39,58v15.5L25.5,81L25,80.72V65.5c0-0.18,0.1-0.35,0.26-0.44l0.24-0.13l12.97-7.21L39,58z"/><path fill="#1f212b" d="M50.5,46c-0.167,0-0.334-0.042-0.486-0.126l-13.5-7.5C36.197,38.198,36,37.863,36,37.5V22	c0-0.373,0.208-0.716,0.54-0.888l13.5-7c0.289-0.15,0.632-0.15,0.921,0l13.5,7C64.792,21.284,65,21.627,65,22v15.5	c0,0.363-0.197,0.698-0.514,0.874l-13.5,7.5C50.834,45.958,50.667,46,50.5,46z M38,36.911l12.5,6.945L63,36.911V22.608l-12.5-6.482	L38,22.608V36.911z"/><rect width="1.001" height="15.443" x="43.25" y="18.028" fill="#1f212b" transform="rotate(-60.948 43.747 25.75)"/><path fill="#1f212b" d="M25.5,82c-0.167,0-0.334-0.042-0.486-0.126l-13.5-7.5C11.197,74.198,11,73.863,11,73.5V58	c0-0.373,0.208-0.716,0.54-0.888l13.5-7c0.289-0.15,0.632-0.15,0.921,0l13.5,7C39.792,57.284,40,57.627,40,58v15.5	c0,0.363-0.197,0.698-0.514,0.874l-13.5,7.5C25.834,81.958,25.667,82,25.5,82z M13,72.911l12.5,6.945L38,72.911V58.608l-12.5-6.482	L13,58.608V72.911z"/><path fill="#1f212b" d="M50.5,32c-0.276,0-0.5-0.224-0.5-0.5v-2c0-0.182,0.099-0.349,0.257-0.438l13.5-7.5	c0.24-0.132,0.546-0.047,0.68,0.194c0.134,0.242,0.047,0.546-0.194,0.681L51,29.794V31.5C51,31.776,50.776,32,50.5,32z"/><path fill="#1f212b" d="M25.5,66c-0.083,0-0.167-0.021-0.243-0.063l-13.5-7.5l0.485-0.875L25.5,64.928l13.257-7.365	l0.485,0.875l-13.5,7.5C25.667,65.979,25.583,66,25.5,66z"/><rect width="1" height="16" x="25" y="65.5" fill="#1f212b"/><path fill="#1f212b" d="M75.5,82c-0.167,0-0.334-0.042-0.486-0.126l-13.5-7.5C61.197,74.198,61,73.863,61,73.5V58	c0-0.373,0.208-0.716,0.54-0.888l13.5-7c0.289-0.15,0.632-0.15,0.921,0l13.5,7C89.792,57.284,90,57.627,90,58v15.5	c0,0.363-0.197,0.698-0.514,0.874l-13.5,7.5C75.834,81.958,75.667,82,75.5,82z M63,72.911l12.5,6.945L88,72.911V58.608l-12.5-6.482	L63,58.608V72.911z"/><rect width="1" height="16" x="75" y="65.5" fill="#1f212b"/><path fill="#1f212b" d="M50.5,36c-0.276,0-0.5-0.224-0.5-0.5v-1c0-0.276,0.224-0.5,0.5-0.5s0.5,0.224,0.5,0.5v1	C51,35.776,50.776,36,50.5,36z"/><path fill="#1f212b" d="M50.5,45c-0.276,0-0.5-0.224-0.5-0.5v-7c0-0.276,0.224-0.5,0.5-0.5s0.5,0.224,0.5,0.5v7	C51,44.776,50.776,45,50.5,45z"/><path fill="#1f212b" d="M86.5,59.889c-0.176,0-0.346-0.093-0.438-0.257c-0.134-0.242-0.047-0.546,0.194-0.681l2.5-1.389	c0.241-0.132,0.546-0.046,0.68,0.194c0.134,0.242,0.047,0.546-0.194,0.681l-2.5,1.389C86.666,59.868,86.583,59.889,86.5,59.889z"/><path fill="#1f212b" d="M83.5,61.556c-0.176,0-0.346-0.093-0.438-0.257c-0.134-0.241-0.047-0.546,0.194-0.681l1-0.556	c0.241-0.132,0.545-0.047,0.68,0.194s0.047,0.546-0.194,0.681l-1,0.556C83.666,61.535,83.583,61.556,83.5,61.556z"/><path fill="#1f212b" d="M75.5,66c-0.083,0-0.167-0.021-0.243-0.063l-13.5-7.5c-0.242-0.135-0.329-0.438-0.194-0.681	c0.134-0.24,0.438-0.326,0.68-0.194L75.5,64.928l4.757-2.643c0.24-0.133,0.546-0.046,0.68,0.194	c0.134,0.242,0.047,0.546-0.194,0.681l-5,2.777C75.667,65.979,75.583,66,75.5,66z"/></symbol><symbol id="node-js" viewBox="0 0 512 512"><g transform="translate(96 96)"><path d="M159.917 384a32.536 32.536 0 0 1-16.633-4.599l-52.985-32.44c-7.914-4.562-4.023-6.203-1.443-7.141 10.565-3.781 13.713-5.657 24.947-12.285 1.206-.667 2.747-.424 3.955.322l39.71 23.504c1.476.85 3.557.85 4.931 0l155.188-92.246c1.475-.877 2.415-2.646 2.415-4.441V67.869c0-1.85-.94-3.592-2.449-4.528l-155.12-94.672c-1.478-.894-3.421-.894-4.898 0L2.516 63.374C.972 64.277 0 66.072 0 67.869v186.805c0 1.813.972 3.513 2.481 4.389l39.929 23.972c23.61 12.204 37.59-.17 37.59-14.611V84.725c0-2.652 2.047-4.727 4.596-4.727h22.809c2.515 0 4.597 2.072 4.597 4.727v183.698c0 32.563-19.353 51.248-49.199 51.248-9.156 0-16.397 0-36.552-10.279l-41.584-24.781C-25.629 278.459-32 266.965-32 254.656V65.191c0-12.316 6.371-23.784 16.665-29.917L143.35-59.59c10.027-5.88 23.374-5.88 33.332 0l158.65 94.864C345.63 41.423 352 52.899 352 65.191v189.465c0 12.309-6.37 23.75-16.668 29.953l-158.65 94.774a32.52 32.52 0 0 1-16.698 4.599l-.067.018z"/><path d="M208.943 255.998c-64.61 0-84.006-31.61-84.006-59.271 0-2.629 2.048-4.729 4.562-4.729h20.521c2.282 0 4.227 1.7 4.562 4.016 3.084 21.602 16.748 31.15 54.324 31.15 33.399 0 47.091-10.346 47.091-28.684 0-10.592-3.463-18.424-55.407-23.697-43.427-4.441-70.288-14.373-70.288-50.295 0-33.135 26.996-52.49 72.234-52.49 46.128 0 76.462 14 79.173 50.829.102 1.337-.368 2.629-1.241 3.644-.871.965-2.078 1.527-3.353 1.527h-20.591c-2.146 0-4.024-1.562-4.459-3.713-4.401-16.953-16.97-23.402-49.563-23.402-36.486 0-40.746 12.753-40.746 22.607 0 11.963 5.031 15.441 54.294 22.172 48.761 6.663 71.933 16.117 71.933 51.552 0 35.781-28.808 58.783-79.075 58.783l.035.001z"/></g></symbol><symbol id="npm" viewBox="0 0 24 24"><path d="m12 12.534v-2.663h-1.334v2.666zm12-5.334h-24v8h6.666v1.334h5.334v-1.333h12zm-17.334 1.334v5.337h-1.333v-4h-1.334v4h-2.666v-5.334zm6.667 0v5.337h-2.666v1.334h-2.666v-6.666zm9.333 0v5.337h-1.333v-4h-1.334v4h-1.334v-4h-1.333v4h-2.667v-5.334z"/></symbol><symbol id="program" viewBox="0 0 100 100"><path fill="#fef6aa" d="M82,38v-6c0-1.105-0.895-2-2-2H53c-1.105,0-2-0.895-2-2v-2c0-3.314-2.686-6-6-6H19	c-3.314,0-6,2.686-6,6v51c0,1.657,1.343,3,3,3h68c1.657,0,3-1.343,3-3V38H82z"/><path fill="#f9e65c" d="M84,80H16c1.657,0,3-1.343,3-3V38h68v39C87,78.657,85.657,80,84,80z"/><path fill="#1f212b" d="M16,81v-2c1.103,0,2-0.897,2-2V38c0-0.553,0.447-1,1-1h68v2H20v38C20,79.206,18.206,81,16,81z"/><path fill="#1f212b" d="M84,81H16c-2.206,0-4-1.794-4-4V26c0-3.859,3.141-7,7-7h26c3.859,0,7,3.141,7,7v2	c0,0.552,0.448,1,1,1h27c1.654,0,3,1.346,3,3v5h4c0.553,0,1,0.447,1,1v39C88,79.206,86.206,81,84,81z M19,21c-2.757,0-5,2.243-5,5	v51c0,1.103,0.897,2,2,2h68c1.103,0,2-0.897,2-2V39h-4c-0.553,0-1-0.447-1-1v-6c0-0.552-0.448-1-1-1H53c-1.654,0-3-1.346-3-3v-2	c0-2.757-2.243-5-5-5H19z"/><path fill="#1f212b" d="M45.5,30.5c-0.276,0-0.5-0.224-0.5-0.5v-0.5c0-1.93-1.57-3.5-3.5-3.5c-0.276,0-0.5-0.224-0.5-0.5	s0.224-0.5,0.5-0.5c2.481,0,4.5,2.019,4.5,4.5V30C46,30.276,45.776,30.5,45.5,30.5z"/><path fill="#1f212b" d="M18.5,34c-0.276,0-0.5-0.224-0.5-0.5v-4c0-2.481,2.019-4.5,4.5-4.5h16c0.276,0,0.5,0.224,0.5,0.5	S38.776,26,38.5,26h-16c-1.93,0-3.5,1.57-3.5,3.5v4C19,33.776,18.776,34,18.5,34z"/><path fill="#1f212b" d="M37,65.742c0-0.378,0.145-0.663,0.436-0.853l9.433-6.37l-9.433-6.41	C37.145,51.921,37,51.636,37,51.258c0-0.325,0.132-0.616,0.397-0.872C37.66,50.128,37.937,50,38.229,50	c0.184,0,0.343,0.054,0.476,0.162l10.661,7.221C49.789,57.682,50,58.06,50,58.52s-0.211,0.826-0.634,1.096l-10.661,7.221	C38.571,66.946,38.413,67,38.229,67c-0.291,0-0.568-0.128-0.832-0.385C37.132,66.358,37,66.066,37,65.742z"/><path fill="#1f212b" d="M54,65.884c0-0.347,0.095-0.632,0.283-0.857c0.19-0.226,0.432-0.339,0.731-0.339h12.972	c0.27,0,0.506,0.113,0.71,0.339C68.898,65.253,69,65.538,69,65.884c0,0.319-0.102,0.583-0.304,0.797	C68.493,66.893,68.256,67,67.986,67H55.014C54.339,67,54,66.628,54,65.884z"/></symbol><symbol id="queries" viewBox="0 0 467.72198 467.38"><g id="window_screen_with_mobile_icon" transform="translate(-22.139,-22.31)"><g id="g26"><path d="m 256.168,22.31 c 128.777,0 233.693,104.911 233.693,233.69 0,129.113 -104.916,233.69 -233.693,233.69 C 127.043,489.69 22.139,385.113 22.139,256 22.139,127.221 127.043,22.31 256.168,22.31 Z" id="path4" style="clip-rule:evenodd;fill:#fd8469;fill-rule:evenodd"/><path d="m 486.836,219.353 c 2.019,11.758 3.025,24.202 3.025,36.647 0,122.395 -93.813,222.601 -213.516,233.022 L 124.356,372.001 c 0,-5.373 3.703,-7.721 3.703,-12.77 v 0 c 0,-57.833 0,-115.676 0,-173.519 0,-9.057 0,-17.808 0,-26.541 0,-5.392 0,-10.774 0,-15.813 5.378,0 10.755,0 15.797,0 77.338,0 154.678,0 231.679,0 l 12.106,-3.025 c 4.372,6.719 97.844,79.02 99.195,79.02 z" id="path6" style="clip-rule:evenodd;fill:#e4775f;fill-rule:evenodd"/><path d="m 140.158,182.706 h 231.68 v 173.5 h -231.68 z m 247.484,173.5 v 15.795 h -15.804 -231.68 -15.802 v -15.795 0 -173.5 -26.569 -15.804 h 15.802 231.68 15.804 v 15.804 26.569 z" id="path8" style="clip-rule:evenodd;fill:#324a5e;fill-rule:evenodd"/><path d="m 321.734,161.501 c 0,5.735 4.71,10.431 10.765,10.431 5.707,0 10.422,-4.695 10.422,-10.431 0,-6.041 -4.715,-10.736 -10.422,-10.736 -6.055,0 -10.765,4.695 -10.765,10.736 z" id="path10" style="clip-rule:evenodd;fill:#90dfaa;fill-rule:evenodd"/><path d="m 350.651,161.501 c 0,5.735 4.714,10.431 10.765,10.431 5.717,0 10.422,-4.695 10.422,-10.431 0,-6.041 -4.705,-10.736 -10.422,-10.736 -6.051,0 -10.765,4.695 -10.765,10.736 z" id="path12" style="clip-rule:evenodd;fill:#ffd05b;fill-rule:evenodd"/><path d="m 292.822,161.501 c 0,5.735 4.7,10.431 10.422,10.431 6.046,0 10.75,-4.695 10.75,-10.431 0,-6.041 -4.704,-10.736 -10.75,-10.736 -5.722,0 -10.422,4.695 -10.422,10.736 z" id="path14" style="clip-rule:evenodd;fill:#fd8469;fill-rule:evenodd"/><rect height="173.5" id="rect16" style="clip-rule:evenodd;fill:#ffffff;fill-rule:evenodd" width="231.67999" x="140.158" y="182.70599"/><path d="m 412.521,239.528 h -93.479 v 147.275 h 93.479 z m -40.349,158.365 c 0,-3.693 -2.691,-6.719 -6.39,-6.719 -3.699,0 -6.39,3.025 -6.39,6.719 0,3.368 2.691,6.394 6.39,6.394 3.699,0 6.39,-3.026 6.39,-6.394 z M 350.651,229.774 c 0,1.002 0.673,1.68 1.345,1.68 h 27.581 c 0.668,0 1.336,-0.678 1.336,-1.68 0,-0.668 -0.668,-1.68 -1.336,-1.68 h -27.581 c -0.672,0.001 -1.345,1.012 -1.345,1.68 z m 70.951,2.014 v 166.104 c 0,7.071 -6.055,12.778 -13.117,12.778 H 323.08 c -7.067,0 -13.117,-5.707 -13.117,-12.778 V 231.788 c 0,-7.053 6.05,-12.778 13.117,-12.778 h 85.404 c 7.063,0 13.118,5.725 13.118,12.778 z" id="path18" style="clip-rule:evenodd;fill:#253645;fill-rule:evenodd"/><rect height="150.987" id="rect20" style="clip-rule:evenodd;fill:#ffffff;fill-rule:evenodd" width="95.497002" x="318.03601" y="237.505"/><path d="m 365.782,391.174 c -3.698,0 -6.39,3.025 -6.39,6.719 0,3.368 2.691,6.394 6.39,6.394 3.699,0 6.39,-3.025 6.39,-6.394 0,-3.694 -2.692,-6.719 -6.39,-6.719 z" id="path22" style="clip-rule:evenodd;fill:#ffffff;fill-rule:evenodd"/><path d="m 351.996,231.454 h 27.581 c 0.668,0 1.336,-0.678 1.336,-1.68 0,-0.668 -0.668,-1.68 -1.336,-1.68 h -27.581 c -0.672,0 -1.345,1.012 -1.345,1.68 0,1.002 0.673,1.68 1.345,1.68 z" id="path24" style="clip-rule:evenodd;fill:#ffffff;fill-rule:evenodd"/></g></g><g id="Layer_1" transform="translate(-22.139,-22.31)"/></symbol><symbol id="repository" viewBox="0 0 100 100"><polyline fill="#f27c7c" points="35.5,86.5 35.5,92.5 40,90.5 44.5,92.5 44.5,86.5"/><path fill="#fefdef" d="M77,24c0,0-2-1.518-2-5c0-3.5,2-5,2-5H28c-2.761,0-5,2.239-5,5s2.239,5,5,5H77z"/><path fill="#d1dae7" d="M71,86H28c-2.761,0-5-2.239-5-5V19c0,2.761,2.239,5,5,5h49v56C77,83.314,74.314,86,71,86z"/><path fill="#adbed7" d="M31,24h-3c-2.761,0-5-2.239-5-5v62c0,2.761,2.239,5,5,5h3V24z"/><circle cx="40" cy="39" r="3.5" fill="#a0d2a1"/><circle cx="40" cy="55" r="3.5" fill="#a0d2a1"/><circle cx="40" cy="71" r="3.5" fill="#a0d2a1"/><g><path fill="#1f212b" d="M44.5,93c-0.069,0-0.138-0.015-0.203-0.043L40,91.047l-4.297,1.91 c-0.156,0.066-0.335,0.055-0.476-0.038C35.086,92.827,35,92.669,35,92.5v-6c0-0.276,0.224-0.5,0.5-0.5s0.5,0.224,0.5,0.5v5.23 l3.797-1.688c0.129-0.057,0.277-0.057,0.406,0L44,91.73V86.5c0-0.276,0.224-0.5,0.5-0.5s0.5,0.224,0.5,0.5v6 c0,0.169-0.086,0.327-0.228,0.419C44.69,92.973,44.596,93,44.5,93z"/><path fill="#1f212b" d="M77,25H28c-3.309,0-6-2.691-6-6s2.691-6,6-6h49c0.431,0,0.812,0.275,0.949,0.684 c0.136,0.408-0.004,0.858-0.349,1.116C77.543,14.845,76,16.092,76,19c0,2.896,1.547,4.157,1.613,4.21 c0.333,0.265,0.467,0.714,0.327,1.116C77.8,24.728,77.425,25,77,25z M28,15c-2.206,0-4,1.794-4,4s1.794,4,4,4h46.96 C74.45,22.062,74,20.741,74,19c0-1.744,0.448-3.063,0.957-4H28z"/><path fill="#1f212b" d="M71,87H28c-3.309,0-6-2.691-6-6V19c0-0.553,0.448-1,1-1s1,0.447,1,1c0,2.206,1.794,4,4,4h49 c0.552,0,1,0.447,1,1v56C78,83.859,74.86,87,71,87z M24,23.469V81c0,2.206,1.794,4,4,4h43c2.757,0,5-2.243,5-5V25H28 C26.465,25,25.062,24.42,24,23.469z"/><path fill="#1f212b" d="M71,87H28c-3.309,0-6-2.691-6-6V19c0-0.553,0.448-1,1-1s1,0.447,1,1c0,2.206,1.794,4,4,4h49 c0.552,0,1,0.447,1,1v56C78,83.859,74.86,87,71,87z M24,23.469V81c0,2.206,1.794,4,4,4h43c2.757,0,5-2.243,5-5V25H28 C26.465,25,25.062,24.42,24,23.469z"/><path fill="#1f212b" d="M30.5,74c-0.276,0-0.5-0.224-0.5-0.5v-49c0-0.276,0.224-0.5,0.5-0.5s0.5,0.224,0.5,0.5v49 C31,73.776,30.776,74,30.5,74z"/><path fill="#1f212b" d="M30.5,82c-0.276,0-0.5-0.224-0.5-0.5v-5c0-0.276,0.224-0.5,0.5-0.5s0.5,0.224,0.5,0.5v5 C31,81.776,30.776,82,30.5,82z"/><path fill="#1f212b" d="M74.5,18h-46c-0.276,0-0.5-0.224-0.5-0.5s0.224-0.5,0.5-0.5h46c0.276,0,0.5,0.224,0.5,0.5 S74.776,18,74.5,18z"/><path fill="#1f212b" d="M74.5,21h-40c-0.276,0-0.5-0.224-0.5-0.5s0.224-0.5,0.5-0.5h40c0.276,0,0.5,0.224,0.5,0.5 S74.776,21,74.5,21z"/><path fill="#1f212b" d="M40,43c-2.206,0-4-1.794-4-4s1.794-4,4-4s4,1.794,4,4S42.206,43,40,43z M40,36c-1.654,0-3,1.346-3,3 s1.346,3,3,3s3-1.346,3-3S41.654,36,40,36z"/><path fill="#1f212b" d="M40,59c-2.206,0-4-1.794-4-4s1.794-4,4-4s4,1.794,4,4S42.206,59,40,59z M40,52c-1.654,0-3,1.346-3,3 s1.346,3,3,3s3-1.346,3-3S41.654,52,40,52z"/><path fill="#1f212b" d="M40,75c-2.206,0-4-1.794-4-4s1.794-4,4-4s4,1.794,4,4S42.206,75,40,75z M40,68c-1.654,0-3,1.346-3,3 s1.346,3,3,3s3-1.346,3-3S41.654,68,40,68z"/></g></symbol><symbol id="sass" viewBox="0 0 24 24"><path d="M12,24c6.627,0,12-5.373,12-12S18.627,0,12,0S0,5.373,0,12S5.373,24,12,24z M6.411,6.759c1.549-1.449,3.704-2.56,5.693-3.267c3.345-1.189,6.88-0.488,7.422,1.645L19.453,5.07c0.525,2.1-1.29,4.606-3.614,5.505c-2.07,0.809-3.796,0.675-4.5,0.45c-0.811-0.27-1.276-0.795-1.396-1.095c-0.045-0.12-0.12-0.315,0-0.375c0.075-0.046,0.105-0.031,0.314,0.194c0.196,0.211,0.961,0.78,2.431,0.615c3.855-0.434,6.164-3.42,5.431-5.024c-0.51-1.125-3.466-1.636-7.171,0.21c-4.515,2.25-4.77,4.109-4.8,4.814c-0.105,1.935,2.4,2.955,3.75,4.41c0.044,0.03,0.075,0.06,0.105,0.105c0.404-0.165,0.975-0.24,1.875-0.256c2.189-0.029,3.42,1.41,3.375,2.7c-0.045,1.021-0.976,1.441-1.141,1.471c-0.119,0.015-0.195,0.015-0.21-0.075c-0.014-0.061,0.031-0.09,0.181-0.181c0.151-0.09,0.584-0.405,0.674-0.944c0.091-0.54-0.329-1.86-2.43-2.1c-0.75-0.091-1.334-0.031-1.83,0.104c0.362,0.795,0.436,2.415-0.404,3.676c-0.87,1.289-2.49,2.085-4.065,1.649c-0.51-0.134-1.29-1.185-0.615-2.655c0.63-1.396,3.319-2.745,3.686-2.925v-0.006c-1.246-1.073-4.276-2.519-4.703-4.73C4.275,9.98,4.568,8.48,6.411,6.759z"/><path d="M6.803,19.761c0.418,0.242,1.392-0.046,2.09-0.805c0.229-0.25,0.415-0.52,0.555-0.81c0.026-0.056,0.054-0.115,0.078-0.176l0.065-0.18c0.18-0.544,0.199-1.147,0.024-1.792l-0.108,0.061v0.003c0,0-1.249,0.591-2.12,1.509C6.577,18.426,6.353,19.499,6.803,19.761z"/></symbol><symbol id="scroll" viewBox="0 0 612 612">
                  
                  <path class="st-arrow" d="M317.5,487.6c0.3-0.3,0.4-0.7,0.7-1.1l112.6-112.6c6.3-6.3,6.3-16.5,0-22.7c-6.3-6.3-16.5-6.3-22.7,0
                    l-86,86V136.1c0-8.9-7.3-16.2-16.2-16.2c-8.9,0-16.2,7.3-16.2,16.2v301.1l-86-86c-6.3-6.3-16.5-6.3-22.7,0
                    c-6.3,6.3-6.3,16.5,0,22.7l112.7,112.7c0.3,0.3,0.4,0.7,0.7,1c0.5,0.5,1.2,0.5,1.7,0.9c1.7,1.4,3.6,2.3,5.6,2.9
                    c0.8,0.2,1.5,0.4,2.3,0.4C308.8,492.6,313.8,491.3,317.5,487.6z"/>
                </symbol><symbol id="source-code" viewBox="0 0 100 100"><path fill="#fefdef" d="M58.5,15L79,35.5V78c0,3.866-3.134,7-7,7H28c-3.866,0-7-3.134-7-7V22c0-3.866,3.134-7,7-7H58.5z"/><path fill="#6474a6" d="M40.999 63.5c-.346 0-.692-.118-.976-.361l-7-6C32.691 56.854 32.5 56.438 32.5 56s.191-.854.523-1.139l7-6c.631-.539 1.576-.466 2.115.162.539.629.467 1.576-.162 2.115L36.305 56l5.672 4.861c.629.539.701 1.486.162 2.115C41.842 63.322 41.422 63.5 40.999 63.5zM59.001 63.5c.346 0 .692-.118.976-.361l7-6C67.309 56.854 67.5 56.438 67.5 56s-.191-.854-.523-1.139l-7-6c-.631-.539-1.576-.466-2.115.162-.539.629-.467 1.576.162 2.115L63.695 56l-5.672 4.861c-.629.539-.701 1.486-.162 2.115C58.158 63.322 58.578 63.5 59.001 63.5zM45.013 69.486c-.199 0-.402-.04-.597-.124-.76-.331-1.108-1.214-.778-1.974l10.986-23.992c.33-.761 1.214-1.105 1.974-.778.76.331 1.108 1.214.778 1.974L46.39 68.583C46.144 69.149 45.592 69.486 45.013 69.486z"/><path fill="none" stroke="#1f212b" stroke-linecap="round" stroke-linejoin="round" stroke-miterlimit="10" d="M74.5 52.5v25c0 1.657-1.343 3-3 3h-43c-1.657 0-3-1.343-3-3v-55c0-1.657 1.343-3 3-3h13M74.5 45.5L74.5 49.5M74.5 40.5L74.5 42.5"/><path fill="#fef6aa" d="M58.5,15v13.5c0,3.866,3.134,7,7,7H79"/><path fill="none" stroke="#1f212b" stroke-miterlimit="10" d="M58.5,15v13.5c0,3.866,3.134,7,7,7H79"/><path fill="none" stroke="#1f212b" stroke-linejoin="round" stroke-miterlimit="10" stroke-width="2" d="M58.5,15L79,35.5V78 c0,3.866-3.134,7-7,7H28c-3.866,0-7-3.134-7-7V22c0-3.866,3.134-7,7-7H58.5z"/><path fill="none" stroke="#000" stroke-linejoin="round" stroke-miterlimit="10" d="M40.999 63.5c-.346 0-.692-.118-.976-.361l-7-6C32.691 56.854 32.5 56.438 32.5 56s.191-.854.523-1.139l7-6c.631-.539 1.576-.466 2.115.162.539.629.467 1.576-.162 2.115L36.305 56l5.672 4.861c.629.539.701 1.486.162 2.115C41.842 63.322 41.422 63.5 40.999 63.5zM59.001 63.5c.346 0 .692-.118.976-.361l7-6C67.309 56.854 67.5 56.438 67.5 56s-.191-.854-.523-1.139l-7-6c-.631-.539-1.576-.466-2.115.162-.539.629-.467 1.576.162 2.115L63.695 56l-5.672 4.861c-.629.539-.701 1.486-.162 2.115C58.158 63.322 58.578 63.5 59.001 63.5zM45.013 69.486c-.199 0-.402-.04-.597-.124-.76-.331-1.108-1.214-.778-1.974l10.986-23.992c.33-.761 1.214-1.105 1.974-.778.76.331 1.108 1.214.778 1.974L46.39 68.583C46.144 69.149 45.592 69.486 45.013 69.486z"/></symbol><symbol id="test-passed" viewBox="0 0 100 100"><path fill="#fff" d="M49.5 10.5A2 2 0 1 0 49.5 14.5A2 2 0 1 0 49.5 10.5Z"/><path fill="#eaa871" d="M62.5,16H72c3.866,0,7,3.134,7,7v54c0,3.866-3.134,7-7,7H28c-3.866,0-7-3.134-7-7V23 c0-3.866,3.134-7,7-7h8"/><path fill="#8f9eb6" d="M45,19h9h8.793C62.928,18.523,63,18.02,63,17.5c0-3.038-2.462-5.5-5.5-5.5 c-0.526,0-1.033,0.078-1.514,0.216C55.836,8.759,52.994,6,49.5,6s-6.336,2.759-6.486,6.216C42.533,12.078,42.026,12,41.5,12 c-3.038,0-5.5,2.462-5.5,5.5c0,0.52,0.072,1.023,0.207,1.5H45z"/><path fill="#fff" d="M49.5 10.5A2 2 0 1 0 49.5 14.5A2 2 0 1 0 49.5 10.5Z"/><path fill="#fefdef" d="M73,71v3c0,0-1.843,3.5-3.5,3.5h-39c-1.657,0-3-1.343-3-3v-48c0-1.657,1.343-3,3-3h39 c1.657,0,3.5,3.5,3.5,3.5v28"/><path fill="#1f212b" d="M72,85H28c-4.411,0-8-3.589-8-8V23c0-4.411,3.589-8,8-8h8v2h-8c-3.309,0-6,2.691-6,6v54 c0,3.309,2.691,6,6,6h44c3.309,0,6-2.691,6-6V23c0-3.309-2.691-6-6-6h-9.5v-2H72c4.411,0,8,3.589,8,8v54C80,81.411,76.411,85,72,85z"/><path fill="#1f212b" d="M69.5,78h-39c-1.93,0-3.5-1.57-3.5-3.5v-48c0-1.93,1.57-3.5,3.5-3.5h39c1.93,0,3.5,1.57,3.5,3.5v29 c0,0.276-0.224,0.5-0.5,0.5S72,55.776,72,55.5v-29c0-1.379-1.122-2.5-2.5-2.5h-39c-1.378,0-2.5,1.121-2.5,2.5v48 c0,1.379,1.122,2.5,2.5,2.5h39c1.378,0,2.5-1.121,2.5-2.5v-4c0-0.276,0.224-0.5,0.5-0.5s0.5,0.224,0.5,0.5v4 C73,76.43,71.43,78,69.5,78z"/><path fill="#1f212b" d="M72.5 63c-.276 0-.5-.224-.5-.5v-4c0-.276.224-.5.5-.5s.5.224.5.5v4C73 62.776 72.776 63 72.5 63zM72.5 68c-.276 0-.5-.224-.5-.5v-2c0-.276.224-.5.5-.5s.5.224.5.5v2C73 67.776 72.776 68 72.5 68zM62.793 20H36.207c-.447 0-.84-.297-.962-.728C35.083 18.698 35 18.102 35 17.5c0-3.584 2.916-6.5 6.5-6.5.216 0 .434.012.65.033C42.832 7.571 45.866 5 49.5 5s6.668 2.571 7.35 6.033C57.066 11.012 57.284 11 57.5 11c3.584 0 6.5 2.916 6.5 6.5 0 .602-.083 1.198-.245 1.772C63.633 19.703 63.24 20 62.793 20zM37.027 18h24.945C61.991 17.835 62 17.668 62 17.5c0-2.481-2.019-4.5-4.5-4.5-.411 0-.828.06-1.239.178-.294.082-.611.028-.859-.15-.249-.18-.401-.462-.415-.769C54.859 9.311 52.449 7 49.5 7s-5.359 2.311-5.487 5.259c-.013.307-.166.589-.415.769s-.565.232-.859.15C42.328 13.06 41.911 13 41.5 13c-2.481 0-4.5 2.019-4.5 4.5C37 17.668 37.009 17.835 37.027 18z"/><path fill="#1f212b" d="M49.5 15c-1.378 0-2.5-1.121-2.5-2.5s1.122-2.5 2.5-2.5 2.5 1.121 2.5 2.5S50.878 15 49.5 15zM49.5 11c-.827 0-1.5.673-1.5 1.5s.673 1.5 1.5 1.5 1.5-.673 1.5-1.5S50.327 11 49.5 11zM44.5 40h-11c-.276 0-.5-.224-.5-.5s.224-.5.5-.5h11c.276 0 .5.224.5.5S44.776 40 44.5 40zM52.5 40h-5c-.276 0-.5-.224-.5-.5s.224-.5.5-.5h5c.276 0 .5.224.5.5S52.776 40 52.5 40zM52.5 64h-7c-.276 0-.5-.224-.5-.5s.224-.5.5-.5h7c.276 0 .5.224.5.5S52.776 64 52.5 64zM52.5 52h-19c-.276 0-.5-.224-.5-.5s.224-.5.5-.5h19c.276 0 .5.224.5.5S52.776 52 52.5 52zM42.5 64h-9c-.276 0-.5-.224-.5-.5s.224-.5.5-.5h9c.276 0 .5.224.5.5S42.776 64 42.5 64zM61.5 42c-.128 0-.256-.049-.354-.146l-3-3c-.195-.195-.195-.512 0-.707s.512-.195.707 0l2.646 2.646 4.646-4.646c.195-.195.512-.195.707 0s.195.512 0 .707l-5 5C61.756 41.951 61.628 42 61.5 42zM61.5 54c-.128 0-.256-.049-.354-.146l-3-3c-.195-.195-.195-.512 0-.707s.512-.195.707 0l2.646 2.646 4.646-4.646c.195-.195.512-.195.707 0s.195.512 0 .707l-5 5C61.756 53.951 61.628 54 61.5 54zM61.5 66c-.128 0-.256-.049-.354-.146l-3-3c-.195-.195-.195-.512 0-.707s.512-.195.707 0l2.646 2.646 4.646-4.646c.195-.195.512-.195.707 0s.195.512 0 .707l-5 5C61.756 65.951 61.628 66 61.5 66z"/></symbol></svg>