<svg xmlns="http://www.w3.org/2000/svg" xmlns:xlink="http://www.w3.org/1999/xlink"><symbol id="buttons"><circle data-v-25c909e8="" stroke-width="2" stroke="currentColor" cx="12" cy="12" r="4"/> <circle data-v-25c909e8="" stroke-width="2" stroke="currentColor" cx="28" cy="12" r="4"/> <circle data-v-25c909e8="" stroke-width="2" stroke="currentColor" cx="44" cy="12" r="4"/></symbol><symbol id="climb" viewBox="0 0 14 14"><path stroke-linecap="round" stroke-linejoin="round" d="M7 13.25C10.4518 13.25 13.25 10.4518 13.25 7C13.25 3.54822 10.4518 0.75 7 0.75C3.54822 0.75 0.75 3.54822 0.75 7C0.75 10.4518 3.54822 13.25 7 13.25Z"/><path stroke-linecap="round" stroke-linejoin="round" d="M3.8269 7.96143C4.30767 9.69219 6.23075 10.7499 7.96152 10.2691C9.01921 9.8845 9.88459 9.01912 10.1731 7.96143"/><path stroke-linecap="round" d="M4.4519 5.10059L4.4519 5.80059"/><path stroke-linecap="round" d="M9.5481 5.10059L9.5481 5.80059"/></symbol><symbol id="git" viewBox="0 0 999.937 999.937"><path d="M0 499.968c0-138.012 48.825-255.843 146.476-353.493C244.125 48.825 361.956 0 499.969 0 637.98 0 755.811 48.825 853.462 146.475c97.649 97.65 146.475 215.481 146.475 353.493s-48.825 255.843-146.475 353.493c-97.65 97.65-215.481 146.476-353.493 146.476-138.013 0-255.844-48.825-353.493-146.476C48.825 755.812 0 637.979 0 499.968zm54.684 0c0 122.389 43.617 227.199 130.851 314.434 87.234 87.233 192.045 130.851 314.434 130.851 122.388 0 227.199-43.617 314.433-130.851 87.234-87.234 130.851-192.045 130.851-314.434 0-122.388-43.616-227.199-130.851-314.433C727.168 98.301 622.356 54.684 499.969 54.684c-122.389 0-227.199 43.617-314.434 130.851C98.301 272.769 54.684 377.58 54.684 499.968zm140.617 107.415c-2.604-2.604-2.604-5.208 0-7.812 5.207-5.208 11.718-7.161 19.529-5.859 7.812 1.302 12.369 2.604 13.671 3.906 9.114 3.906 19.205 12.694 30.271 26.366 11.066 13.671 19.855 23.11 26.366 28.318 31.248 26.04 63.146 27.993 95.696 5.859 2.604-9.114 6.836-16.926 12.694-23.437 5.858-6.51 11.393-11.066 16.601-13.671 5.209-2.604 14.323-6.51 27.343-11.718-42.967-3.906-77.795-11.393-104.486-22.46s-47.849-25.063-63.473-41.989c-20.832-23.436-33.527-54.033-38.084-91.791-4.558-37.758-1.628-72.261 8.789-103.509 7.812-19.53 18.879-37.106 33.2-52.731-10.416-32.55-8.463-69.657 5.859-111.321 41.664 2.604 79.422 16.926 113.274 42.966 65.1-16.926 132.804-17.577 203.111-1.953 9.114-6.51 23.111-14.647 41.989-24.413 18.879-9.765 42.641-15.299 71.285-16.601 5.208 14.322 8.789 31.248 10.742 50.778s.977 37.758-2.929 54.684c29.945 31.248 45.569 72.912 46.871 124.992 0 41.664-7.16 76.167-21.482 103.509s-39.711 50.127-76.167 68.354c-24.738 11.719-57.288 18.879-97.65 21.483 18.229 9.114 31.574 18.554 40.037 28.319 8.464 9.765 13.997 25.063 16.602 45.895v61.521l1.952 59.566c3.906 6.511 8.464 12.044 13.672 16.602 5.208 4.557 9.765 7.812 13.671 9.765 3.905 1.953 5.208 4.883 3.905 8.789-1.302 3.906-6.51 5.859-15.623 5.859-22.135 0-39.711-7.812-52.731-23.437-3.906-6.51-5.859-14.321-5.859-23.436v-93.744c0-10.416-2.604-17.903-7.812-22.46-5.208-4.558-10.416-7.487-15.624-8.789v123.039c0 22.134 2.604 36.456 7.812 42.966s8.463 13.021 9.766 19.53c1.302 1.302.325 2.278-2.93 2.929-3.254.65-8.788-.325-16.601-2.929-16.926-3.906-28.644-12.695-35.154-26.366-6.51-13.671-9.765-28.319-9.765-43.943V667.926H488.25v121.086c0 15.624-3.256 30.598-9.766 44.919-9.113 18.229-26.04 27.993-50.777 29.295-3.906-1.302-5.859-2.604-5.859-3.905 1.302-1.303 5.208-7.812 11.718-19.53 1.302-2.604 2.93-7.812 4.883-15.624 1.954-7.812 2.93-16.926 2.93-27.342v-123.04c-5.208 1.302-10.091 4.231-14.648 8.789s-6.836 12.044-6.836 22.46v93.744c0 9.113-1.953 16.926-5.859 23.436-11.718 15.624-29.295 23.437-52.73 23.437-9.114 0-14.322-1.953-15.624-5.859-1.303-2.604-.977-4.883.977-6.836s4.883-4.232 8.789-6.836c3.906-2.604 6.51-4.558 7.812-5.859 5.208-3.906 9.113-9.114 11.718-15.624 3.906-5.208 4.882-18.879 2.929-41.013s-2.279-36.456-.977-42.966c-33.853 11.718-68.355 5.858-103.51-17.577-10.416-10.416-20.832-25.39-31.248-44.919-7.812-14.323-23.436-31.249-46.871-50.779z"/></symbol><symbol id="home" viewBox="0 0 14 14"><path stroke-linecap="round" stroke-linejoin="round" d="M0.75 8.47021L6.24259 2.09881C6.64151 1.63606 7.35849 1.63606 7.75741 2.09881L13.25 8.47021"/><path stroke-linejoin="round" d="M2.67303 6.24467L6.24114 2.08766C6.6402 1.62274 7.35971 1.62274 7.75876 2.08766L11.3269 6.24467L11.5307 7.69861C11.7143 9.0088 11.7053 10.3388 11.504 11.6464V11.6464C11.4021 12.3081 10.8327 12.7965 10.1632 12.7965H3.83667C3.16719 12.7965 2.59782 12.3081 2.49592 11.6464V11.6464C2.29457 10.3388 2.28557 9.0088 2.46922 7.69861L2.67303 6.24467Z"/><path stroke-linecap="round" stroke-linejoin="round" d="M7.00001 8.08887C7.921 8.08887 8.66762 8.83548 8.66762 9.75648V12.7964H5.3324V9.75648C5.3324 8.83548 6.07901 8.08887 7.00001 8.08887Z"/></symbol><symbol id="iphone" viewBox="0 0 14 14"><path d="M1.10135 8.69064C1.17748 9.19978 1.61869 9.57968 2.13327 9.56428C3.71012 9.5171 5.31651 9.45639 7 9.45639C8.67691 9.45639 10.2836 9.49445 11.8513 9.55277C12.3724 9.57216 12.8238 9.19069 12.901 8.67504C13.0624 7.59727 13.25 6.47436 13.25 5.32062C13.25 4.1709 13.0637 3.05181 12.9027 1.97749C12.8247 1.45718 12.3659 1.0746 11.8403 1.09668C10.2904 1.16177 8.66902 1.18484 7 1.18484C5.32421 1.18484 3.70266 1.13943 2.14393 1.08491C1.62486 1.06675 1.17661 1.44774 1.09973 1.9614C0.938201 3.04064 0.75 4.16516 0.75 5.32062C0.75 6.47993 0.93946 7.6081 1.10135 8.69064Z"/><path stroke-linecap="round" d="M4.5083 12.5127H9.49161"/><path stroke-linecap="round" d="M7 9.45898L7 12.5126"/></symbol><symbol id="letter" viewBox="30 31.5 452 452">
      <g fill-rule="evenodd">
        <path d="M 441,81 A 40,40 0 0 1 481,121 L 481,395 A 40,40 0 0 1 441,435 L 71,435 A 40,40 0 0 1 31,395 L 31,121 A 40,40 0 0 1 71,81 Z M 63,121 A 8,8 0 0 1 71,113 L 441,113 A 8,8 0 0 1 449,121 L 449,131 C 448,150 438,166 417,188 L 288,291 C258,311 254,311 224,291 L 95,188 C 74,166 64,150 63,131 Z M 63,202 C 66,205 75,214 80,218 L 208,320 C 245,344 265,344 304,320 L 432,218 C 437,214 446,205 449,202 L 449,394 A 8,8 0 0 1 441,402 L 71,402 A 8,8 0 0 1 63,394 Z"/>
      </g>
    </symbol></svg>