<svg xmlns:inkscape="http://www.inkscape.org/namespaces/inkscape" xmlns:sodipodi="http://sodipodi.sourceforge.net/DTD/sodipodi-0.dtd" xmlns="http://www.w3.org/2000/svg" xmlns:svg="http://www.w3.org/2000/svg" version="1.1" id="svg2" xml:space="preserve" width="229.79999" height="227.46799" viewBox="0 0 229.79998 227.46798" sodipodi:docname="795d95dfe8bbd7ae5d9d6ad56f21a6ff.eps"><defs id="defs6"/><sodipodi:namedview id="namedview4" pagecolor="#ffffff" bordercolor="#666666" borderopacity="1.0" inkscape:pageshadow="2" inkscape:pageopacity="0.0" inkscape:pagecheckerboard="0"/><g id="g8" inkscape:groupmode="layer" inkscape:label="ink_ext_XXXXXX" transform="matrix(1.3333333,0,0,-1.3333333,0,227.46799)"><g id="g10" transform="scale(0.1)"><path d="M 1723.5,0 H 0 V 1706.01 H 1723.5 V 0" style="animation: none;fill: none;fill-opacity:1;fill-rule:evenodd;stroke:none" id="path12"/><path d="M 1444.88,935.5 1164.16,788.496 1395.29,668.938 1674.84,814.773 1444.88,935.5" style="fill:#5695a3;fill-opacity:1;fill-rule:evenodd;stroke:none" id="path14"/><path d="M 1220.08,1213.25 V 841.68 l 97.58,51.047 V 703.391 L 832.352,450.078 v 560.902 l 387.728,202.27" style="fill:#e2a616;fill-opacity:1;fill-rule:evenodd;stroke:none" id="path16"/><path d="M 832.352,450.078 443.984,652.336 V 1213.25 L 832.352,1010.98 V 450.078" style="fill:#e2d40f;fill-opacity:1;fill-rule:evenodd;stroke:none" id="path18"/><path d="m 1220.08,1213.25 -387.728,-202.27 -388.368,202.27 388.368,202.27 z m 0,-269.473 97.58,-51.05 -97.58,-51.047 z" style="fill:#f4ed60;fill-opacity:1;fill-rule:evenodd;stroke:none" id="path20"/><path d="m 1061.04,613.32 257.34,134.207 V 595.313 L 1061.04,461.191 V 613.32" style="fill:#e2a616;fill-opacity:1;fill-rule:evenodd;stroke:none" id="path22"/><path d="M 1061.04,613.32 932.313,680.469 1189.67,814.59 1318.38,747.527 1061.04,613.32" style="fill:#f4ed60;fill-opacity:1;fill-rule:evenodd;stroke:none" id="path24"/><path d="M 932.313,680.469 1061.04,613.32 V 461.191 l -128.727,67.063 v 152.215" style="fill:#e2d40f;fill-opacity:1;fill-rule:evenodd;stroke:none" id="path26"/><path d="m 945.313,855.637 v 103.875 l 88.277,45.988 V 901.621 l -88.277,-45.984" style="fill:#e2a616;fill-opacity:1;fill-rule:evenodd;stroke:none" id="path28"/><path d="m 945.313,959.512 -43.926,22.988 87.461,45.98 44.742,-22.98 -88.277,-45.988" style="fill:#f4ed60;fill-opacity:1;fill-rule:evenodd;stroke:none" id="path30"/><path d="m 945.313,855.637 -43.926,22.578 V 982.5 l 43.926,-22.988 V 855.637" style="fill:#e2d40f;fill-opacity:1;fill-rule:evenodd;stroke:none" id="path32"/><path d="m 1008.69,917.441 v 45.977 l -39.413,-20.527 v -45.977 l 39.413,20.527" style="fill:#303d35;fill-opacity:1;fill-rule:evenodd;stroke:none" id="path34"/><path d="M 720.266,839.797 505.145,727.715 338.762,814.734 553.184,926.816 720.266,839.797" style="fill:#e6543f;fill-opacity:1;fill-rule:evenodd;stroke:none" id="path36"/><path d="M 505.145,727.715 720.266,839.797 V 769.484 L 505.145,656.711 v 71.004" style="fill:#d01f25;fill-opacity:1;fill-rule:evenodd;stroke:none" id="path38"/><path d="M 338.762,814.734 505.145,727.715 V 656.711 L 338.762,743.73 v 71.004" style="fill:#e1262d;fill-opacity:1;fill-rule:evenodd;stroke:none" id="path40"/><path d="M 491.797,503.066 285.664,610.332 V 647.82 L 491.797,540.547 Z M 821.355,289.172 v 42.644 l -155.73,80.782 v 37.48 L 857.559,350.566 V 307.91 l -36.204,-18.738" style="fill:#6ba0b3;fill-opacity:1;fill-rule:evenodd;stroke:none" id="path42"/><path d="M 285.664,610.332 491.797,503.066 V 460.422 L 285.664,567.688 Z m 535.691,-321.16 -155.73,80.777 v 42.649 l 155.73,-80.782 v -42.644" style="fill:#91bdc4;fill-opacity:1;fill-rule:evenodd;stroke:none" id="path44"/><path d="m 857.559,313.496 -36.204,18.738 502.125,261.079 V 555.5 Z M 1612.32,705.742 1415.88,603.645 v 37.48 l 160.26,83.359 36.18,-18.742" style="fill:#6ba0b3;fill-opacity:1;fill-rule:evenodd;stroke:none" id="path46"/><path d="m 857.559,313.496 v -42.644 l -36.204,18.738 v 42.644 l 36.204,-18.738" style="fill:#91bdc4;fill-opacity:1;fill-rule:evenodd;stroke:none" id="path48"/><path d="M 1612.32,705.742 V 663.738 L 1415.88,561.641 v 42.004 z M 857.559,313.496 1323.48,555.5 V 513.496 L 857.559,270.852 v 42.644" style="fill:#5695a3;fill-opacity:1;fill-rule:evenodd;stroke:none" id="path50"/><path d="m 66.5938,592.656 36.1912,18.742 303.719,-158 v -37.48 z M 821.355,157.766 v 42.644 l -305,158.32 v 37.481 L 857.559,219.148 v -42.644 l -36.204,-18.738" style="fill:#6ba0b3;fill-opacity:1;fill-rule:evenodd;stroke:none" id="path52"/><path d="m 821.355,157.766 -305,158.64 v 42.324 l 305,-158.32 z M 66.5938,592.656 406.504,415.918 V 373.594 L 66.5938,550.652 v 42.004" style="fill:#5695a3;fill-opacity:1;fill-rule:evenodd;stroke:none" id="path54"/><path d="m 1205.86,359.609 406.46,211.954 V 531.504 L 1205.86,319.543 Z m -85.29,-43.945 V 275.598 L 946.086,184.805 v 39.746 l 174.484,91.113" style="fill:#91bdc4;fill-opacity:1;fill-rule:evenodd;stroke:none" id="path56"/><path d="M 1612.32,571.563 1205.86,359.609 v 40.059 l 370.28,192.578 36.18,-18.738 z M 946.086,224.551 v 40.058 l 174.484,90.469 V 315.664 L 946.086,224.551" style="fill:#5695a3;fill-opacity:1;fill-rule:evenodd;stroke:none" id="path58"/><path d="m 1476,1037.9 -129.62,67.85 45.93,24.7 129.64,-67.85 -45.95,-24.7" style="fill:#cecc12;fill-opacity:1;fill-rule:nonzero;stroke:none" id="path60"/><path d="m 1521.95,1062.6 -129.64,67.85 -1.18,189.97 129.62,-67.86 1.2,-189.96" style="fill:#a5a820;fill-opacity:1;fill-rule:nonzero;stroke:none" id="path62"/><path d="m 1555.14,1358.14 45.88,-30.14 1.59,-254.74 -45.2,-79.1 -160.31,-86.18 -2.26,363.98 z m -33.19,-295.54 -1.2,189.96 -45.94,-24.7 1.19,-189.96 45.95,24.7" style="fill:#c6c815;fill-opacity:1;fill-rule:nonzero;stroke:none" id="path64"/><path d="m 1397.1,907.98 -129.63,67.86 -2.26,363.96 129.63,-67.84 2.26,-363.98" style="fill:#e2a616;fill-opacity:1;fill-rule:nonzero;stroke:none" id="path66"/><path d="m 1394.84,1271.96 -129.63,67.84 160.3,86.2 129.63,-67.86 -160.3,-86.18" style="fill:#f4ed60;fill-opacity:1;fill-rule:nonzero;stroke:none" id="path68"/><path d="m 1551.46,1358.18 47.02,-30.07 4.13,-254.56 -45.22,-79.226 -162.42,-86.344 -5.93,363.84 z m -30.92,-295.51 -3.1,189.89 -46.44,-24.7 3.08,-189.88 46.46,24.69" style="fill:#ffffff;fill-opacity:1;fill-rule:nonzero;stroke:none" id="path70"/><path d="M 90.5273,1581.21 H 61.3672 v 55.08 h 29.1601 l 8.2813,-8.28 v -38.54 z m -6.3476,13.19 v 28.74 h -8.3399 v -28.74 h 8.3399" style="fill:#e2d40f;fill-opacity:1;fill-rule:nonzero;stroke:none" id="path72"/><path d="m 126.895,1636.29 h 14.941 v -47.6 l -7.441,-7.48 H 112.5 l -7.441,7.48 v 47.6 h 14.511 v -41.1 h 7.325 v 41.1" style="fill:#e2d40f;fill-opacity:1;fill-rule:nonzero;stroke:none" id="path74"/><path d="m 162.227,1595.24 h 8.105 v 7.56 h 14.16 v -14.09 l -7.441,-7.5 h -21.895 l -7.441,7.48 v 39.98 l 7.734,7.62 h 21.543 l 7.5,-7.48 v -14.42 h -14.16 v 7.97 h -8.105 v -27.12" style="fill:#e2d40f;fill-opacity:1;fill-rule:nonzero;stroke:none" id="path76"/><path d="m 204.953,1581.21 h -14.941 v 55.08 h 15 v -13.15 l 6.414,13.15 h 17.949 l -13.926,-25.84 16.27,-29.24 h -17.703 l -9.063,16.31 v -16.31" style="fill:#e2d40f;fill-opacity:1;fill-rule:nonzero;stroke:none" id="path78"/></g></g></svg>
