<?xml version="1.0" encoding="utf-8"?>
<!-- Generator: Adobe Illustrator 24.0.2, SVG Export Plug-In . SVG Version: 6.00 Build 0)  -->
<svg version="1.1" id="Layer_1" xmlns="http://www.w3.org/2000/svg" xmlns:xlink="http://www.w3.org/1999/xlink" x="0px" y="0px"
	 viewBox="0 0 4000 4000" style="enable-background:new 0 0 4000 4000;" xml:space="preserve">
<style type="text/css">
	.st0{fill:none;}
	.st1{fill:#FFFFFF;}
	.st2{fill:#85F4FF;}
	.st3{opacity:0.5;}
	.st4{opacity:0.25;}
	.st5{fill:#7A0BC0;}
	.st6{fill:#310047;}
	.st7{fill:#FFC900;}
	.st8{fill:#F76E11;}
	.st9{fill:#FC28FB;}
</style>
<g>
	<g>
		<g>
			<rect class="st0" width="4000" height="4000"/>
		</g>
	</g>
</g>
<g>
	<path class="st1" d="M3160.5,2476.5c0,132.68-26.09,259.55-73.5,375.57c-59.78,146.29-153.46,275.36-271.52,377.14
		c-60.28,51.97-126.91,96.83-198.63,133.24c-122.01,61.96-258.74,99.44-403.93,105.88c-71.42,3.16-144.93,4.66-220.42,4.17
		c-55.12-0.35-109.15-1.75-162.04-4.07c-142.75-6.25-277.39-42.38-397.96-102.22c-73.78-36.6-142.29-82.07-204.17-135.01h-0.01
		c-213.28-182.42-347.82-453.36-347.82-754.7H3160.5z"/>
	<path d="M2020.25,3491.96c-9.31,0-18.6-0.03-27.88-0.09c-53.96-0.34-108.73-1.72-162.76-4.09
		c-142.44-6.24-278.95-41.3-405.72-104.22c-72.51-35.97-140.66-80.69-202.67-132.99h-0.04l-5.45-4.65
		c-54.27-46.42-103.78-98.73-147.13-155.47c-43.62-57.09-81.21-118.92-111.7-183.77c-31.03-65.98-54.9-135.46-70.94-206.53
		c-16.48-72.98-24.83-148.23-24.83-223.66v-19.38h2318.75v19.38c0,132.38-25.21,261.21-74.94,382.9
		c-30.21,73.92-69.28,144.33-116.13,209.27c-46.47,64.41-100.53,123.36-160.68,175.22c-61.84,53.31-129.97,99.02-202.51,135.84
		c-62.77,31.88-129.07,57.18-197.08,75.21c-69.79,18.5-142.04,29.52-214.76,32.75C2149.51,3490.53,2084.53,3491.96,2020.25,3491.96z
		 M1238.74,3214.61l2.18,1.87c61.04,52.23,128.4,96.76,200.18,132.38c121.91,60.5,253.19,94.22,390.2,100.22
		c53.56,2.35,107.83,3.71,161.32,4.05c72.68,0.47,146.52-0.92,219.44-4.15c139.31-6.18,272.55-41.1,396.01-103.8
		c69.76-35.41,135.28-79.37,194.75-130.64c116.28-100.24,208.34-228.12,266.24-369.79c45.39-111.07,69.54-228.34,71.87-348.87
		H900.07C905.55,2772.63,1028.26,3033.52,1238.74,3214.61z"/>
</g>
<g>
	<path class="st1" d="M1241.06,1767.1l-422.87,523.02c-60.5,74.83-7.24,186.38,88.99,186.38h2226.76
		c90.53,0,141.69-103.88,86.51-175.65L2839.94,1806L1241.06,1767.1z"/>
	<path d="M3133.93,2495.88H907.18c-52.05,0-98.32-29.18-120.75-76.16c-22.43-46.97-16.03-101.3,16.7-141.78l428.87-530.44
		l1617.67,39.36l386.14,502.19c30.06,39.1,35.2,90.87,13.41,135.11S3183.25,2495.88,3133.93,2495.88z M1250.13,1786.7l-416.87,515.6
		c-23.6,29.19-28.04,66.84-11.86,100.72c16.17,33.88,48.24,54.1,85.78,54.1h2226.76c34.97,0,65.07-18.73,80.52-50.1
		c15.45-31.37,11.95-66.64-9.37-94.36l-374.87-487.52L1250.13,1786.7z"/>
</g>
<g>
	<path class="st1" d="M1447.5,1630.5c-139.26,196.73-278.51,393.47-417.77,590.2c-25.49,36.02,0.26,85.8,44.39,85.8h1871
		c42.09,0,67.38-46.71,44.37-81.96c-126-193.01-252-386.03-378-579.04c-90.69,51.41-306.88,157.83-600,150
		C1736.78,1788.16,1536.84,1684.26,1447.5,1630.5z"/>
	<path d="M2945.13,2325.88h-1871c-27.69,0-52.79-15.28-65.51-39.87s-10.69-53.91,5.31-76.5l428.16-604.88l15.41,9.27
		c116.96,70.37,308.11,155.65,554.53,162.23c10.25,0.27,20.44,0.41,30.51,0.41c245.76,0.01,438.9-79.57,559.42-147.9l15.83-8.97
		l387.95,594.28c14.76,22.6,15.89,50.27,3.04,74.01S2972.12,2325.88,2945.13,2325.88z M1453,1656.26l-407.46,575.63
		c-7.71,10.89-8.65,24.46-2.52,36.31c6.13,11.85,17.75,18.92,31.09,18.92h1871c12.54,0,23.59-6.58,29.56-17.61
		c5.97-11.03,5.44-23.88-1.41-34.38l-368.13-563.92c-66.99,36.59-138.2,66.83-211.92,89.99c-114.34,35.92-232.31,54.08-351.07,54.08
		c-10.39,0-20.77-0.14-31.17-0.42C1766.74,1808.34,1575.01,1727.07,1453,1656.26z"/>
</g>
<g>
	<path class="st2" d="M1528.03,1649.18c-145.45,216.78-290.9,433.56-436.34,650.33c-2,2.98,0.14,6.98,3.72,6.98h1823.18
		c3.48,0,5.64-3.8,3.85-6.79c-129.77-216.74-259.55-433.47-389.32-650.21c-1.3-2.18-4.16-2.84-6.29-1.46
		c-71.14,46.25-260.95,155.33-523.5,147.46c-231.23-6.93-397.56-100.93-469.14-147.58
		C1532.14,1646.58,1529.4,1647.14,1528.03,1649.18z"/>
	<path d="M2918.59,2325.88H1095.41c-8.83,0-16.9-4.84-21.05-12.63c-4.16-7.79-3.68-17.19,1.24-24.52l436.34-650.33
		c7.23-10.78,21.96-13.78,32.83-6.7c95.9,62.49,253.4,138.28,459.14,144.44c241.49,7.25,424.66-87.32,512.36-144.33
		c5.4-3.51,12.1-4.69,18.38-3.24c6.28,1.45,11.78,5.46,15.09,11l389.31,650.2c4.41,7.36,4.52,16.56,0.29,24.02
		C2935.12,2321.24,2927.16,2325.88,2918.59,2325.88z M1123.33,2287.13h1768.98l-367.95-614.53
		c-56.35,35.28-117.14,64.75-180.94,87.7c-110.33,39.68-224.94,58.04-340.67,54.57c-102.66-3.08-203.84-23.32-300.74-60.15
		c-58.16-22.11-113.93-49.88-166.01-82.63L1123.33,2287.13z M1544.12,1659.98l-0.04,0.05
		C1544.09,1660.01,1544.11,1660,1544.12,1659.98L1544.12,1659.98z"/>
</g>
<g class="st3">
	<path class="st1" d="M2515.99,2153.36c2,42.63-253.09,107.48-504.47,103.3c-256.1-4.25-513.22-80.23-509.48-123.36
		c4.24-48.94,344.48-56.44,515.63-52.65C2177.98,2084.2,2513.71,2104.81,2515.99,2153.36z"/>
</g>
<g>
	<path class="st1" d="M1432.5,3366.21v64.26c0,28.17-11.42,53.68-29.88,72.15c-18.47,18.46-43.98,29.88-72.15,29.88
		c-56.33,0-102-45.64-102.03-101.97l-0.12-199.33h0.01C1290.21,3284.14,1358.72,3329.61,1432.5,3366.21z"/>
	<path d="M1330.47,3551.88c-66.91,0-121.37-54.43-121.41-121.33l-0.13-218.71h26.54l5.45,4.65
		c61.04,52.23,128.4,96.76,200.18,132.38l10.77,5.34v76.28c0,32.42-12.63,62.91-35.55,85.85
		C1393.38,3539.25,1362.89,3551.88,1330.47,3551.88z M1247.72,3272.17l0.1,158.34c0.02,45.55,37.1,82.61,82.65,82.61
		c22.07,0,42.83-8.6,58.45-24.21c15.6-15.61,24.2-36.37,24.2-58.45v-52.32C1354.76,3348.32,1299.31,3312.78,1247.72,3272.17z"/>
</g>
<g>
	<path class="st1" d="M2722.81,3532.46c-0.8,0.02-1.6,0.03-2.4,0.03c-55.26,0-100.67-44.15-101.95-99.69l-1.61-70.35
		c71.72-36.41,138.35-81.27,198.63-133.24l2.53-0.32l4.46,199.29C2823.73,3484.49,2779.12,3531.17,2722.81,3532.46z"/>
	<path d="M2720.41,3551.87c-31.84,0-61.94-12.26-84.75-34.53c-22.85-22.3-35.83-52.17-36.57-84.09l-1.89-82.55l10.88-5.52
		c69.75-35.41,135.28-79.37,194.75-130.64l4.43-3.82l29.64-3.74l4.94,220.77c1.5,66.88-51.68,122.53-118.55,124.08
		C2722.33,3551.85,2721.37,3551.87,2720.41,3551.87z M2636.5,3374.12l1.33,58.24c1.03,44.53,38.07,80.76,82.58,80.76
		c0.63,0,1.27-0.01,1.9-0.02l0.05,0c45.54-1.04,81.75-38.94,80.73-84.48l-3.6-160.94
		C2748.67,3308.33,2694.02,3344.03,2636.5,3374.12z"/>
</g>
<g class="st4">
	<path d="M1193.51,2151.92c0,0,851.03-453.26,1650.26,16.41l-206.39-344.7l-1241.83,23L1193.51,2151.92z"/>
</g>
<g>
	<path class="st1" d="M1578.22,2051.99c6.07-23.74,13.81-51.69,23.28-81.49c0,0-466.72-109.87-609.32-610.82
		c-12.19-42.81,10.99-87.73,52.93-102.64l115.38-41.02c43.35-15.41,90.97,6.76,107.29,49.78
		c44.85,118.22,162.38,332.74,436.05,388.2c4.87,0.99,9.83,1.56,14.8,1.69l421.87,10.82l219.71-4.03c2.02-0.04,4.05-0.14,6.06-0.32
		c281.08-25.39,421.15-228.45,478.15-342.12c20.63-41.13,70.26-58.33,111.81-38.57l110.59,52.58
		c40.2,19.11,58.67,66.17,42.18,107.51c-192.99,483.78-668.49,545.44-668.49,545.44c6.2,29.75,10.95,57.6,14.53,81.39
		c6.72,44.67-21.56,87.09-65.32,98.33c-96.75,24.85-223.19,46.28-371.23,43.79c-155.66-2.61-286.94-30.85-385.49-61
		C1591.62,2136.84,1567.51,2093.91,1578.22,2051.99z"/>
	<path d="M2041.89,2230.07c-7.91,0-15.81-0.07-23.71-0.2c-132.46-2.22-263.96-23.03-390.84-61.84
		c-51.37-15.71-81.19-68.79-67.88-120.84v0c5.49-21.5,11.4-42.72,17.63-63.34c-39.6-11.91-132.91-44.72-237.55-114.8
		c-79.77-53.43-149.48-117.55-207.19-190.57c-72.15-91.3-125.58-196.77-158.8-313.49c-14.94-52.48,13.65-107.92,65.08-126.21
		l115.38-41.02c25.77-9.16,53.63-7.86,78.44,3.66c24.77,11.51,43.76,31.93,53.46,57.5c44.61,117.57,158.72,322.78,421.78,376.08
		c3.8,0.77,7.66,1.21,11.45,1.31l421.45,10.81l219.28-4.02c1.62-0.03,3.19-0.11,4.67-0.25c270.06-24.39,405.74-218.17,462.58-331.51
		c12.26-24.45,33.23-42.83,59.05-51.74c25.85-8.93,53.7-7.38,78.4,4.37l110.59,52.58c49.3,23.44,72.08,81.5,51.86,132.19
		c-44.96,112.71-108.88,212.18-189.97,295.64c-64.86,66.75-140.75,123.42-225.56,168.43c-111.25,59.04-207.42,82.16-248.03,89.96
		c3.96,20.47,7.57,41.49,10.76,62.73c8.22,54.62-26.03,106.2-79.66,119.98C2279.24,2215.09,2160.72,2230.07,2041.89,2230.07z
		 M1597,2056.78c-8.17,31.96,10.14,64.54,41.68,74.19c123.41,37.75,251.31,57.99,380.15,60.15
		c123.31,2.07,246.47-12.46,366.08-43.19c34.31-8.81,56.23-41.78,50.98-76.68c-4.12-27.41-8.95-54.43-14.34-80.32l-4.26-20.48
		l20.74-2.69c1.15-0.15,118.19-16.15,256.63-89.92c127.13-67.74,299.08-199.66,396.35-443.48c12.67-31.76-1.61-68.14-32.51-82.83
		l-110.59-52.58c-31.72-15.08-70.38-1.74-86.17,29.75c-28.43,56.69-79.19,139.14-159.55,210.01
		c-94.34,83.19-206.77,131.21-334.17,142.72c-2.39,0.22-4.9,0.35-7.45,0.4l-220.13,4.04l-0.43-0.01l-421.87-10.82
		c-6.04-0.15-12.15-0.85-18.15-2.07c-124.08-25.15-229.81-84.51-314.25-176.45c-72-78.39-113.73-165.01-136.06-223.87
		c-12.5-32.94-49.59-50.16-82.69-38.39l-115.38,41.02c-32.23,11.46-50.15,46.2-40.79,79.08
		c71.87,252.47,229.46,401.26,349.01,481.62c130.19,87.51,244.99,115.38,246.13,115.65l20.32,4.82l-6.31,19.91
		C1611.76,2002.2,1604.03,2029.25,1597,2056.78L1597,2056.78z"/>
</g>
<g>
	<path d="M2701.85,1341.58c0,0-23.64,23.19-29.73,34.41c-6.09,11.22-7.65-31.4,20.01-44.6L2701.85,1341.58z"/>
</g>
<g>

		<ellipse transform="matrix(0.2149 -0.9766 0.9766 0.2149 874.2028 2770.793)" class="st1" cx="2160.54" cy="841.64" rx="272.03" ry="490.51"/>
	<path d="M2283.02,1145.11c-59.51,0-121.96-6.89-184.71-20.7c-130.81-28.79-247.81-84.31-329.43-156.33
		c-40.45-35.69-70.18-73.64-88.37-112.79c-19.42-41.81-24.84-83.14-16.11-122.83c8.74-39.7,31-74.93,66.19-104.72
		c32.95-27.9,75.86-49.86,127.56-65.27c104.32-31.1,233.82-32.37,364.62-3.59c130.81,28.79,247.8,84.31,329.43,156.33
		c40.45,35.69,70.18,73.64,88.37,112.79c19.42,41.81,24.84,83.14,16.11,122.83c-8.74,39.7-31,74.93-66.19,104.72
		c-32.95,27.9-75.86,49.86-127.56,65.27C2408.66,1137,2347.57,1145.11,2283.02,1145.11z M2037.99,573.14
		c-61.09,0-118.76,7.63-169.85,22.86c-95.15,28.37-155.37,79.5-169.56,143.97s19,136.16,93.45,201.85
		c77.25,68.16,188.69,120.86,313.8,148.39c60.35,13.28,120.3,19.91,177.25,19.92c61.1,0,118.75-7.63,169.85-22.86
		c95.15-28.37,155.37-79.5,169.56-143.97c14.19-64.47-19-136.16-93.46-201.85c-77.25-68.16-188.69-120.86-313.8-148.39
		C2154.89,579.77,2094.95,573.14,2037.99,573.14z"/>
</g>
<g>
	<path d="M2282.66,1145.07c-59.51,0-121.96-6.89-184.71-20.7c-130.81-28.79-247.8-84.31-329.43-156.33
		c-40.45-35.69-70.18-73.64-88.37-112.79c-19.42-41.81-24.84-83.14-16.11-122.83c8.74-39.7,31-74.93,66.19-104.72
		c32.95-27.9,75.86-49.86,127.56-65.27c104.32-31.1,233.81-32.38,364.62-3.59c130.81,28.79,247.8,84.31,329.43,156.33
		c40.45,35.69,70.18,73.64,88.37,112.79c19.42,41.81,24.84,83.13,16.11,122.83l0,0c-8.74,39.7-31,74.93-66.19,104.72
		c-32.95,27.9-75.86,49.86-127.56,65.27C2408.3,1136.97,2347.2,1145.07,2282.66,1145.07z M2037.63,573.11
		c-61.09,0-118.76,7.63-169.85,22.86c-95.15,28.37-155.37,79.5-169.56,143.97s19,136.16,93.45,201.85
		c77.25,68.16,188.69,120.86,313.8,148.39c125.11,27.53,248.38,26.49,347.1-2.95c95.16-28.37,155.37-79.5,169.56-143.97l17.09,3.76
		l-17.09-3.76c14.19-64.47-19-136.16-93.46-201.85c-77.25-68.16-188.69-120.86-313.8-148.39
		C2154.52,579.74,2094.58,573.11,2037.63,573.11z"/>
</g>
<g>
	<path class="st5" d="M1487.12,1168.41L1487.12,1168.41c-44.21-9.73-72.17-53.46-62.44-97.67l25.53-115.98
		c9.73-44.21,53.46-72.17,97.67-62.44l0,0c44.21,9.73,72.17,53.46,62.44,97.67l-25.53,115.99
		C1575.06,1150.19,1531.33,1178.14,1487.12,1168.41z"/>
	<path d="M1504.75,1187.84c-7.06,0-14.22-0.76-21.4-2.34c-25.95-5.71-48.12-21.18-62.43-43.57s-19.05-49-13.34-74.95l25.53-115.98
		c11.79-53.57,64.96-87.55,118.52-75.76c25.95,5.71,48.12,21.18,62.43,43.57c14.31,22.39,19.05,49,13.34,74.95l-25.53,115.99
		C1591.67,1156.13,1550.42,1187.83,1504.75,1187.84z M1530.25,907.89c-29.6,0-56.33,20.55-62.95,50.62l-25.53,115.98
		c-3.7,16.82-0.63,34.07,8.64,48.58c9.27,14.51,23.64,24.54,40.46,28.24c16.82,3.7,34.07,0.63,48.58-8.64
		c14.51-9.27,24.54-23.64,28.24-40.46l25.53-115.99c7.64-34.72-14.39-69.18-49.11-76.82
		C1539.47,908.39,1534.83,907.89,1530.25,907.89z"/>
</g>
<g class="st3">
	<path class="st1" d="M1550.98,943.33c0,0-89.21-47.43-126.3,127.41c0,0,5.42-211.57,142.52-171.56L1550.98,943.33z"/>
</g>
<g>
	<path d="M1504.75,1187.84c-7.06,0-14.22-0.76-21.4-2.34c-25.95-5.71-48.12-21.18-62.43-43.57s-19.05-49-13.34-74.95l25.53-115.98
		c11.79-53.57,64.96-87.55,118.52-75.76c25.95,5.71,48.12,21.18,62.43,43.57c14.31,22.39,19.05,49,13.34,74.95l-25.53,115.99
		C1591.67,1156.13,1550.42,1187.83,1504.75,1187.84z M1530.25,907.89c-29.6,0-56.33,20.55-62.95,50.62l-25.53,115.98
		c-3.7,16.82-0.63,34.07,8.64,48.58c9.27,14.51,23.64,24.54,40.46,28.24c16.82,3.7,34.07,0.63,48.58-8.64
		c14.51-9.27,24.54-23.64,28.24-40.46l25.53-115.99c7.64-34.72-14.39-69.18-49.11-76.82
		C1539.47,908.39,1534.83,907.89,1530.25,907.89z"/>
</g>
<g>
	<path class="st5" d="M2648.87,1424.08L2648.87,1424.08c-44.21-9.73-72.17-53.46-62.44-97.67l25.53-115.98
		c9.73-44.21,53.46-72.17,97.67-62.44l0,0c44.21,9.73,72.17,53.46,62.44,97.67l-25.53,115.98
		C2736.81,1405.86,2693.08,1433.81,2648.87,1424.08z"/>
	<path d="M2666.51,1443.51c-7.06,0-14.22-0.76-21.4-2.34l0,0c-25.95-5.71-48.12-21.18-62.43-43.57
		c-14.31-22.39-19.05-49.01-13.33-74.95l25.53-115.98c5.71-25.95,21.18-48.12,43.57-62.43c22.39-14.31,49-19.05,74.95-13.34
		c53.57,11.79,87.55,64.96,75.77,118.52l-25.53,115.99C2753.42,1411.8,2712.17,1443.51,2666.51,1443.51z M2691.89,1163.55
		c-12.17,0-24.1,3.46-34.6,10.17c-14.51,9.27-24.54,23.64-28.24,40.46l-25.53,115.98c-3.7,16.82-0.63,34.07,8.64,48.58
		c9.28,14.51,23.65,24.54,40.46,28.24l0,0c4.65,1.02,9.29,1.51,13.87,1.51c29.6,0,56.33-20.55,62.95-50.62l25.53-115.98
		c7.64-34.72-14.39-69.18-49.11-76.82C2701.22,1164.06,2696.54,1163.55,2691.89,1163.55z"/>
</g>
<g class="st3">
	<path class="st1" d="M2688.64,1193.4c0,0,101,2.5,47.44,173.01c0,0,99.19-186.95-39.89-219.44L2688.64,1193.4z"/>
</g>
<g>
	<path d="M2666.51,1443.51c-7.06,0-14.22-0.76-21.4-2.34l0,0c-25.95-5.71-48.12-21.18-62.43-43.57
		c-14.31-22.39-19.05-49.01-13.33-74.95l25.53-115.98c5.71-25.95,21.18-48.12,43.57-62.43c22.39-14.31,49-19.05,74.95-13.34
		c53.57,11.79,87.55,64.96,75.77,118.52l-25.53,115.99C2753.42,1411.8,2712.17,1443.51,2666.51,1443.51z M2691.89,1163.55
		c-12.17,0-24.1,3.46-34.6,10.17c-14.51,9.27-24.54,23.64-28.24,40.46l-25.53,115.98c-3.7,16.82-0.63,34.07,8.64,48.58
		c9.28,14.51,23.65,24.54,40.46,28.24l0,0c4.65,1.02,9.29,1.51,13.87,1.51c29.6,0,56.33-20.55,62.95-50.62l25.53-115.98
		c7.64-34.72-14.39-69.18-49.11-76.82C2701.22,1164.06,2696.54,1163.55,2691.89,1163.55z"/>
</g>
<g>
	<path class="st1" d="M2674.24,1310.85c-34.9,153.87-132.85,247.49-198.37,308.45c-84.56,78.68-177.46,165.11-325.21,161.73
		c-47.54-1.09-93.01-11.34-183.95-31.84c-100.25-22.6-164.73-37.14-223.14-70.71c-66.8-38.4-102.88-88.61-137.17-157.64
		c-64.15-129.12-133.89-269.5-98.43-449.38c7.06-35.81,89.74-421.26,423.45-449.01c111.45-9.27,253.25,21.16,277.43,26.49
		c31.54,6.95,159.37,35.12,254.26,88.36C2759.75,903.73,2680.19,1284.63,2674.24,1310.85z"/>
	<path d="M2159.08,1798.63c-2.93,0-5.85-0.03-8.82-0.1c-49.29-1.13-95.44-11.54-187.4-32.27
		c-100.75-22.71-167.31-37.72-228.01-72.61c-72.19-41.49-109.82-95.98-144.12-165.02c-32.58-65.57-66.26-133.38-87.72-208.64
		c-24.61-86.31-28.6-168.71-12.2-251.9c4.02-20.4,27.33-127.52,91.44-233.22c37.45-61.74,82.13-112.09,132.81-149.64
		c62.88-46.59,135.19-73.58,214.92-80.21c108.36-9.01,243.73,18.27,282.64,26.84c133.82,29.49,214.74,65.32,259.06,90.19
		c70.67,39.65,126.38,94.39,165.59,162.69c31.52,54.92,52.46,118.69,62.23,189.53c17.04,123.58-5.54,228.86-8.17,240.46v0
		c-15.99,70.51-45.65,134.48-90.68,195.58c-36.42,49.41-75.71,87.27-112.84,121.82C2403.81,1710.26,2308.82,1798.63,2159.08,1798.63
		z M1976.64,638.19c-14.91,0-29.59,0.52-43.78,1.7c-133.78,11.13-241.68,82.83-320.71,213.12
		c-61.05,100.65-83.2,202.45-87.02,221.84c-34.31,174.03,32.41,308.33,96.93,438.21c32.37,65.16,65.44,113.02,130.22,150.25
		c56.11,32.25,120.62,46.8,218.27,68.81c89.69,20.22,134.71,30.37,180.5,31.42c2.7,0.06,5.39,0.09,8.05,0.09
		c135.97,0.01,221.78-79.85,304.84-157.14c59.4-55.27,158.81-147.76,193.23-299.51v0c2.49-10.96,23.82-110.49,7.63-227.94
		c-20.67-149.96-91.42-259.8-210.27-326.48c-42.26-23.71-119.84-57.96-249.46-86.53C2172.55,658.87,2070.49,638.19,1976.64,638.19z"
		/>
</g>
<g>
	<path d="M2159.08,1798.63c-2.93,0-5.85-0.03-8.82-0.1c-49.29-1.13-95.44-11.54-187.4-32.27
		c-100.75-22.71-167.31-37.72-228.01-72.61c-72.19-41.49-109.82-95.98-144.12-165.02c-32.58-65.57-66.26-133.38-87.72-208.64
		c-24.61-86.31-28.6-168.71-12.2-251.9c4.02-20.4,27.33-127.52,91.44-233.22c37.45-61.74,82.13-112.09,132.81-149.64
		c62.88-46.59,135.19-73.58,214.92-80.21c108.36-9.01,243.73,18.27,282.64,26.84c133.82,29.49,214.74,65.32,259.06,90.19
		c70.67,39.65,126.38,94.39,165.59,162.69c31.52,54.92,52.46,118.69,62.23,189.53c17.04,123.58-5.54,228.86-8.17,240.46v0
		c-15.99,70.51-45.65,134.48-90.68,195.58c-36.42,49.41-75.71,87.27-112.84,121.82C2403.81,1710.26,2308.82,1798.63,2159.08,1798.63
		z M1976.64,638.19c-14.91,0-29.59,0.52-43.78,1.7c-133.78,11.13-241.68,82.83-320.71,213.12
		c-61.05,100.65-83.2,202.45-87.02,221.84c-34.31,174.03,32.41,308.33,96.93,438.21c32.37,65.16,65.44,113.02,130.22,150.25
		c56.11,32.25,120.62,46.8,218.27,68.81c89.69,20.22,134.71,30.37,180.5,31.42c2.7,0.06,5.39,0.09,8.05,0.09
		c135.97,0.01,221.78-79.85,304.84-157.14c59.4-55.27,158.81-147.76,193.23-299.51v0c2.49-10.96,23.82-110.49,7.63-227.94
		c-20.67-149.96-91.42-259.8-210.27-326.48c-42.26-23.71-119.84-57.96-249.46-86.53C2172.55,658.87,2070.49,638.19,1976.64,638.19z"
		/>
</g>
<g>
	<path class="st6" d="M2281.52,1628.38c-117.66,63.9-300.7,15.91-300.7,15.91c-184.64-36.31-260.44-154.52-260.44-154.52
		c-161.48-204.03-89.32-481.93-89.32-481.93c63.58-301.39,541.53-172.45,541.53-172.45s421.76,84.18,420.3,340.92
		C2592.9,1176.3,2581.55,1465.43,2281.52,1628.38z"/>
	<path d="M2125.68,1679.12c-12.86,0-26.12-0.45-39.79-1.36c-58.57-3.88-103.25-14.94-108.95-16.4
		c-98.63-19.5-166.78-62.06-206.6-94.36c-40.35-32.73-60.62-61.69-64.15-66.97c-38-48.18-66.5-104.28-84.69-166.75
		c-14.53-49.9-22.55-103.93-23.83-160.6c-2.11-93.57,14.69-162.31,16.35-168.84c14.91-70.26,52.34-124.18,111.23-160.27
		c38.6-23.65,86.63-39.6,142.77-47.42c44.2-6.16,93.6-7.32,146.8-3.47c86.94,6.3,154.45,23.71,161.77,25.65
		c9.44,1.93,111.27,23.45,214.59,75.61c63.07,31.84,113.44,68.55,149.71,109.11c46.48,51.99,69.87,110.31,69.51,173.34l-0.01,0.59
		c-0.12,3.09-3.44,76.65-44.62,171.23c-24.13,55.42-56.35,106.63-95.78,152.22c-49.22,56.92-109.82,105.13-180.12,143.31
		C2246.58,1667.27,2191.47,1679.12,2125.68,1679.12z M1955.98,825.51c-70.12,0-151.07,10.29-212.5,47.95
		c-50.44,30.92-82.5,77.35-95.29,137.99l-0.19,0.79c-0.17,0.67-17.53,69.02-15.32,160.69c2.02,83.68,21.25,204.69,101.42,305.98
		l0.54,0.68l0.47,0.73c0.16,0.25,18.67,28.46,58.51,60.5c36.66,29.48,99.47,68.38,190.57,86.3l1.06,0.24
		c1.76,0.46,177.83,45.42,287.91-14.36l8.35,15.38l-8.35-15.38c149.99-81.46,224.13-195.79,259.9-277.36
		c37.79-86.16,42.08-155.11,42.33-159.8c0.4-99.13-66.88-183.46-199.99-250.65c-101.95-51.47-205.21-72.44-206.24-72.64l-1.13-0.27
		c-0.68-0.18-69.46-18.5-156.42-24.73C1994.37,826.31,1975.6,825.51,1955.98,825.51z"/>
</g>
<g>
	<path d="M2125.68,1679.12c-12.86,0-26.12-0.45-39.79-1.36c-58.57-3.88-103.25-14.94-108.95-16.4
		c-98.63-19.5-166.78-62.06-206.6-94.36c-40.35-32.73-60.62-61.69-64.15-66.97c-38-48.18-66.5-104.28-84.69-166.75
		c-14.53-49.9-22.55-103.93-23.83-160.6c-2.11-93.57,14.69-162.31,16.35-168.84c14.91-70.26,52.34-124.18,111.23-160.27
		c38.6-23.65,86.63-39.6,142.77-47.42c44.2-6.16,93.6-7.32,146.8-3.47c86.94,6.3,154.45,23.71,161.77,25.65
		c9.44,1.93,111.27,23.45,214.59,75.61c63.07,31.84,113.44,68.55,149.71,109.11c46.48,51.99,69.87,110.31,69.51,173.34l-0.01,0.59
		c-0.12,3.09-3.44,76.65-44.62,171.23c-24.13,55.42-56.35,106.63-95.78,152.22c-49.22,56.92-109.82,105.13-180.12,143.31
		C2246.58,1667.27,2191.47,1679.12,2125.68,1679.12z M1955.98,825.51c-70.12,0-151.07,10.29-212.5,47.95
		c-50.44,30.92-82.5,77.35-95.29,137.99l-0.19,0.79c-0.17,0.67-17.53,69.02-15.32,160.69c2.02,83.68,21.25,204.69,101.42,305.98
		l0.54,0.68l0.47,0.73c0.16,0.25,18.67,28.46,58.51,60.5c36.66,29.48,99.47,68.38,190.57,86.3l1.06,0.24
		c1.76,0.46,177.83,45.42,287.91-14.36l8.35,15.38l-8.35-15.38c149.99-81.46,224.13-195.79,259.9-277.36
		c37.79-86.16,42.08-155.11,42.33-159.8c0.4-99.13-66.88-183.46-199.99-250.65c-101.95-51.47-205.21-72.44-206.24-72.64l-1.13-0.27
		c-0.68-0.18-69.46-18.5-156.42-24.73C1994.37,826.31,1975.6,825.51,1955.98,825.51z"/>
</g>
<g class="st4">
	<path d="M1501.21,1071.1c0,0-75.96-14.85-57.1-88.67l-20.51,94.25c0,0-6.95,75.44,74.25,93.36L1501.21,1071.1z"/>
</g>
<g class="st4">
	<path d="M2756.25,1317.52c0,0-33.96,42.29-91.41,28.69l-29.32,73.71C2635.52,1419.93,2734.23,1444.86,2756.25,1317.52z"/>
</g>
<g class="st4">
	<path d="M2455.18,951.86c0,0-34.13,596.4-636.29,628.62c0,0,204.31,130.56,430.33,62.24c226.02-68.32,300.07-300.5,300.07-300.5
		S2697.03,1109.38,2455.18,951.86z"/>
</g>
<g class="st4">
	<path d="M2462.34,737.17c0,0,107.5,150.27,51.76,265.02c0,0,131.81,116.1,65.84,250.84c-65.97,134.74-107.66,217.57-107.66,217.57
		s-159.67,164.14-238.59,177.13c-78.92,12.99-58.51,11.26-58.51,11.26s-113.56,81.37-233.7,84.5c0,0,232.56,65.32,336.46,11.33
		c103.9-53.99,253.49-189.71,253.49-189.71s176.97-188.61,152.55-418.66s-85.78-289.96-85.78-289.96S2504.53,758.85,2462.34,737.17z
		"/>
</g>
<g class="st4">
	<path d="M2510.17,759.85c0,0-25.09-55.3-53.69-92.23c0,0,173.88,101.62,186.14,232.63l-31.07-25.56L2510.17,759.85z"/>
</g>
<g class="st3">
	<path class="st1" d="M1999.72,876.53c0,0-305.39-51.99-316.57,227.25C1683.15,1103.78,1771.09,938.14,1999.72,876.53z"/>
</g>
<g class="st4">
	<path d="M1613.53,1638.44c0,0,80.18,103.51,213.19,135.54s249.59,56.88,249.59,56.88c18.51,4.11,44.03,8.34,74.55,8.96
		c10.79,0.22,71.02,0.97,126.15-18.82c102.05-36.63,154.73-132.21,168-158c-49.64,29.75-99.28,59.51-148.92,89.26
		c0,0-106.96,40.67-262.89,12.85c-155.93-27.82-230.45-57.94-230.45-57.94s-105.27-44.98-142.2-98.74L1613.53,1638.44z"/>
</g>
<g>
	<path class="st7" d="M940.58,1331.31c85.7,71.1,190.48,51.48,205.1,48.49l145.24-56.94c0,0,52.49-20.2,66.53-69.09
		c14.61-50.85-5.28-110.89-57.23-146.68c15.78-34.7,17.81-75.63,2.18-113.83c-29.43-71.92-111.73-107.44-184.26-79.56
		c-74.39,28.6-111.17,112.24-82.13,186.33c6.55,16.71,15.89,31.5,27.28,44.05c12.36,13.62,9.08,35.28-6.72,44.69
		c-13.38,7.97-29.46,15.68-48.24,21.47c-38.56,11.89-73.97,11.21-101.12,7.05c-20.43-3.13-36.03,18-26.99,36.59
		C892.06,1278.23,910.85,1306.64,940.58,1331.31z"/>
	<path d="M1095.33,1402.02c-8.46,0-17.57-0.36-27.17-1.25c-53.28-4.96-99.96-23.8-138.75-55.98l0,0
		c-27.19-22.56-49.04-50.57-64.94-83.25c-7.04-14.46-5.47-31.5,4.08-44.46c9.56-12.98,25.39-19.52,41.3-17.08
		c32.06,4.92,63.45,2.74,93.31-6.47c15.46-4.77,30.41-11.42,44.44-19.78c4.13-2.46,5.27-6.29,5.58-8.36
		c0.31-2.05,0.34-6.01-2.86-9.54c-13.12-14.46-23.42-31.09-30.61-49.42c-15.77-40.22-14.86-84.15,2.57-123.69
		c17.42-39.54,49.23-69.85,89.57-85.36c39.38-15.14,82.53-14.21,121.51,2.62c38.98,16.83,69.25,47.6,85.23,86.65
		c15.19,37.12,16.11,77.29,2.87,114.56c47.91,39.28,69.05,100.89,52.81,157.41c-16.15,56.22-73.79,79.32-77.01,80.57l-146.6,57.47
		l-1.48,0.3C1140.56,1398.71,1120.97,1402.02,1095.33,1402.02z M951.76,1317.84c75.27,62.44,167.63,49.24,188.98,45.1l143.9-56.41
		c0.39-0.15,44.61-17.94,56-57.59c13.31-46.32-6.92-97.53-50.34-127.44l-12.07-8.31l6.07-13.34c14.53-31.95,15.21-67.45,1.91-99.96
		c-25.74-62.91-98.32-94.25-161.79-69.85c-31.57,12.14-56.47,35.86-70.1,66.8c-13.64,30.94-14.35,65.32-2.01,96.8
		c5.63,14.36,13.69,27.37,23.94,38.68c9.42,10.38,13.63,24.32,11.55,38.23c-2.08,13.94-10.2,26.06-22.28,33.25
		c-16.42,9.78-33.92,17.57-52.04,23.16c-34.96,10.78-71.61,13.34-108.93,7.62c-4.4-0.67-6.93,2.05-7.82,3.25
		c-0.88,1.2-2.72,4.41-0.78,8.39C909.65,1274.39,928.43,1298.49,951.76,1317.84L951.76,1317.84z"/>
</g>
<g class="st3">
	<path class="st1" d="M1080.95,1139.34c7.23,18.03,16.28,25.78,23.38,29.5c4.67,2.45,12.03,5,14.22,11.61
		c1.59,4.8-0.31,9.43-1.01,11.14c-9.02,22-53.75,38.26-53.75,38.26c-49.85,18.12-90.53,20.55-100.24,21.04
		c-13.01,0.65-24.79,0.55-34.97,0.08c-9.04-0.41-15.28,8.93-11.45,17.12c3.37,7.21,7.27,14.71,11.77,22.39
		c13.6,23.19,34.83,51.88,65.36,73.84c0,0-133.35-81.64-116.97-128.55c2.92-8.37,9.73-12.95,9.73-12.95
		c13.35-9.66,32.45-3.44,41.46-1.15c42.27,10.75,94.09-6.16,120.72-29.07C1058.01,1185.02,1072.6,1169.45,1080.95,1139.34z"/>
</g>
<g class="st3">
	<path class="st1" d="M1064.67,1130.68c-18.33-52.65-8.59-110.23,26.47-148.93c45.58-50.33,127.15-61.26,192.48-21.22
		c0,0-93.07-124.56-225-3.87c0,0-54.8,57.16-24.17,140.75L1064.67,1130.68z"/>
</g>
<g>
	<path d="M1095.33,1402.02c-8.46,0-17.57-0.36-27.17-1.25c-53.28-4.96-99.96-23.8-138.75-55.98l0,0
		c-27.19-22.56-49.04-50.57-64.94-83.25c-7.04-14.46-5.47-31.5,4.08-44.46c9.56-12.98,25.39-19.52,41.3-17.08
		c32.06,4.92,63.45,2.74,93.31-6.47c15.46-4.77,30.41-11.42,44.44-19.78c4.13-2.46,5.27-6.29,5.58-8.36
		c0.31-2.05,0.34-6.01-2.86-9.54c-13.12-14.46-23.42-31.09-30.61-49.42c-15.77-40.22-14.86-84.15,2.57-123.69
		c17.42-39.54,49.23-69.85,89.57-85.36c39.38-15.14,82.53-14.21,121.51,2.62c38.98,16.83,69.25,47.6,85.23,86.65
		c15.19,37.12,16.11,77.29,2.87,114.56c47.91,39.28,69.05,100.89,52.81,157.41c-16.15,56.22-73.79,79.32-77.01,80.57l-146.6,57.47
		l-1.48,0.3C1140.56,1398.71,1120.97,1402.02,1095.33,1402.02z M951.76,1317.84c75.27,62.44,167.63,49.24,188.98,45.1l143.9-56.41
		c0.39-0.15,44.61-17.94,56-57.59c13.31-46.32-6.92-97.53-50.34-127.44l-12.07-8.31l6.07-13.34c14.53-31.95,15.21-67.45,1.91-99.96
		c-25.74-62.91-98.32-94.25-161.79-69.85c-31.57,12.14-56.47,35.86-70.1,66.8c-13.64,30.94-14.35,65.32-2.01,96.8
		c5.63,14.36,13.69,27.37,23.94,38.68c9.42,10.38,13.63,24.32,11.55,38.23c-2.08,13.94-10.2,26.06-22.28,33.25
		c-16.42,9.78-33.92,17.57-52.04,23.16c-34.96,10.78-71.61,13.34-108.93,7.62c-4.4-0.67-6.93,2.05-7.82,3.25
		c-0.88,1.2-2.72,4.41-0.78,8.39C909.65,1274.39,928.43,1298.49,951.76,1317.84L951.76,1317.84z"/>
</g>
<g>
	<g>
		<g>
			<path d="M1292.82,1074.19l0.03-0.08c0-0.01,0.01-0.03,0.01-0.03l0,0.05l0,0.19c0,0.11-0.01,0.29-0.03,0.47
				c-0.03,0.34-0.06,0.7-0.11,1.1c-0.08,0.76-0.22,1.58-0.35,2.39l-0.47,2.49l-0.58,2.53c-0.83,3.39-1.93,6.8-3.18,10.17
				c-2.57,6.73-5.85,13.33-9.92,19.52c-4.06,6.2-8.82,12.04-14.2,17.41c-5.41,5.35-11.44,10.19-17.92,14.55
				c-12.96,8.77-27.87,15.17-43.48,19.82c-15.64,4.66-32.05,7.36-48.64,8.77c16.58,1.51,33.45,1.75,50.36-0.19
				c16.88-1.94,33.92-5.83,50.11-13.02c8.09-3.57,15.98-7.87,23.44-13.02c7.43-5.17,14.44-11.16,20.79-17.89
				c6.37-6.72,12-14.23,16.88-22.33c2.41-4.07,4.66-8.27,6.63-12.69l1.44-3.36c0.45-1.15,0.91-2.29,1.34-3.46
				c0.42-1.19,0.85-2.36,1.24-3.63c0.2-0.61,0.39-1.27,0.58-1.94c0.09-0.33,0.19-0.66,0.29-1.06l0.14-0.57l0.04-0.14l0.05-0.22
				l0.09-0.46L1292.82,1074.19z"/>
		</g>
	</g>
</g>
<g>
	<path class="st8" d="M1281.9,1014.91c12.83,3.99,25.45,8.8,38.59,11.63c8.76,1.89,18.5,3.41,28.63,3.94
		c15.76,0.83,22.68,20.36,11.05,31.03c-21.79,19.99-51.38,39.59-79.45,33.59c-8.9-1.9-16.24-8.43-18.59-17.22
		c-0.09-0.35-0.18-0.71-0.26-1.07c-1.76-7.84,0.44-14.4,2.13-17.96c0.77-1.62,0.62-3.51-0.35-5.02c-1.77-2.75-3.65-6.48-4.68-11.14
		c-2.28-10.34-0.24-24.77,8-28.91C1271.32,1011.59,1275.9,1013.04,1281.9,1014.91z"/>
	<path d="M1291.48,1109.74c-4.61,0-9.14-0.47-13.59-1.43c-14.14-3.02-25.18-13.34-28.81-26.94c-0.14-0.52-0.27-1.06-0.39-1.6
		c-1.99-8.91-0.66-16.67,1.36-22.46c-1.95-3.72-3.38-7.64-4.27-11.7c-3.58-16.22,0.46-36.5,15.11-43.88
		c9.2-4.63,17.89-1.93,24.88,0.25l0.15,0.05c3.85,1.2,7.68,2.47,11.39,3.7c8.96,2.97,17.43,5.77,26.03,7.63
		c9.2,1.99,18.12,3.22,26.49,3.66c12.79,0.67,23.43,8.59,27.77,20.67c4.3,11.95,1.04,25.21-8.3,33.78
		C1341.55,1096.91,1315.45,1109.74,1291.48,1109.74z M1272.99,1026.38c-1.12,2.35-2.06,7.91-0.85,13.41
		c0.52,2.34,1.47,4.61,2.85,6.74c3.52,5.47,3.97,12.24,1.2,18.09c-1,2.12-2.01,5.44-1.16,9.24c0.04,0.18,0.08,0.36,0.13,0.53
		c0.99,3.68,4.27,6.63,8.37,7.51c23.08,4.94,49.45-13.78,67.5-30.34c1.87-1.71,1.52-3.72,1.15-4.76c-0.44-1.23-1.46-2.72-3.78-2.84
		c-9.81-0.51-20.16-1.94-30.78-4.23c-10.02-2.16-19.57-5.33-28.82-8.39c-3.6-1.19-7.32-2.42-10.93-3.55l-0.15-0.05
		C1276.22,1027.28,1274.31,1026.69,1272.99,1026.38z M1273.55,1025.49L1273.55,1025.49z"/>
</g>
<g>
	<ellipse transform="matrix(0.931 -0.365 0.365 0.931 -283.2136 507.0545)" cx="1199.74" cy="1002.73" rx="24.22" ry="29.64"/>
</g>
<g>

		<ellipse transform="matrix(0.931 -0.365 0.365 0.931 -278.1974 505.3653)" class="st1" cx="1197.8" cy="988.63" rx="8.9" ry="10.89"/>
</g>
<g class="st3">
	<path class="st1" d="M1192.96,1022.29c1.54,3.94,5.4,6.1,8.62,4.84c3.22-1.26,4.57-5.47,3.03-9.41c-1.54-3.94-5.4-6.1-8.62-4.84
		C1192.78,1014.14,1191.42,1018.35,1192.96,1022.29z"/>
</g>
<g>
	<g>
		<g>
			<path d="M1219.99,1200.83c3.33,5.77,6.29,11.48,8.9,17.2c2.6,5.71,4.75,11.46,6.32,17.09c1.56,5.63,2.48,11.17,2.51,16.32
				c0.03,5.16-0.8,9.85-2.41,14.02c-6.27,16.41-26.25,27.88-47.73,36.7c-10.88,4.5-21.82,8.24-32.72,10.64l-4.09,0.88
				c-1.36,0.27-2.71,0.44-4.07,0.67c-2.73,0.52-5.41,0.69-8.13,1.01c-1.36,0.14-2.68,0.13-4.04,0.22l-2.03,0.11
				c-0.67,0.02-1.33-0.03-2-0.03c-1.33-0.03-2.69,0.02-4.02-0.07c-1.32-0.12-2.65-0.2-3.99-0.29c-5.3-0.57-10.56-1.61-15.75-3.29
				c-5.19-1.68-10.3-4.01-15.26-6.98c-9.95-5.94-19.21-14.36-27.28-24.87c0.12,3.36,0.78,6.68,1.59,9.98
				c0.88,3.27,1.93,6.55,3.31,9.71c2.67,6.37,6.35,12.44,10.9,18.01c4.56,5.56,10.05,10.55,16.24,14.67
				c6.19,4.14,13.06,7.37,20.21,9.67c7.17,2.32,14.58,3.49,21.96,4.09c3.67,0.14,7.39,0.39,11.01,0.14c1.82-0.08,3.66-0.1,5.47-0.26
				l5.38-0.59c14.34-1.75,27.93-5.79,40.64-11.07c6.41-2.62,12.76-5.68,18.98-9.27c6.2-3.62,12.31-7.74,18.02-12.74
				c5.72-4.98,11.07-10.85,15.43-17.75c4.31-6.91,7.56-14.91,8.73-23.24c1.22-8.31,0.42-16.65-1.78-24.06
				c-2.19-7.45-5.66-14.06-9.73-19.88c-4.1-5.83-8.82-10.93-13.95-15.39C1231.5,1207.72,1226,1203.79,1219.99,1200.83z"/>
		</g>
	</g>
</g>
<g class="st4">
	<path d="M1316.59,1128.05c1.73,17.61,1.72,42.81-8.09,69.77c-36.42,99.98-182.98,155.68-299.75,125.65
		c-25.86-6.65-70.74-22.77-116.44-66.68c0,0,107.5,192.01,348.8,85.6c0,0,128.62-27.69,120.76-114.38
		C1354.01,1141.31,1316.59,1128.05,1316.59,1128.05z"/>
</g>
<g>
	<g>
		<path class="st1" d="M1315.5,1418.5c6.27-6.2,57.52-58.55,46.47-129.02c-6.57-41.91-31.71-68.38-38.91-75.39
			c-12.25-11.93-46.12-44.92-80.24-33.77c-24.08,7.87-33.47,32.89-34.07,34.58c-10.73,30,5.77,69.41,42.97,94.04
			c-5.3,4.09-12.25,10.61-17.83,20.27c-13.22,22.88-8.92,46.37-7.38,53.3L1315.5,1418.5z"/>
	</g>
	<g>
		<path d="M1315.5,1418.5c5.76-8.39,10.82-17.01,15.26-25.83c2.25-4.39,4.26-8.86,6.18-13.33c1.89-4.48,3.54-9.03,5.1-13.55
			c2.96-9.11,5.29-18.27,6.53-27.46c0.36-2.29,0.59-4.58,0.84-6.86c0.15-1.14,0.17-2.29,0.26-3.43c0.06-1.14,0.19-2.27,0.2-3.42
			c0.02-2.28,0.16-4.54,0.05-6.81l-0.05-3.38l-0.21-3.37c-1.14-17.91-6.28-35.15-14.61-50.58l-1.58-2.89
			c-0.52-0.97-1.13-1.88-1.69-2.83c-0.58-0.93-1.1-1.89-1.71-2.81l-1.81-2.75c-2.47-3.62-5.05-7.17-7.85-10.51
			c-2.78-3.35-5.71-6.57-8.72-9.51c-0.37-0.38-0.75-0.73-1.13-1.08l-1.23-1.15l-2.65-2.43c-1.73-1.59-3.43-3.13-5.15-4.61
			c-6.87-5.9-13.9-11.19-21.01-15.17c-7.09-4.02-14.19-6.6-20.46-7.26c-3.13-0.32-6.06-0.18-8.9,0.4l-0.54,0.09l-0.53,0.15
			l-1.06,0.27c-0.71,0.19-1.38,0.5-2.08,0.72c-0.72,0.19-1.37,0.56-2.05,0.87l-1.02,0.46c-0.34,0.16-0.66,0.39-0.99,0.58
			c-2.67,1.48-5.27,3.46-7.7,5.93c-2.44,2.45-4.72,5.38-6.68,8.53c-0.99,1.55-1.92,3.22-2.64,4.69l-0.39,0.8l-0.45,1.17
			c-0.34,0.77-0.53,1.6-0.82,2.4c-0.99,3.26-1.55,6.77-1.71,10.44c-0.3,7.35,1.1,15.3,3.96,23.08c2.88,7.77,7.1,15.4,12.42,22.46
			c2.63,3.55,5.53,6.97,8.68,10.22c3.16,3.23,6.5,6.35,10.05,9.3l12.34,10.25l-11.71,7.1c-2.52,1.53-4.93,3.25-7.23,5.13
			c-2.32,1.87-4.52,3.91-6.56,6.13c-2.07,2.2-3.89,4.63-5.66,7.15l-0.67,0.94l-0.6,0.98l-1.22,1.98c-0.8,1.33-1.46,2.75-2.21,4.14
			c-2.79,5.65-4.76,11.86-6.05,18.37c-1.23,6.52-1.73,13.33-1.51,20.29c-2.75-6.42-4.43-13.37-5.22-20.54
			c-0.72-7.17-0.42-14.6,1.04-21.99c0.46-1.81,0.84-3.67,1.4-5.48l0.86-2.72l0.44-1.36l0.52-1.33c0.73-1.76,1.36-3.59,2.23-5.31
			c0.83-1.74,1.74-3.44,2.71-5.12c1.94-3.36,4.16-6.57,6.6-9.63c2.49-3.02,5.19-5.88,8.09-8.54l0.63,17.35
			c-9.62-5.17-18.61-11.79-26.74-19.59c-8.05-7.87-15.18-17.04-20.59-27.53c-5.42-10.45-9.12-22.31-9.9-35.02
			c-0.34-6.35,0.07-12.89,1.4-19.38c0.39-1.61,0.71-3.24,1.22-4.84l0.72-2.4c0.12-0.38,0.36-1.07,0.5-1.45l0.47-1.25
			c1.23-3.15,2.54-5.97,4.05-8.76c2.99-5.55,6.54-10.86,10.89-15.79c4.35-4.9,9.5-9.43,15.41-13.13c0.74-0.46,1.46-0.95,2.22-1.37
			l2.34-1.22c1.56-0.81,3.12-1.63,4.78-2.25c1.65-0.65,3.28-1.35,4.96-1.89l2.55-0.77l1.28-0.37l1.3-0.3
			c6.94-1.63,14.13-2.06,20.98-1.48c6.84,0.63,13.31,2.22,19.31,4.33c6.02,2.1,11.51,4.83,16.69,7.77
			c5.18,2.94,9.96,6.24,14.48,9.68c4.54,3.43,8.77,7.07,12.8,10.79c2.01,1.86,3.97,3.74,5.87,5.61l2.76,2.79l1.45,1.48
			c0.51,0.53,1.02,1.05,1.51,1.59c3.98,4.25,7.58,8.65,10.92,13.23c1.69,2.28,3.27,4.62,4.83,6.98c0.78,1.17,1.49,2.4,2.24,3.6
			c0.74,1.2,1.48,2.4,2.15,3.64l2.06,3.7c0.69,1.23,1.29,2.51,1.93,3.77c0.61,1.27,1.28,2.51,1.85,3.81l1.71,3.87
			c8.97,20.71,12.98,43.62,11.08,65.81c-0.86,11.09-3.19,21.94-6.61,32.25c-1.7,5.16-3.78,10.15-5.99,15.03
			c-0.58,1.21-1.14,2.42-1.73,3.62c-0.58,1.2-1.24,2.37-1.86,3.55c-1.22,2.37-2.59,4.64-3.91,6.94
			c-5.47,9.07-11.76,17.48-18.73,25.15C1331.47,1405.65,1323.9,1412.69,1315.5,1418.5z"/>
	</g>
</g>
<g>
	<path class="st1" d="M1041.03,1117.75c-44.16,21.03-120.83,57.53-121.31,117.97c-0.05,6.52-0.03,14.56,4.19,23.61
		c21.34,45.72,121.64,56.81,192.49,27.24c67.32-28.1,130.87-102.42,113.13-159.11c-5.53-17.67-17.36-28.53-20.8-31.51
		C1165.45,1058.51,1091.63,1093.66,1041.03,1117.75z"/>
	<path d="M1029.78,1320.49c-53.97,0-104.66-17.19-121.73-53.76c-5.98-12.82-5.89-24.29-5.84-31.15
		c0.25-31.8,17.42-61.21,51.01-87.42c26.26-20.49,57.48-35.35,80.28-46.21l7.52,15.8l-7.52-15.8
		c53.66-25.55,134.75-64.16,186.67-19.24c7.01,6.06,19.72,19.26,26.05,39.52c9.97,31.86,0.23,69.53-27.42,106.06
		c-24.25,32.04-59.12,59.16-95.67,74.42C1095.12,1314.41,1061.87,1320.49,1029.78,1320.49z M1160.29,1097.13
		c-35.24,0-79.38,21.02-111.74,36.42l0,0c-41.49,19.76-110.94,52.82-111.33,102.31c-0.04,5.12-0.08,10.42,2.55,16.06
		c7.32,15.68,31.28,27.61,64.09,31.9c35.11,4.6,74.66-0.42,105.8-13.41c30.55-12.75,60.92-36.39,81.25-63.24
		c20.34-26.87,28.33-54.02,21.92-74.49c-3.89-12.43-12.17-20.57-15.55-23.5C1187.31,1100.56,1174.53,1097.13,1160.29,1097.13z"/>
</g>
<g class="st4">
	<path d="M934.97,1202.8c0,0,101.81,132.63,284.13-22.81c0,0-13.19,66.36-96.45,100.62c-83.26,34.26-146.7,16.78-146.7,16.78
		S886.53,1266.4,934.97,1202.8z"/>
</g>
<g>
	<path d="M1564.14,2029.38c1.68-4.85,3.39-9.48,5.16-14.17c1.75-4.67,3.56-9.32,5.39-13.95c1.8-4.65,3.69-9.26,5.58-13.87
		c1.88-4.61,3.8-9.21,5.75-13.79c7.82-18.33,16.02-36.5,24.64-54.47c4.41-8.95,8.7-17.94,13.3-26.79
		c4.48-8.9,9.34-17.64,14.17-26.37c2.48-4.34,5.04-8.64,7.58-12.93c1.29-2.14,2.51-4.31,3.85-6.43l4.02-6.34
		c5.27-8.48,11.03-16.7,16.92-24.76c-6.03,19.1-12.24,37.84-18.21,56.65l-8.9,28.19c-3.01,9.36-5.92,18.76-8.82,28.15
		c-5.73,18.82-11.38,37.63-16.92,56.46l-16.61,56.25L1564.14,2029.38z"/>
</g>
<g>
	<path class="st7" d="M3163.22,1418.6c-92.51,61.98-194.74,31.77-208.97,27.3l-138.67-71.46c0,0-50.15-25.45-59.13-75.52
		c-9.34-52.08,16.57-109.78,71.91-140.07c-12.16-36.13-10-77.05,9.45-113.46c36.62-68.54,122.11-95.48,191.42-60.34
		c71.08,36.04,99.14,123,62.68,193.74c-8.22,15.95-19.02,29.72-31.63,41.04c-13.69,12.29-12.63,34.16,2.13,45.14
		c12.49,9.29,27.7,18.6,45.8,26.28c37.15,15.77,72.44,18.7,99.88,17.33c20.64-1.03,34.01,21.58,23.12,39.15
		C3216.91,1370.75,3195.31,1397.09,3163.22,1418.6z"/>
	<path d="M3031.98,1474.68c-0.92,0-1.84,0-2.76-0.01c-38.85-0.36-69.03-8.56-80.21-12.07l-1.44-0.45l-139.98-72.14
		c-3.17-1.62-58.05-30.48-68.37-88c-10.38-57.89,16.93-117.02,68.6-151.2c-9.37-38.42-4.35-78.29,14.55-113.67
		c19.88-37.21,53.13-64.73,93.63-77.49c40.49-12.76,83.52-9.29,121.14,9.79c38.55,19.54,67.1,52.95,80.39,94.05
		c13.3,41.11,9.72,84.9-10.07,123.31c-9.02,17.5-20.96,32.99-35.49,46.04c-3.54,3.18-3.91,7.13-3.82,9.2
		c0.1,2.08,0.83,6.01,4.69,8.88c13.11,9.75,27.3,17.89,42.19,24.21c28.76,12.21,59.76,17.58,92.17,15.96
		c16.07-0.81,31.15,7.32,39.34,21.21c8.18,13.87,8,30.98-0.48,44.65c-19.16,30.89-43.75,56.53-73.1,76.19l0,0
		C3131.81,1460.71,3084.39,1474.68,3031.98,1474.68z M2960.88,1429.63c20.82,6.3,111.35,28.86,192.6-25.58l0,0
		c25.18-16.87,46.32-38.93,62.84-65.56c2.33-3.76,0.83-7.14,0.08-8.42c-0.76-1.28-2.98-4.25-7.45-4.03
		c-37.72,1.88-73.91-4.41-107.59-18.7c-17.45-7.41-34.07-16.94-49.4-28.35c-11.28-8.39-18.12-21.27-18.77-35.35
		c-0.65-14.05,4.96-27.48,15.39-36.85c11.36-10.2,20.7-22.32,27.77-36.03c15.49-30.06,18.29-64.33,7.88-96.5
		c-10.41-32.17-32.75-58.31-62.92-73.61c-60.65-30.75-136.04-6.98-168.07,52.97c-16.55,30.98-19.5,66.36-8.3,99.63l4.68,13.89
		l-12.86,7.04c-46.24,25.32-71.59,74.2-63.09,121.63c7.29,40.6,49.46,62.81,49.88,63.03L2960.88,1429.63z"/>
</g>
<g class="st3">
	<path class="st1" d="M3043.18,1213.3c-9.03,17.2-18.83,23.99-26.27,26.96c-4.89,1.96-12.47,3.75-15.33,10.1
		c-2.07,4.61-0.66,9.41-0.14,11.18c6.73,22.81,49.56,43.54,49.56,43.54c47.74,23.11,87.96,29.68,97.57,31.16
		c12.88,1.98,24.6,3.07,34.78,3.65c9.03,0.51,14.29,10.44,9.65,18.2c-4.09,6.83-8.73,13.89-13.99,21.07
		c-15.89,21.68-39.94,48.05-72.55,66.79c0,0,140.99-67.6,129.48-115.94c-2.05-8.62-8.36-13.87-8.36-13.87
		c-12.29-10.98-31.93-6.74-41.13-5.38c-43.15,6.38-92.97-15.73-117.12-41.23C3061.33,1261.08,3048.41,1244.1,3043.18,1213.3z"/>
</g>
<g class="st3">
	<path class="st1" d="M3060.26,1206.35c23.61-50.51,19.79-108.77-11.13-150.86c-40.2-54.72-120.24-73.91-189.31-40.75
		c0,0,105.3-114.41,224.22,19.12c0,0,48.67,62.46,9.68,142.48L3060.26,1206.35z"/>
</g>
<g>
	<path d="M3031.98,1474.68c-0.92,0-1.84,0-2.76-0.01c-38.85-0.36-69.03-8.56-80.21-12.07l-1.44-0.45l-139.98-72.14
		c-3.17-1.62-58.05-30.48-68.37-88c-10.38-57.89,16.93-117.02,68.6-151.2c-9.37-38.42-4.35-78.29,14.55-113.67
		c19.88-37.21,53.13-64.73,93.63-77.49c40.49-12.76,83.52-9.29,121.14,9.79c38.55,19.54,67.1,52.95,80.39,94.05
		c13.3,41.11,9.72,84.9-10.07,123.31c-9.02,17.5-20.96,32.99-35.49,46.04c-3.54,3.18-3.91,7.13-3.82,9.2
		c0.1,2.08,0.83,6.01,4.69,8.88c13.11,9.75,27.3,17.89,42.19,24.21c28.76,12.21,59.76,17.58,92.17,15.96
		c16.07-0.81,31.15,7.32,39.34,21.21c8.18,13.87,8,30.98-0.48,44.65c-19.16,30.89-43.75,56.53-73.1,76.19l0,0
		C3131.81,1460.71,3084.39,1474.68,3031.98,1474.68z M2960.88,1429.63c20.82,6.3,111.35,28.86,192.6-25.58l0,0
		c25.18-16.87,46.32-38.93,62.84-65.56c2.33-3.76,0.83-7.14,0.08-8.42c-0.76-1.28-2.98-4.25-7.45-4.03
		c-37.72,1.88-73.91-4.41-107.59-18.7c-17.45-7.41-34.07-16.94-49.4-28.35c-11.28-8.39-18.12-21.27-18.77-35.35
		c-0.65-14.05,4.96-27.48,15.39-36.85c11.36-10.2,20.7-22.32,27.77-36.03c15.49-30.06,18.29-64.33,7.88-96.5
		c-10.41-32.17-32.75-58.31-62.92-73.61c-60.65-30.75-136.04-6.98-168.07,52.97c-16.55,30.98-19.5,66.36-8.3,99.63l4.68,13.89
		l-12.86,7.04c-46.24,25.32-71.59,74.2-63.09,121.63c7.29,40.6,49.46,62.81,49.88,63.03L2960.88,1429.63z"/>
</g>
<g>
	<g>
		<g>
			<path d="M2839.07,1126.87l-0.02-0.08c0-0.01-0.01-0.03-0.01-0.03l0,0.05l-0.02,0.19c-0.02,0.11-0.02,0.29-0.02,0.47
				c-0.01,0.35-0.02,0.7,0,1.1c0,0.76,0.06,1.59,0.1,2.41l0.22,2.53l0.32,2.58c0.48,3.46,1.23,6.96,2.13,10.45
				c1.87,6.95,4.46,13.86,7.87,20.43c3.4,6.58,7.55,12.87,12.35,18.77c4.83,5.87,10.34,11.31,16.34,16.3
				c12,10.05,26.18,17.94,41.23,24.15c15.08,6.23,31.13,10.6,47.5,13.69c-16.65-0.2-33.45-1.67-50.07-5.33
				c-16.59-3.65-33.15-9.26-48.52-18.06c-7.68-4.38-15.1-9.46-21.99-15.34c-6.87-5.91-13.22-12.57-18.86-19.91
				c-5.65-7.34-10.48-15.38-14.51-23.94c-1.98-4.29-3.79-8.7-5.3-13.3l-1.09-3.48c-0.33-1.19-0.67-2.37-0.98-3.58
				c-0.3-1.22-0.6-2.44-0.86-3.73c-0.14-0.62-0.26-1.3-0.38-1.99c-0.06-0.33-0.12-0.68-0.18-1.08l-0.09-0.58l-0.02-0.15l-0.02-0.22
				l-0.05-0.47L2839.07,1126.87z"/>
		</g>
	</g>
</g>
<g>
	<path class="st8" d="M2855.98,1069.01c-13.17,2.66-26.22,6.15-39.57,7.63c-8.91,0.99-18.75,1.51-28.88,1
		c-15.76-0.79-24.64,17.94-14.16,29.74c19.64,22.11,47.07,44.63,75.61,41.53c9.05-0.98,17.02-6.73,20.25-15.23
		c0.13-0.34,0.25-0.69,0.37-1.04c2.55-7.62,1.03-14.37-0.28-18.08c-0.6-1.69-0.26-3.56,0.86-4.96c2.04-2.55,4.29-6.08,5.79-10.6
		c3.32-10.05,2.76-24.61-5.01-29.58C2866.84,1066.79,2862.13,1067.77,2855.98,1069.01z"/>
	<path d="M2843.48,1162.71c-25.92,0-52.86-15.56-80.21-46.36c-8.42-9.48-10.3-23-4.81-34.45c5.55-11.58,16.93-18.36,29.74-17.73
		c8.38,0.42,17.36,0.1,26.72-0.93c8.75-0.97,17.46-2.9,26.67-4.93c3.82-0.84,7.76-1.72,11.71-2.51l0.15-0.03
		c7.17-1.45,16.09-3.25,24.78,2.29c13.82,8.83,15.77,29.42,10.55,45.19c-1.3,3.94-3.13,7.7-5.45,11.2
		c1.43,5.97,1.96,13.83-0.93,22.48c-0.18,0.53-0.36,1.05-0.55,1.55c-5.01,13.16-17.04,22.3-31.41,23.86
		C2848.13,1162.59,2845.8,1162.71,2843.48,1162.71z M2786.58,1091.12c-2.14,0-3.23,1.32-3.77,2.45c-0.48,1-1.03,2.95,0.66,4.85
		c16.27,18.32,40.59,39.63,64.05,37.07c4.17-0.45,7.74-3.05,9.09-6.61c0.06-0.17,0.13-0.34,0.19-0.52c1.24-3.7,0.57-7.1-0.21-9.31
		c-2.15-6.11-1.01-12.79,3.04-17.87c1.58-1.99,2.77-4.14,3.52-6.42c1.77-5.35,1.39-10.97,0.52-13.43c-1.34,0.17-3.31,0.57-4.86,0.88
		l-0.15,0.03c-3.71,0.75-7.54,1.6-11.24,2.41c-9.51,2.1-19.34,4.27-29.52,5.4c-10.79,1.2-21.24,1.56-31.05,1.06
		C2786.76,1091.13,2786.67,1091.12,2786.58,1091.12z M2863.2,1080.39L2863.2,1080.39L2863.2,1080.39z"/>
</g>
<g>
	<ellipse transform="matrix(0.4581 -0.8889 0.8889 0.4581 645.6937 3189.7217)" cx="2938.96" cy="1065.28" rx="29.64" ry="24.22"/>
</g>
<g>

		<ellipse transform="matrix(0.4581 -0.8889 0.8889 0.4581 659.8234 3185.2336)" class="st1" cx="2942.32" cy="1051.46" rx="10.89" ry="8.9"/>
</g>
<g class="st3">
	<path class="st1" d="M2943.7,1085.43c-1.94,3.76-6,5.52-9.07,3.94c-3.07-1.58-3.99-5.91-2.05-9.67c1.94-3.76,6-5.52,9.07-3.94
		C2944.72,1077.34,2945.64,1081.67,2943.7,1085.43z"/>
</g>
<g>
	<g>
		<g>
			<path d="M2898.59,1260.28c-3.9,5.4-7.43,10.78-10.61,16.2c-3.17,5.42-5.9,10.91-8.03,16.36c-2.12,5.44-3.6,10.86-4.16,15.98
				c-0.56,5.13-0.21,9.88,0.96,14.2c4.56,16.97,23.27,30.41,43.74,41.38c10.36,5.59,20.87,10.42,31.46,13.93l3.98,1.29
				c1.33,0.41,2.65,0.71,3.98,1.08c2.67,0.79,5.31,1.24,7.99,1.84c1.34,0.27,2.66,0.41,3.99,0.63l2.01,0.31
				c0.67,0.08,1.33,0.11,1.99,0.18c1.33,0.1,2.68,0.3,4.01,0.34c1.32,0.01,2.66,0.07,4,0.12c5.33-0.02,10.67-0.53,16.01-1.67
				c5.33-1.14,10.65-2.94,15.89-5.39c10.5-4.9,20.57-12.32,29.68-21.95c-0.46,3.33-1.46,6.56-2.6,9.76
				c-1.21,3.16-2.59,6.32-4.28,9.32c-3.31,6.06-7.58,11.73-12.68,16.8c-5.1,5.06-11.07,9.47-17.66,12.94
				c-6.58,3.48-13.74,6-21.1,7.56c-7.37,1.57-14.86,1.98-22.26,1.83c-3.66-0.24-7.39-0.37-10.97-0.98c-1.8-0.27-3.64-0.47-5.41-0.81
				l-5.29-1.14c-14.08-3.2-27.19-8.61-39.3-15.16c-6.11-3.26-12.12-6.95-17.94-11.16c-5.8-4.23-11.45-8.96-16.63-14.52
				c-5.18-5.54-9.9-11.92-13.54-19.23c-3.58-7.32-6-15.61-6.31-24.01c-0.37-8.39,1.28-16.6,4.23-23.76
				c2.94-7.19,7.06-13.4,11.71-18.79c4.67-5.38,9.89-9.97,15.44-13.89C2886.44,1265.96,2892.31,1262.61,2898.59,1260.28z"/>
		</g>
	</g>
</g>
<g class="st4">
	<path d="M2809.92,1178.03c-3.51,17.34-6.08,42.41,0.93,70.23c26.02,103.17,166.13,173.54,285.36,155.59
		c26.41-3.98,72.69-15.43,122.63-54.45c0,0-126.53,180.04-355.72,49.55c0,0-125.13-40.67-108.46-126.11
		C2771.35,1187.4,2809.92,1178.03,2809.92,1178.03z"/>
</g>
<g>
	<g>
		<path class="st1" d="M2781.36,1467.07c-5.6-6.81-51.24-64.12-33.06-133.09c10.82-41.02,38.53-64.79,46.4-71.03
			c13.4-10.62,50.46-39.98,83.27-25.4c23.15,10.29,29.93,36.14,30.36,37.87c7.61,30.94-12.82,68.46-52.34,89.16
			c4.85,4.61,11.11,11.8,15.67,21.98c10.82,24.11,4.14,47.04,1.9,53.77L2781.36,1467.07z"/>
	</g>
	<g>
		<path d="M2781.36,1467.07c-7.76-6.63-14.58-14.41-20.76-22.72c-6.16-8.34-11.55-17.35-16.07-26.93c-1.07-2.42-2.21-4.82-3.18-7.3
			c-0.49-1.24-1.03-2.46-1.48-3.72c-0.47-1.25-0.9-2.52-1.35-3.78c-1.69-5.08-3.25-10.26-4.42-15.57
			c-2.35-10.6-3.55-21.63-3.28-32.75c0.38-22.27,6.7-44.65,17.74-64.33l2.1-3.68c0.69-1.23,1.48-2.4,2.23-3.6
			c0.77-1.18,1.5-2.39,2.31-3.55l2.43-3.47c0.8-1.17,1.66-2.28,2.52-3.41c0.86-1.12,1.69-2.26,2.59-3.35
			c1.8-2.18,3.6-4.36,5.52-6.45c3.79-4.22,7.82-8.23,12.21-12.05c0.54-0.48,1.1-0.95,1.67-1.43l1.59-1.33l3.03-2.49
			c2.08-1.67,4.22-3.34,6.41-4.98c4.39-3.29,8.97-6.48,13.83-9.43c4.85-2.96,9.93-5.75,15.39-8.15c5.45-2.39,11.19-4.56,17.39-6.03
			c6.18-1.48,12.78-2.4,19.65-2.33c6.87,0.12,13.98,1.29,20.72,3.61l1.26,0.43l1.23,0.5l2.46,1.03c1.62,0.71,3.17,1.58,4.74,2.39
			c1.59,0.78,3.05,1.76,4.53,2.73l2.2,1.46c0.72,0.5,1.38,1.06,2.07,1.59c5.5,4.28,10.17,9.31,13.99,14.63
			c3.82,5.35,6.81,10.98,9.22,16.81c1.21,2.93,2.22,5.87,3.13,9.13l0.34,1.3c0.1,0.39,0.28,1.1,0.35,1.49l0.47,2.46
			c0.34,1.64,0.49,3.29,0.71,4.94c0.66,6.59,0.4,13.14-0.59,19.42c-2.08,12.56-6.96,23.98-13.43,33.82
			c-6.45,9.88-14.48,18.27-23.29,25.28c-8.89,6.93-18.5,12.59-28.6,16.75l2.4-17.19c2.62,2.94,5.01,6.06,7.18,9.32
			c2.12,3.29,4,6.72,5.58,10.26c0.8,1.77,1.53,3.56,2.18,5.37c0.69,1.79,1.14,3.68,1.68,5.51l0.38,1.38l0.3,1.4l0.58,2.79
			c0.37,1.86,0.56,3.75,0.83,5.6c0.7,7.49,0.25,14.91-1.2,21.98c-1.51,7.05-3.9,13.8-7.28,19.9c0.93-6.9,1.12-13.73,0.57-20.34
			c-0.62-6.61-1.95-12.99-4.15-18.89c-0.61-1.46-1.12-2.93-1.78-4.34l-1.01-2.1l-0.5-1.04l-0.57-1.01c-1.5-2.69-3.07-5.29-4.91-7.69
			c-1.8-2.42-3.79-4.67-5.9-6.76c-2.1-2.11-4.32-4.07-6.67-5.84l-10.92-8.25l13.32-8.94c3.83-2.57,7.48-5.33,10.95-8.22
			c3.46-2.91,6.69-6.01,9.67-9.28c6.01-6.48,10.99-13.63,14.65-21.07c3.64-7.44,5.84-15.21,6.29-22.55
			c0.21-3.67,0.01-7.22-0.64-10.56c-0.21-0.82-0.31-1.67-0.57-2.47l-0.33-1.21l-0.3-0.83c-0.56-1.53-1.32-3.29-2.14-4.94
			c-1.62-3.34-3.6-6.48-5.77-9.17c-2.16-2.71-4.55-4.94-7.06-6.69c-0.31-0.22-0.6-0.48-0.92-0.68l-0.97-0.56
			c-0.64-0.38-1.26-0.82-1.95-1.07c-0.68-0.29-1.31-0.67-2-0.93l-1.03-0.38l-0.51-0.2l-0.53-0.14c-2.76-0.87-5.67-1.3-8.82-1.31
			c-6.31,0.02-13.63,1.86-21.1,5.13c-7.48,3.23-15.02,7.78-22.45,12.95c-1.86,1.3-3.72,2.66-5.6,4.06l-2.88,2.15l-1.34,1.02
			c-0.41,0.31-0.83,0.63-1.24,0.96c-3.29,2.62-6.53,5.53-9.64,8.57c-3.12,3.04-6.05,6.31-8.88,9.66l-2.08,2.55
			c-0.7,0.85-1.32,1.75-1.99,2.62c-0.65,0.88-1.36,1.73-1.97,2.64l-1.87,2.71c-9.86,14.5-16.73,31.12-19.69,48.83l-0.56,3.33
			l-0.39,3.36c-0.34,2.24-0.44,4.5-0.65,6.77c-0.11,1.14-0.1,2.28-0.15,3.42c-0.02,1.14-0.12,2.29-0.09,3.43
			c0.02,2.29,0.01,4.6,0.14,6.91c0.29,9.27,1.67,18.62,3.69,27.98c1.1,4.66,2.27,9.35,3.7,14c1.45,4.64,3,9.3,4.79,13.89
			C2772.34,1449.04,2776.49,1458.13,2781.36,1467.07z"/>
	</g>
</g>
<g class="st4">
	<path d="M3091.28,1215.95c41.78,25.42,114.33,69.56,108.64,129.73c-0.61,6.5-1.46,14.48-6.58,23.05
		c-25.9,43.3-126.8,44.09-194.26,7.45c-64.1-34.82-119.73-115.24-96.3-169.82c7.3-17.01,20.18-26.61,23.91-29.22
		C2973.56,1144.31,3043.41,1186.81,3091.28,1215.95z"/>
	<path d="M3106.42,1420.05c-39.32,0-82.08-10.23-115.7-28.5c-34.8-18.91-66.72-49.45-87.58-83.8
		c-23.78-39.16-29.62-77.63-16.45-108.31c8.37-19.5,22.36-31.33,29.95-36.65c56.24-39.39,132.97,7.3,183.74,38.19l0,0
		c21.57,13.12,51.11,31.1,75.14,54.16c30.74,29.5,44.81,60.51,41.82,92.17c-0.64,6.83-1.73,18.25-8.98,30.39
		C3190.85,1407,3150.82,1420.05,3106.42,1420.05z M2966.64,1182.83c-11.04,0-21.22,2.55-29.92,8.65
		c-3.66,2.56-12.73,9.82-17.86,21.79c-8.46,19.71-3.28,47.53,14.2,76.34c17.48,28.78,45.28,55.4,74.37,71.21
		c29.65,16.1,68.48,25.12,103.88,24.14c33.08-0.92,58.13-10.34,67.01-25.19c3.2-5.35,3.7-10.62,4.18-15.72
		c4.66-49.27-61.05-89.25-100.31-113.14l9.1-14.95l-9.1,14.95C3049.17,1210.8,3003.19,1182.83,2966.64,1182.83z"/>
</g>
<g>
	<path class="st1" d="M3085.1,1195.9c41.78,25.42,114.33,69.56,108.64,129.73c-0.61,6.5-1.46,14.48-6.58,23.05
		c-25.9,43.3-126.8,44.09-194.26,7.45c-64.1-34.82-119.73-115.24-96.3-169.82c7.3-17.01,20.18-26.61,23.91-29.22
		C2967.37,1124.27,3037.22,1166.77,3085.1,1195.9z"/>
	<path d="M3100.23,1400.01c-39.32,0-82.08-10.23-115.7-28.49c-34.8-18.91-66.72-49.45-87.58-83.8
		c-23.78-39.16-29.62-77.63-16.45-108.31c8.37-19.5,22.36-31.33,29.95-36.65c56.24-39.39,132.97,7.3,183.74,38.19
		c21.57,13.12,51.11,31.1,75.14,54.16c30.74,29.5,44.81,60.51,41.82,92.17c-0.64,6.82-1.72,18.25-8.98,30.39
		C3184.66,1386.96,3144.63,1400.01,3100.23,1400.01z M2960.45,1162.79c-11.04,0-21.22,2.55-29.92,8.65
		c-3.66,2.56-12.73,9.82-17.87,21.79c-8.46,19.71-3.28,47.53,14.21,76.34c17.47,28.78,45.28,55.4,74.37,71.21
		c29.65,16.1,68.48,25.13,103.88,24.14c33.08-0.92,58.13-10.34,67.01-25.19c3.2-5.35,3.7-10.62,4.18-15.72
		c1.96-20.77-8.25-41.58-31.21-63.62c-21.26-20.41-48.91-37.23-69.1-49.51v0C3042.98,1190.76,2997,1162.79,2960.45,1162.79z"/>
</g>
<g class="st4">
	<path d="M3181.92,1291.34c0,0-114.81,121.55-280.32-51.69c0,0,6.34,67.36,85.67,109.93c79.33,42.58,144.22,31.67,144.22,31.67
		S3223.62,1359.54,3181.92,1291.34z"/>
</g>
<g>
	<path d="M2433.75,2057.37l-10.78-57.65c-3.59-19.3-7.29-38.59-11.06-57.89c-1.93-9.63-3.87-19.28-5.91-28.9l-5.98-28.95
		c-4.02-19.32-8.28-38.6-12.33-58.21c5.04,8.62,9.93,17.39,14.31,26.36l3.36,6.71c1.12,2.24,2.11,4.52,3.17,6.78
		c2.09,4.53,4.2,9.07,6.22,13.64c3.91,9.17,7.85,18.37,11.4,27.68c3.68,9.28,7.03,18.66,10.5,28.01
		c6.74,18.76,13.04,37.67,18.95,56.7c1.47,4.76,2.91,9.53,4.31,14.31c1.42,4.78,2.82,9.56,4.14,14.36c1.35,4.8,2.68,9.6,3.94,14.43
		c1.28,4.84,2.5,9.63,3.68,14.62L2433.75,2057.37z"/>
</g>
<g class="st4">
	<path d="M1973.32,3472.59c-6.69-0.47,523.62-53.18,748.41-525.16c59.88-125.72-31.65-270.93-170.9-270.93H880.5v-200h2280
		C3160.5,2476.5,3105.15,3552.68,1973.32,3472.59z"/>
</g>
<g class="st4">
	<path d="M3161,2257c9.05,11.53,18.1,23.07,27.15,34.6c34.87,44.44,3.28,109.54-53.21,109.63L1464,2404H907.28
		c-62.74,0-97.2-72.99-57.32-121.43L871,2257c0,0-167.65,171,36.18,219.5L3161,2477c44.03-16.68,74.3-57.22,77-103
		C3240.98,2323.47,3209.84,2275.71,3161,2257z"/>
</g>
<g class="st4">
	<path d="M1310.18,1824.49L1030,2211c0,0-40,71,61,96l287.95-435.63L1310.18,1824.49z"/>
</g>
<g class="st4">
	<path d="M2688.64,1909.24L2923,2307c0,0,120.92-0.61,57.46-96.3c-63.46-95.7-224.21-345.95-224.21-345.95L2688.64,1909.24z"/>
</g>
<g>
	<path class="st5" d="M1427.5,1511.5c-11.48,30.97-32.46,75.94-71,121c-52.32,61.17-111.13,92.24-145,107
		c9.58,9.23,19.58,18.58,30,28c11.4,10.3,22.66,20.1,33.73,29.43c0,0,160.04-91.75,209.16-238.09
		c-10.83-7.65-22.23-16.39-33.89-26.34C1442.19,1525.41,1434.54,1518.37,1427.5,1511.5z"/>
	<path d="M1273.32,1818.2l-9.36-7.88c-11.52-9.7-23.02-19.74-34.19-29.83c-10.24-9.26-20.48-18.81-30.41-28.38l-18.86-18.18
		l24.01-10.46c53.36-23.25,101.32-58.64,138.69-102.33c29.27-34.22,52.11-73.15,67.89-115.71l9.36-25.25l19.27,18.81
		c7.13,6.95,14.57,13.76,22.14,20.21c10.43,8.91,21.41,17.44,32.62,25.36l10.64,7.51l-4.14,12.35
		c-26.59,79.23-84.24,142.38-127.93,181.4c-46.98,41.97-87.42,65.32-89.12,66.3L1273.32,1818.2z M1242.12,1744.35
		c3.69,3.42,7.4,6.81,11.11,10.16c7.75,7.01,15.67,13.98,23.64,20.83c14.56-9.35,42.75-28.66,73.46-56.17
		c38.04-34.07,87.46-87.73,113.13-153.92c-8.32-6.23-16.46-12.74-24.32-19.45c-1.65-1.41-3.3-2.84-4.94-4.28
		c-16.42,37.17-38.01,71.51-64.39,102.35C1334.61,1685.02,1290.84,1719.41,1242.12,1744.35z"/>
</g>
<g class="st3">
	<path class="st1" d="M1408.52,1554.74c0,0,39.98,34.31,58.48,45.53l17.5-41.77l-57-47L1408.52,1554.74z"/>
</g>
<g>
	<path d="M1273.32,1818.2l-9.36-7.88c-11.52-9.7-23.02-19.74-34.19-29.83c-10.24-9.26-20.48-18.81-30.41-28.38l-18.86-18.18
		l24.01-10.46c53.36-23.25,101.32-58.64,138.69-102.33c29.27-34.22,52.11-73.15,67.89-115.71l9.36-25.25l19.27,18.81
		c7.13,6.95,14.57,13.76,22.14,20.21c10.43,8.91,21.41,17.44,32.62,25.36l10.64,7.51l-4.14,12.35
		c-26.59,79.23-84.24,142.38-127.93,181.4c-46.98,41.97-87.42,65.32-89.12,66.3L1273.32,1818.2z M1242.12,1744.35
		c3.69,3.42,7.4,6.81,11.11,10.16c7.75,7.01,15.67,13.98,23.64,20.83c14.56-9.35,42.75-28.66,73.46-56.17
		c38.04-34.07,87.46-87.73,113.13-153.92c-8.32-6.23-16.46-12.74-24.32-19.45c-1.65-1.41-3.3-2.84-4.94-4.28
		c-16.42,37.17-38.01,71.51-64.39,102.35C1334.61,1685.02,1290.84,1719.41,1242.12,1744.35z"/>
</g>
<g class="st4">
	<path d="M1652,1853.82c0,0-320.77,29.68-510.99-366.33c-11.74-24.44-6.98-53.62,11.86-73.11c14.79-15.3,37.58-30.96,72.28-39.86
		L1225,1355c-19.13,9.52-44.47,19.48-75.27,25.02c-69.56,12.52-126.84-4.7-155.47-15.71c0,0,118.74,505.69,607.74,604.69
		L1652,1853.82z"/>
</g>
<g>
	<path class="st5" d="M2660.29,1548.88c8.71,31.86,25.63,78.51,60.05,126.79c46.72,65.55,102.56,101.68,135,119.37
		c-10.36,8.35-21.14,16.78-32.35,25.24c-12.26,9.25-24.34,18.03-36.2,26.34c0,0-151.33-105.51-187.34-255.61
		c11.47-6.66,23.59-14.36,36.08-23.25C2644.43,1561.44,2652.68,1555.1,2660.29,1548.88z"/>
	<path d="M2786.82,1867.98l-10.04-7c-1.61-1.12-39.83-27.95-82.92-73.9c-40.07-42.73-91.93-110.72-111.43-191.98l-3.04-12.67
		l11.26-6.55c11.87-6.9,23.55-14.43,34.73-22.38c8.11-5.77,16.13-11.89,23.84-18.18l20.85-17.03l7.1,25.98
		c11.97,43.79,31.28,84.58,57.42,121.25c33.37,46.82,78.02,86.3,129.12,114.17l23,12.54l-20.39,16.44
		c-10.74,8.66-21.77,17.27-32.79,25.59c-12.01,9.07-24.36,18.05-36.69,26.7L2786.82,1867.98z M2619.73,1599.26
		c33,114.3,135.24,200.81,167.34,225.73c8.54-6.12,17.04-12.37,25.38-18.66c3.99-3.01,7.98-6.06,11.96-9.14
		c-46.33-29.15-86.89-67.26-118.31-111.35c-23.56-33.05-42.04-69.16-55.11-107.63c-1.76,1.29-3.53,2.57-5.3,3.83
		C2637.25,1588.02,2628.56,1593.79,2619.73,1599.26z"/>
</g>
<g class="st3">
	<path class="st1" d="M2675.39,1593.63c0,0-42.85,30.64-62.27,40.2l-13.75-43.15l60.92-41.79L2675.39,1593.63z"/>
</g>
<g>
	<path d="M2786.82,1867.98l-10.04-7c-1.61-1.12-39.83-27.95-82.92-73.9c-40.07-42.73-91.93-110.72-111.43-191.98l-3.04-12.67
		l11.26-6.55c11.87-6.9,23.55-14.43,34.73-22.38c8.11-5.77,16.13-11.89,23.84-18.18l20.85-17.03l7.1,25.98
		c11.97,43.79,31.28,84.58,57.42,121.25c33.37,46.82,78.02,86.3,129.12,114.17l23,12.54l-20.39,16.44
		c-10.74,8.66-21.77,17.27-32.79,25.59c-12.01,9.07-24.36,18.05-36.69,26.7L2786.82,1867.98z M2619.73,1599.26
		c33,114.3,135.24,200.81,167.34,225.73c8.54-6.12,17.04-12.37,25.38-18.66c3.99-3.01,7.98-6.06,11.96-9.14
		c-46.33-29.15-86.89-67.26-118.31-111.35c-23.56-33.05-42.04-69.16-55.11-107.63c-1.76,1.29-3.53,2.57-5.3,3.83
		C2637.25,1588.02,2628.56,1593.79,2619.73,1599.26z"/>
</g>
<g class="st4">
	<path d="M2406.47,1870.06c0,0,316.9,57.86,541.32-319.82c13.85-23.31,11.69-52.79-5.37-73.87c-13.39-16.54-34.71-34.15-68.48-46.09
		l1.87-19.43c18.21,11.17,42.58,23.32,72.77,31.56c68.18,18.61,126.76,6.51,156.25-1.94c0,0-162.89,493.24-658.71,548.72
		L2406.47,1870.06z"/>
</g>
<g class="st4">
	<path d="M1652,1847c-9.37,26.89-21.89,76.06-10.5,134.63c17.71,91.06,81.43,144.15,101.5,160.38c14.85,12.01,28.37,20.48,38,26
		c-71.33-15.33-142.67-30.67-214-46L1652,1847z"/>
</g>
<g class="st4">
	<path d="M2400.22,1864.73c13.64,59.79,7.62,107.59,1.87,135.02c-8.41,40.16-22.99,109.72-69.09,126.24
		c-30.38,10.89-60.01-6.44-76,12c-9.6,11.07-8.12,27.92-6.04,38.83c72.17-10.74,144.34-21.48,216.5-32.22L2400.22,1864.73z"/>
</g>
<g>
	<path class="st1" d="M1575.52,2031.15l172.77,6.25l-4.65,83.92l-171.02-5.52c-23.27-0.75-41.51-20.25-40.71-43.52l0.02-0.5
		C1532.72,2048.51,1552.25,2030.31,1575.52,2031.15z"/>
	<path d="M1760.17,2139.36l-188.11-6.07c-15.93-0.51-30.71-7.21-41.6-18.85s-16.59-26.83-16.04-42.76l0.02-0.51
		c0.55-15.92,7.27-30.68,18.93-41.54c11.66-10.87,26.85-16.55,42.78-15.96l190.6,6.89L1760.17,2139.36z M1573.97,2048.62
		c-6.24,0-12.16,2.33-16.74,6.6c-4.81,4.48-7.59,10.58-7.81,17.15l-0.02,0.51c-0.23,6.57,2.13,12.83,6.62,17.64
		c4.49,4.8,10.59,7.57,17.17,7.78l153.93,4.97l2.72-49.03l-154.94-5.6C1574.58,2048.63,1574.27,2048.62,1573.97,2048.62z"/>
</g>
<g>
	<path class="st1" d="M2432.94,2053.94l-172.76-6.63l-1.61,84.03l170.96,7.22c23.26,0.98,42.91-17.11,43.84-40.37l0.02-0.5
		C2474.32,2074.43,2456.2,2054.83,2432.94,2053.94z"/>
	<path d="M2431.37,2156.1c-0.86,0-1.71-0.02-2.58-0.05l-188.04-7.94l2.28-118.96l190.58,7.31c15.93,0.61,30.66,7.39,41.48,19.09
		c10.82,11.7,16.43,26.92,15.79,42.85l-0.02,0.51c-0.64,15.92-7.45,30.64-19.18,41.44
		C2460.58,2150.56,2446.36,2156.1,2431.37,2156.1z M2276.4,2114.58l153.87,6.5c6.58,0.27,12.86-2.02,17.7-6.48
		c4.84-4.46,7.65-10.53,7.91-17.11l0.02-0.51c0.26-6.56-2.05-12.84-6.52-17.68c-4.46-4.83-10.54-7.63-17.12-7.88h0l-154.93-5.94
		L2276.4,2114.58z"/>
</g>
<g class="st4">
	<path d="M2258.5,2089.32l215.41,8.15c0,0,4.32,43.47-67.84,40.16s-147.49-6.28-147.49-6.28L2258.5,2089.32z"/>
</g>
<g>
	<path class="st1" d="M2253,2195c-70.11,10.53-155.3,17.92-252,15c-100.4-3.03-187.87-16.42-259-32
		c1.53-46.53,3.06-93.06,4.58-139.59c1.08-32.78,28.55-58.47,61.33-57.34l392.51,13.5c32.72,1.13,58.35,28.55,57.25,61.28
		C2256.11,2102.23,2254.56,2148.61,2253,2195z"/>
	<path d="M2043.33,2225.64c-14.28,0-28.54-0.21-42.78-0.65c-87.83-2.66-175.9-13.54-261.76-32.34l-12.19-2.67l4.99-152.07
		c0.65-19.86,9.01-38.28,23.52-51.85c14.52-13.57,33.45-20.67,53.31-19.99l392.51,13.5c40.92,1.41,73.1,35.85,71.72,76.77
		l-5.09,151.63l-12.34,1.85C2185.27,2220.34,2114.17,2225.64,2043.33,2225.64z M1757.4,2165.96
		c80.18,16.81,162.22,26.57,244.05,29.05c79,2.39,158.65-2,236.98-13.04l4.25-126.62c0.82-24.4-18.37-44.94-42.77-45.78
		l-392.51-13.5c-11.85-0.41-23.14,3.83-31.79,11.92c-8.66,8.09-13.64,19.08-14.03,30.92L1757.4,2165.96z"/>
</g>
<g>
	<path class="st9" d="M1962.5,2205.5c-25.58-0.23-53.73-1.66-84-5c-29.45-3.25-56.54-7.83-81-13c1.2-31.77,2.4-63.55,3.6-95.32
		c0.56-14.87,13.05-26.49,27.93-25.98l111.22,3.83c15.12,0.52,26.93,13.23,26.36,28.34
		C1965.23,2134.08,1963.86,2169.79,1962.5,2205.5z"/>
	<path d="M1974.53,2218.11l-12.14-0.11c-28.37-0.25-57.06-1.96-85.26-5.07c-27.49-3.03-55.15-7.47-82.21-13.2l-10.3-2.18l4-105.84
		c0.82-21.7,19.16-38.79,40.85-38l111.22,3.83c10.66,0.37,20.53,4.87,27.79,12.68c7.26,7.81,11.04,17.98,10.63,28.63
		L1974.53,2218.11z M1810.39,2177.38c22.96,4.54,46.28,8.14,69.48,10.7c23.35,2.58,47.05,4.16,70.6,4.73l3.63-94.91
		c0.15-3.96-1.25-7.75-3.96-10.65c-2.7-2.91-6.37-4.58-10.34-4.72l-111.22-3.83c-8-0.23-14.7,5.99-15,13.96L1810.39,2177.38z"/>
</g>
<g class="st3">
	<path class="st1" d="M1812.35,2109.6c0,0-0.32-23.26,31-22.18c31.32,1.08,89.47,3.08,89.47,3.08s21.25,0.73,21.71,19.95l1.08-31.3
		l-142.04-4.89L1812.35,2109.6z"/>
</g>
<g class="st4">
	<path d="M1953.44,2149.25c0,0-0.3,33.87-31.61,32.6c-31.31-1.27-89.45-3.62-89.45-3.62s-21.25-0.86-21.19-28.85l-1.91,45.59
		l142.01,5.74L1953.44,2149.25z"/>
</g>
<g>
	<path d="M2192.75,2101.29c-0.17,0-0.35,0-0.53-0.01l-167.76-5.77c-8.28-0.29-14.76-7.23-14.48-15.51
		c0.28-8.28,7.25-14.74,15.51-14.48l167.76,5.77c8.28,0.29,14.76,7.23,14.48,15.51C2207.46,2094.91,2200.8,2101.29,2192.75,2101.29z
		"/>
</g>
<g>
	<path d="M2190.5,2166.92c-0.17,0-0.35,0-0.53-0.01l-167.76-5.77c-8.28-0.29-14.76-7.23-14.48-15.51s7.25-14.74,15.51-14.48
		l167.76,5.77c8.28,0.29,14.76,7.23,14.48,15.51C2205.2,2160.54,2198.54,2166.92,2190.5,2166.92z"/>
</g>
<g class="st4">
	<path d="M1746.84,2079.42l-215.42-7.91c0,0-7.55,43.03,64.66,45.1c72.2,2.07,147.55,4.71,147.55,4.71L1746.84,2079.42z"/>
</g>
<g>
	<path d="M1974.53,2218.11l-12.14-0.11c-28.37-0.25-57.06-1.96-85.26-5.07c-27.49-3.03-55.15-7.47-82.21-13.2l-10.3-2.18l4-105.84
		c0.82-21.7,19.16-38.79,40.85-38l111.22,3.83c10.66,0.37,20.53,4.87,27.79,12.68c7.26,7.81,11.04,17.98,10.63,28.63
		L1974.53,2218.11z M1810.39,2177.38c22.96,4.54,46.28,8.14,69.48,10.7c23.35,2.58,47.05,4.16,70.6,4.73l3.63-94.91
		c0.15-3.96-1.25-7.75-3.96-10.65c-2.7-2.91-6.37-4.58-10.34-4.72l-111.22-3.83c-8-0.23-14.7,5.99-15,13.96L1810.39,2177.38z"/>
</g>
<g class="st4">
	<path d="M1432.5,3421c0,0-141.5-46-213.5-116v-81.88c0,0,144,111.88,213,142.88L1432.5,3421z"/>
</g>
<g class="st4">
	<path d="M2587.4,3420.59c0,0,143.95-37.65,219.91-103.33l4.78-81.74c0,0-150.29,103.27-220.99,130.18L2587.4,3420.59z"/>
</g>
<g class="st4">
	<path d="M1135.62,1897.51c0,0,32.3,71.1-6.16,182.3L1310,1824l-90.27-63.21L1135.62,1897.51z"/>
</g>
<g class="st4">
	<path d="M2897,2053c0,0-26-83.59,0-172.79l-57.06-74.21l-83.94,59L2897,2053z"/>
</g>
</svg>
